%TF.GenerationSoftware,KiCad,Pcbnew,6.0.4-6f826c9f35~116~ubuntu20.04.1*%
%TF.CreationDate,2022-05-07T21:53:41-05:00*%
%TF.ProjectId,Circuit,43697263-7569-4742-9e6b-696361645f70,rev?*%
%TF.SameCoordinates,Original*%
%TF.FileFunction,Copper,L1,Top*%
%TF.FilePolarity,Positive*%
%FSLAX46Y46*%
G04 Gerber Fmt 4.6, Leading zero omitted, Abs format (unit mm)*
G04 Created by KiCad (PCBNEW 6.0.4-6f826c9f35~116~ubuntu20.04.1) date 2022-05-07 21:53:41*
%MOMM*%
%LPD*%
G01*
G04 APERTURE LIST*
G04 Aperture macros list*
%AMRoundRect*
0 Rectangle with rounded corners*
0 $1 Rounding radius*
0 $2 $3 $4 $5 $6 $7 $8 $9 X,Y pos of 4 corners*
0 Add a 4 corners polygon primitive as box body*
4,1,4,$2,$3,$4,$5,$6,$7,$8,$9,$2,$3,0*
0 Add four circle primitives for the rounded corners*
1,1,$1+$1,$2,$3*
1,1,$1+$1,$4,$5*
1,1,$1+$1,$6,$7*
1,1,$1+$1,$8,$9*
0 Add four rect primitives between the rounded corners*
20,1,$1+$1,$2,$3,$4,$5,0*
20,1,$1+$1,$4,$5,$6,$7,0*
20,1,$1+$1,$6,$7,$8,$9,0*
20,1,$1+$1,$8,$9,$2,$3,0*%
G04 Aperture macros list end*
%TA.AperFunction,ComponentPad*%
%ADD10R,2.200000X2.200000*%
%TD*%
%TA.AperFunction,ComponentPad*%
%ADD11O,2.200000X2.200000*%
%TD*%
%TA.AperFunction,ComponentPad*%
%ADD12C,1.600000*%
%TD*%
%TA.AperFunction,ComponentPad*%
%ADD13O,1.600000X1.600000*%
%TD*%
%TA.AperFunction,ComponentPad*%
%ADD14R,1.600000X1.600000*%
%TD*%
%TA.AperFunction,SMDPad,CuDef*%
%ADD15RoundRect,0.243750X-0.456250X0.243750X-0.456250X-0.243750X0.456250X-0.243750X0.456250X0.243750X0*%
%TD*%
%TA.AperFunction,ComponentPad*%
%ADD16R,1.860000X1.860000*%
%TD*%
%TA.AperFunction,ComponentPad*%
%ADD17C,1.860000*%
%TD*%
%TA.AperFunction,ComponentPad*%
%ADD18R,1.308000X1.308000*%
%TD*%
%TA.AperFunction,ComponentPad*%
%ADD19C,1.308000*%
%TD*%
%TA.AperFunction,ComponentPad*%
%ADD20C,2.400000*%
%TD*%
%TA.AperFunction,ComponentPad*%
%ADD21O,2.400000X2.400000*%
%TD*%
%TA.AperFunction,ComponentPad*%
%ADD22C,1.400000*%
%TD*%
%TA.AperFunction,ComponentPad*%
%ADD23O,1.400000X1.400000*%
%TD*%
%TA.AperFunction,ComponentPad*%
%ADD24O,1.200000X2.000000*%
%TD*%
%TA.AperFunction,ComponentPad*%
%ADD25R,1.800000X1.800000*%
%TD*%
%TA.AperFunction,ComponentPad*%
%ADD26O,1.800000X1.800000*%
%TD*%
%TA.AperFunction,SMDPad,CuDef*%
%ADD27RoundRect,0.243750X0.456250X-0.243750X0.456250X0.243750X-0.456250X0.243750X-0.456250X-0.243750X0*%
%TD*%
%TA.AperFunction,ComponentPad*%
%ADD28C,1.404000*%
%TD*%
%TA.AperFunction,ComponentPad*%
%ADD29C,5.600000*%
%TD*%
%TA.AperFunction,ViaPad*%
%ADD30C,0.685800*%
%TD*%
%TA.AperFunction,Conductor*%
%ADD31C,0.152400*%
%TD*%
%TA.AperFunction,Conductor*%
%ADD32C,0.300000*%
%TD*%
%TA.AperFunction,Conductor*%
%ADD33C,0.350000*%
%TD*%
G04 APERTURE END LIST*
D10*
%TO.P,D1,1,K*%
%TO.N,ccd_f+*%
X65587975Y-104988515D03*
D11*
%TO.P,D1,2,A*%
%TO.N,GND*%
X63047975Y-104988515D03*
%TD*%
D12*
%TO.P,R7,1*%
%TO.N,ccd_f+*%
X65079975Y-97114515D03*
D13*
%TO.P,R7,2*%
%TO.N,GND*%
X70159975Y-97114515D03*
%TD*%
D12*
%TO.P,C11,1*%
%TO.N,+5V*%
X67550000Y-85258000D03*
%TO.P,C11,2*%
%TO.N,GND*%
X72550000Y-85258000D03*
%TD*%
D14*
%TO.P,C13,1*%
%TO.N,ccd_f+*%
X61991975Y-110068515D03*
D12*
%TO.P,C13,2*%
%TO.N,GND*%
X59491975Y-110068515D03*
%TD*%
D15*
%TO.P,D7,1,K*%
%TO.N,GND*%
X83058000Y-113870500D03*
%TO.P,D7,2,A*%
%TO.N,Net-(D7-Pad2)*%
X83058000Y-115745500D03*
%TD*%
D14*
%TO.P,C5,1*%
%TO.N,ccd_f+*%
X67199595Y-91780515D03*
D12*
%TO.P,C5,2*%
%TO.N,ccd_f-*%
X69699595Y-91780515D03*
%TD*%
%TO.P,R3,1*%
%TO.N,+5V*%
X97028000Y-74930000D03*
D13*
%TO.P,R3,2*%
%TO.N,idle*%
X97028000Y-87630000D03*
%TD*%
D12*
%TO.P,R5,1*%
%TO.N,+5V*%
X77808975Y-100416515D03*
D13*
%TO.P,R5,2*%
%TO.N,ccd_f-*%
X72728975Y-100416515D03*
%TD*%
D16*
%TO.P,J1,1,1*%
%TO.N,GND*%
X101661000Y-132495000D03*
D17*
%TO.P,J1,2,2*%
%TO.N,IO{slash}1*%
X97471000Y-132495000D03*
%TO.P,J1,3,3*%
%TO.N,IO{slash}2*%
X93281000Y-132495000D03*
%TO.P,J1,4,4*%
%TO.N,IO{slash}3*%
X89091000Y-132495000D03*
%TO.P,J1,5,5*%
%TO.N,unconnected-(J1-Pad5)*%
X84901000Y-132495000D03*
%TO.P,J1,6,6*%
%TO.N,+12V*%
X80711000Y-132495000D03*
%TO.P,J1,7,7*%
%TO.N,GND*%
X80711000Y-126145000D03*
%TO.P,J1,8,8*%
%TO.N,ccd+*%
X84901000Y-126145000D03*
%TO.P,J1,9,9*%
%TO.N,ccd-*%
X89091000Y-126145000D03*
%TO.P,J1,10,10*%
%TO.N,unconnected-(J1-Pad10)*%
X93281000Y-126145000D03*
%TO.P,J1,11,11*%
%TO.N,can+*%
X97471000Y-126145000D03*
%TO.P,J1,12,12*%
%TO.N,can-*%
X101661000Y-126145000D03*
%TD*%
D12*
%TO.P,C10,1*%
%TO.N,+5V*%
X75312000Y-81702000D03*
%TO.P,C10,2*%
%TO.N,GND*%
X70312000Y-81702000D03*
%TD*%
D18*
%TO.P,U1,1,TXD*%
%TO.N,can_tx*%
X126092059Y-110694258D03*
D19*
%TO.P,U1,2,VSS*%
%TO.N,GND*%
X123552059Y-110694258D03*
%TO.P,U1,3,VDD*%
%TO.N,+5V*%
X121012059Y-110694258D03*
%TO.P,U1,4,RXD*%
%TO.N,can_rx*%
X118472059Y-110694258D03*
%TO.P,U1,5,SPLIT*%
%TO.N,/split*%
X118472059Y-118564258D03*
%TO.P,U1,6,CANL*%
%TO.N,can-*%
X121012059Y-118564258D03*
%TO.P,U1,7,CANH*%
%TO.N,can+*%
X123552059Y-118564258D03*
%TO.P,U1,8,STBY*%
%TO.N,unconnected-(U1-Pad8)*%
X126092059Y-118564258D03*
%TD*%
D15*
%TO.P,D8,2,A*%
%TO.N,Net-(D8-Pad2)*%
X86106000Y-115745500D03*
%TO.P,D8,1,K*%
%TO.N,GND*%
X86106000Y-113870500D03*
%TD*%
D20*
%TO.P,L1,1,1*%
%TO.N,Net-(D4-Pad1)*%
X62938000Y-70018000D03*
D21*
%TO.P,L1,2,2*%
%TO.N,+5V*%
X62938000Y-85258000D03*
%TD*%
D12*
%TO.P,R10,1*%
%TO.N,ccd-*%
X69143975Y-117688515D03*
D13*
%TO.P,R10,2*%
%TO.N,ccd_f-*%
X69143975Y-110068515D03*
%TD*%
D12*
%TO.P,C3,1*%
%TO.N,+5V*%
X109006000Y-75946000D03*
%TO.P,C3,2*%
%TO.N,GND*%
X114006000Y-75946000D03*
%TD*%
D22*
%TO.P,R9,1*%
%TO.N,12V_MEASURE*%
X82844000Y-68834000D03*
D23*
%TO.P,R9,2*%
%TO.N,+12V*%
X82844000Y-73914000D03*
%TD*%
D14*
%TO.P,C12,1*%
%TO.N,ccd_f-*%
X73461975Y-110068515D03*
D12*
%TO.P,C12,2*%
%TO.N,GND*%
X75961975Y-110068515D03*
%TD*%
D24*
%TO.P,U2,1,CLK*%
%TO.N,CCD_CLOCK*%
X116586000Y-79423000D03*
%TO.P,U2,2,Clk_Mode_A*%
%TO.N,GND*%
X114046000Y-79423000D03*
%TO.P,U2,3,Clk_Mode_B*%
X111506000Y-79423000D03*
%TO.P,U2,4,Mode*%
%TO.N,+5V*%
X108966000Y-79423000D03*
%TO.P,U2,5,Bus+*%
%TO.N,ccd_f+*%
X106426000Y-79423000D03*
%TO.P,U2,6,Bus-*%
%TO.N,ccd_f-*%
X103886000Y-79423000D03*
%TO.P,U2,7,Vss*%
%TO.N,GND*%
X101346000Y-79423000D03*
%TO.P,U2,8,Tx*%
%TO.N,txd*%
X101346000Y-86943000D03*
%TO.P,U2,9,Rx*%
%TO.N,rxd*%
X103886000Y-86943000D03*
%TO.P,U2,10,SCK*%
%TO.N,unconnected-(U2-Pad10)*%
X106426000Y-86943000D03*
%TO.P,U2,11,CS*%
%TO.N,+5V*%
X108966000Y-86943000D03*
%TO.P,U2,12,IDLE*%
%TO.N,idle*%
X111506000Y-86943000D03*
%TO.P,U2,13,CONTROL*%
%TO.N,ctrl*%
X114046000Y-86943000D03*
%TO.P,U2,14,Vdd*%
%TO.N,+5V*%
X116586000Y-86943000D03*
%TD*%
D10*
%TO.P,D4,1,K*%
%TO.N,Net-(D4-Pad1)*%
X57858000Y-70018000D03*
D11*
%TO.P,D4,2,A*%
%TO.N,GND*%
X57858000Y-77638000D03*
%TD*%
D12*
%TO.P,C9,1*%
%TO.N,+12V*%
X69850000Y-121412000D03*
%TO.P,C9,2*%
%TO.N,GND*%
X64850000Y-121412000D03*
%TD*%
%TO.P,C8,1*%
%TO.N,+12V*%
X61682000Y-121412000D03*
%TO.P,C8,2*%
%TO.N,GND*%
X56682000Y-121412000D03*
%TD*%
D25*
%TO.P,D3,1,A1*%
%TO.N,+12V*%
X80518000Y-121412000D03*
D26*
%TO.P,D3,2,A2*%
%TO.N,GND*%
X72898000Y-121412000D03*
%TD*%
D10*
%TO.P,D2,1,K*%
%TO.N,ccd_f-*%
X69651975Y-104988515D03*
D11*
%TO.P,D2,2,A*%
%TO.N,GND*%
X72191975Y-104988515D03*
%TD*%
D22*
%TO.P,R8,1*%
%TO.N,12V_MEASURE*%
X79288000Y-68834000D03*
D23*
%TO.P,R8,2*%
%TO.N,GND*%
X79288000Y-73914000D03*
%TD*%
D27*
%TO.P,D5,1,K*%
%TO.N,GND*%
X83058000Y-111730000D03*
%TO.P,D5,2,A*%
%TO.N,Net-(D5-Pad2)*%
X83058000Y-109855000D03*
%TD*%
D12*
%TO.P,R6,1*%
%TO.N,ccd_f+*%
X65050975Y-100416515D03*
D13*
%TO.P,R6,2*%
%TO.N,ccd_f-*%
X70130975Y-100416515D03*
%TD*%
D12*
%TO.P,R2,1*%
%TO.N,ccd+*%
X65841975Y-117688515D03*
D13*
%TO.P,R2,2*%
%TO.N,ccd_f+*%
X65841975Y-110068515D03*
%TD*%
D12*
%TO.P,C2,1*%
%TO.N,GND*%
X114916059Y-113488258D03*
%TO.P,C2,2*%
%TO.N,/split*%
X114916059Y-118488258D03*
%TD*%
D28*
%TO.P,U4,1,GND*%
%TO.N,GND*%
X121539000Y-91057000D03*
%TO.P,U4,2,0_RX1_CRX2_CS1*%
%TO.N,rxd*%
X118999000Y-91057000D03*
%TO.P,U4,3,1_TX1_CTX2_MISO1*%
%TO.N,txd*%
X116459000Y-91057000D03*
%TO.P,U4,4,2_OUT2*%
%TO.N,ctrl*%
X113919000Y-91057000D03*
%TO.P,U4,5,3_LRCLK2*%
%TO.N,idle*%
X111379000Y-91057000D03*
%TO.P,U4,6,4_BCLK2*%
%TO.N,CCD_CLOCK*%
X108839000Y-91057000D03*
%TO.P,U4,7,5_IN2*%
%TO.N,unconnected-(U4-Pad7)*%
X106299000Y-91057000D03*
%TO.P,U4,8,6_OUT1D*%
%TO.N,unconnected-(U4-Pad8)*%
X103759000Y-91057000D03*
%TO.P,U4,9,7_RX2_OUT1A*%
%TO.N,unconnected-(U4-Pad9)*%
X101219000Y-91057000D03*
%TO.P,U4,10,8_TX2_IN1*%
%TO.N,unconnected-(U4-Pad10)*%
X98679000Y-91057000D03*
%TO.P,U4,11,9_OUT1C*%
%TO.N,Net-(D8-Pad2)*%
X96139000Y-91057000D03*
%TO.P,U4,12,10_CS_MQSR*%
%TO.N,Net-(D7-Pad2)*%
X93599000Y-91057000D03*
%TO.P,U4,13,11_MOSI_CTX1*%
%TO.N,Net-(D6-Pad2)*%
X91059000Y-91057000D03*
%TO.P,U4,14,12_MISO_MQSL*%
%TO.N,Net-(D5-Pad2)*%
X88519000Y-91057000D03*
%TO.P,U4,15,VBAT*%
%TO.N,unconnected-(U4-Pad15)*%
X88519000Y-93597000D03*
%TO.P,U4,16,3V3*%
%TO.N,unconnected-(U4-Pad16)*%
X88519000Y-96137000D03*
%TO.P,U4,17,GND*%
%TO.N,GND*%
X88519000Y-98677000D03*
%TO.P,U4,18,PROGRAM*%
%TO.N,unconnected-(U4-Pad18)*%
X88519000Y-101217000D03*
%TO.P,U4,19,ON_OFF*%
%TO.N,unconnected-(U4-Pad19)*%
X88519000Y-103757000D03*
%TO.P,U4,20,13_SCK_CRX1_LED*%
%TO.N,unconnected-(U4-Pad20)*%
X88519000Y-106297000D03*
%TO.P,U4,21,14_A0_TX3_SPDIF_OUT*%
%TO.N,12V_MEASURE*%
X91059000Y-106297000D03*
%TO.P,U4,22,15_A1_RX3_SPDIF_IN*%
%TO.N,IO{slash}3*%
X93599000Y-106297000D03*
%TO.P,U4,23,16_A2_RX4_SCL1*%
%TO.N,IO{slash}2*%
X96139000Y-106297000D03*
%TO.P,U4,24,17_A3_TX4_SDA1*%
%TO.N,IO{slash}1*%
X98679000Y-106297000D03*
%TO.P,U4,25,18_A4_SDA0*%
%TO.N,unconnected-(U4-Pad25)*%
X101219000Y-106297000D03*
%TO.P,U4,26,19_A5_SCL0*%
%TO.N,unconnected-(U4-Pad26)*%
X103759000Y-106297000D03*
%TO.P,U4,27,20_A6_TX5_LRCLK1*%
%TO.N,unconnected-(U4-Pad27)*%
X106299000Y-106297000D03*
%TO.P,U4,28,21_A7_RX5_BCLK1*%
%TO.N,unconnected-(U4-Pad28)*%
X108839000Y-106297000D03*
%TO.P,U4,29,22_A8_CTX1*%
%TO.N,can_tx*%
X111379000Y-106297000D03*
%TO.P,U4,30,23_A9_CRX1_MCLK1*%
%TO.N,can_rx*%
X113919000Y-106297000D03*
%TO.P,U4,31,3V3*%
%TO.N,unconnected-(U4-Pad31)*%
X116459000Y-106297000D03*
%TO.P,U4,32,GND*%
%TO.N,GND*%
X118999000Y-106297000D03*
%TO.P,U4,33,VIN*%
%TO.N,+5V*%
X121539000Y-106297000D03*
%TD*%
D29*
%TO.P,H2,1,1*%
%TO.N,GND*%
X56388000Y-130302000D03*
%TD*%
D12*
%TO.P,C4,1*%
%TO.N,+5V*%
X119714000Y-86868000D03*
%TO.P,C4,2*%
%TO.N,GND*%
X124714000Y-86868000D03*
%TD*%
D14*
%TO.P,C6,1*%
%TO.N,ccd_f+*%
X61015975Y-97114515D03*
D12*
%TO.P,C6,2*%
%TO.N,GND*%
X58515975Y-97114515D03*
%TD*%
%TO.P,C1,1*%
%TO.N,GND*%
X80518000Y-85344000D03*
%TO.P,C1,2*%
%TO.N,+5V*%
X75518000Y-85344000D03*
%TD*%
%TO.P,R4,1*%
%TO.N,/split*%
X96120059Y-117806258D03*
D13*
%TO.P,R4,2*%
%TO.N,can-*%
X108820059Y-117806258D03*
%TD*%
D27*
%TO.P,D6,1,K*%
%TO.N,GND*%
X86106000Y-111730000D03*
%TO.P,D6,2,A*%
%TO.N,Net-(D6-Pad2)*%
X86106000Y-109855000D03*
%TD*%
D14*
%TO.P,C7,1*%
%TO.N,ccd_f-*%
X74985975Y-96352515D03*
D12*
%TO.P,C7,2*%
%TO.N,GND*%
X74985975Y-93852515D03*
%TD*%
D29*
%TO.P,H1,1,1*%
%TO.N,GND*%
X126365000Y-130302000D03*
%TD*%
D14*
%TO.P,U3,1,NC*%
%TO.N,GND*%
X67812000Y-77772000D03*
D13*
%TO.P,U3,2,NC*%
X70352000Y-77772000D03*
%TO.P,U3,3,NC*%
X72892000Y-77772000D03*
%TO.P,U3,4,FB*%
%TO.N,+5V*%
X75432000Y-77772000D03*
%TO.P,U3,5,~{ON}/OFF*%
%TO.N,GND*%
X75432000Y-70152000D03*
%TO.P,U3,6,GND*%
X72892000Y-70152000D03*
%TO.P,U3,7,VIN*%
%TO.N,+12V*%
X70352000Y-70152000D03*
%TO.P,U3,8,OUT*%
%TO.N,Net-(D4-Pad1)*%
X67812000Y-70152000D03*
%TD*%
D12*
%TO.P,R1,1*%
%TO.N,can+*%
X108820059Y-113488258D03*
D13*
%TO.P,R1,2*%
%TO.N,/split*%
X96120059Y-113488258D03*
%TD*%
D30*
%TO.N,GND*%
X84582000Y-112649000D03*
%TO.N,/split*%
X101600000Y-116586000D03*
X105918000Y-120904000D03*
%TO.N,+5V*%
X80264000Y-88900000D03*
X80264000Y-96266000D03*
%TO.N,12V_MEASURE*%
X89154000Y-82042000D03*
X92202000Y-86614000D03*
%TO.N,txd*%
X115062000Y-92710000D03*
%TO.N,idle*%
X109220000Y-93288600D03*
%TD*%
D31*
%TO.N,Net-(D8-Pad2)*%
X86106000Y-115745500D02*
X86106763Y-115745500D01*
X86106763Y-115745500D02*
X89976489Y-111875774D01*
X89976489Y-111875774D02*
X89976489Y-97219511D01*
X89976489Y-97219511D02*
X96139000Y-91057000D01*
%TO.N,Net-(D7-Pad2)*%
X83058000Y-115745500D02*
X84169780Y-114633720D01*
X84169780Y-114633720D02*
X86777421Y-114633720D01*
X86777421Y-114633720D02*
X87503000Y-113908141D01*
X87503000Y-113908141D02*
X87503000Y-95162297D01*
X89493703Y-95162297D02*
X93599000Y-91057000D01*
X87503000Y-95162297D02*
X89493703Y-95162297D01*
%TO.N,Net-(D6-Pad2)*%
X86106000Y-109855000D02*
X86106000Y-94683875D01*
X90121289Y-91994711D02*
X91059000Y-91057000D01*
X86106000Y-94683875D02*
X88795164Y-91994711D01*
X88795164Y-91994711D02*
X90121289Y-91994711D01*
%TO.N,Net-(D5-Pad2)*%
X83058000Y-109855000D02*
X83058000Y-96518000D01*
X83058000Y-96518000D02*
X88519000Y-91057000D01*
D32*
%TO.N,GND*%
X86106000Y-113870500D02*
X85803500Y-113870500D01*
X85803500Y-113870500D02*
X84582000Y-112649000D01*
X83058000Y-113870500D02*
X83360500Y-113870500D01*
X83360500Y-113870500D02*
X84582000Y-112649000D01*
X85549500Y-111681500D02*
X84582000Y-112649000D01*
X86098000Y-111681500D02*
X85549500Y-111681500D01*
X84582000Y-112649000D02*
X84017500Y-112649000D01*
X84017500Y-112649000D02*
X83050000Y-111681500D01*
D31*
%TO.N,ccd_f-*%
X81850490Y-89767369D02*
X85205533Y-89767369D01*
X70998485Y-92080515D02*
G75*
G03*
X70698515Y-91780515I-299985J15D01*
G01*
X73098515Y-91780515D02*
G75*
G03*
X72798515Y-92080515I-15J-299985D01*
G01*
X75198515Y-92334174D02*
X75198515Y-92080515D01*
X72198485Y-92080515D02*
G75*
G03*
X71898515Y-91780515I-299985J15D01*
G01*
X75498515Y-91780515D02*
X79837344Y-91780515D01*
X72198515Y-92080515D02*
X72198515Y-92384174D01*
X71598515Y-92384174D02*
X71598515Y-92080515D01*
X70998515Y-92080515D02*
X70998515Y-92384174D01*
X69699595Y-91780515D02*
X70698515Y-91780515D01*
X73998474Y-92384174D02*
G75*
G02*
X73698515Y-92684174I-299974J-26D01*
G01*
X75498515Y-91780515D02*
G75*
G03*
X75198515Y-92080515I-15J-299985D01*
G01*
X74598515Y-92080515D02*
X74598515Y-92334174D01*
X71298515Y-92684185D02*
G75*
G02*
X70998515Y-92384174I-15J299985D01*
G01*
X73998515Y-92384174D02*
X73998515Y-92080515D01*
X73398485Y-92080515D02*
G75*
G03*
X73098515Y-91780515I-299985J15D01*
G01*
X74898515Y-92634185D02*
G75*
G02*
X74598515Y-92334174I-15J299985D01*
G01*
X72498515Y-92684185D02*
G75*
G02*
X72198515Y-92384174I-15J299985D01*
G01*
X71898515Y-91780515D02*
G75*
G03*
X71598515Y-92080515I-15J-299985D01*
G01*
X79837344Y-91780515D02*
X81850490Y-89767369D01*
X72798474Y-92384174D02*
G75*
G02*
X72498515Y-92684174I-299974J-26D01*
G01*
X85205533Y-89767369D02*
X95549902Y-79423000D01*
X74298515Y-91780515D02*
G75*
G03*
X73998515Y-92080515I-15J-299985D01*
G01*
X74598485Y-92080515D02*
G75*
G03*
X74298515Y-91780515I-299985J15D01*
G01*
X73698515Y-92684185D02*
G75*
G02*
X73398515Y-92384174I-15J299985D01*
G01*
X72798515Y-92384174D02*
X72798515Y-92080515D01*
X75198474Y-92334174D02*
G75*
G02*
X74898515Y-92634174I-299974J-26D01*
G01*
X73398515Y-92080515D02*
X73398515Y-92384174D01*
X71598474Y-92384174D02*
G75*
G02*
X71298515Y-92684174I-299974J-26D01*
G01*
X95549902Y-79423000D02*
X99707545Y-79423000D01*
X99707545Y-79423000D02*
X100983265Y-80698720D01*
X100983265Y-80698720D02*
X101708735Y-80698720D01*
X101708735Y-80698720D02*
X102221720Y-80185735D01*
X102221720Y-80185735D02*
X102221720Y-79423000D01*
X102221720Y-79423000D02*
X103886000Y-79423000D01*
%TO.N,ccd_f+*%
X85076120Y-89454978D02*
X95420498Y-79110600D01*
X100983265Y-78147280D02*
X104192166Y-78147280D01*
X106113600Y-79110600D02*
X106426000Y-79423000D01*
X105155486Y-79110600D02*
X106113600Y-79110600D01*
X104192166Y-78147280D02*
X105155486Y-79110600D01*
X100019945Y-79110600D02*
X100983265Y-78147280D01*
X95420498Y-79110600D02*
X100019945Y-79110600D01*
X67199595Y-91780515D02*
X67511995Y-91468115D01*
X67511995Y-91468115D02*
X68547277Y-91468115D01*
X68547277Y-91468115D02*
X69270588Y-90744804D01*
X70851913Y-91468115D02*
X79707956Y-91468115D01*
X69270588Y-90744804D02*
X70128602Y-90744804D01*
X70128602Y-90744804D02*
X70851913Y-91468115D01*
X79707956Y-91468115D02*
X81721093Y-89454978D01*
X81721093Y-89454978D02*
X85076120Y-89454978D01*
%TO.N,can_rx*%
X118472059Y-110694258D02*
X114074801Y-106297000D01*
X114074801Y-106297000D02*
X113919000Y-106297000D01*
%TO.N,can_tx*%
X126092059Y-110694258D02*
X125162348Y-109764547D01*
X125162348Y-109764547D02*
X123166959Y-109764547D01*
X123166959Y-109764547D02*
X122622348Y-110309158D01*
X122622348Y-110309158D02*
X122622348Y-110546990D01*
X122622348Y-110546990D02*
X121440569Y-111728769D01*
X121440569Y-111728769D02*
X116810769Y-111728769D01*
X116810769Y-111728769D02*
X111379000Y-106297000D01*
D32*
%TO.N,+5V*%
X121012059Y-110694258D02*
X121012059Y-106823941D01*
X121012059Y-106823941D02*
X121539000Y-106297000D01*
D31*
%TO.N,/split*%
X118472059Y-118564258D02*
X116132317Y-120904000D01*
X116132317Y-120904000D02*
X105918000Y-120904000D01*
X101600000Y-116586000D02*
X100379742Y-117806258D01*
X100379742Y-117806258D02*
X96120059Y-117806258D01*
%TO.N,can-*%
X100713363Y-122746286D02*
X100570728Y-122603651D01*
X100713363Y-122746285D02*
X100713363Y-122746286D01*
X99722201Y-124206201D02*
X99722201Y-123027917D01*
X101561892Y-121897756D02*
X101561892Y-121897757D01*
X101661000Y-126145000D02*
X99722201Y-124206201D01*
X100146465Y-123027917D02*
X100289099Y-123170551D01*
X101419267Y-121330868D02*
G75*
G03*
X101419257Y-121755122I212133J-212132D01*
G01*
X101561881Y-121897767D02*
G75*
G02*
X101561892Y-122322022I-212081J-212133D01*
G01*
X101561891Y-122322021D02*
G75*
G02*
X101137629Y-122322021I-212131J212131D01*
G01*
X100570709Y-122179368D02*
G75*
G03*
X100570728Y-122603651I212191J-212132D01*
G01*
X100994993Y-122179389D02*
G75*
G03*
X100570731Y-122179389I-212131J-212131D01*
G01*
X100570729Y-122179388D02*
X100570730Y-122179388D01*
X100713381Y-122746267D02*
G75*
G02*
X100713363Y-123170551I-212181J-212133D01*
G01*
X100713362Y-123170550D02*
G75*
G02*
X100289100Y-123170550I-212131J212131D01*
G01*
X101419257Y-121330858D02*
X101419258Y-121330859D01*
X100146464Y-123027918D02*
G75*
G03*
X99722202Y-123027918I-212131J-212131D01*
G01*
X104943860Y-117806258D02*
X108820059Y-117806258D01*
X100570728Y-122179387D02*
X100570729Y-122179388D01*
X100994994Y-122179388D02*
X101137628Y-122322022D01*
X101561892Y-121897757D02*
X101419257Y-121755122D01*
X101419258Y-121330859D02*
X104943860Y-117806258D01*
%TO.N,can+*%
X99409799Y-122898518D02*
X108820059Y-113488258D01*
X97471000Y-126145000D02*
X99409799Y-124206201D01*
X99409799Y-124206201D02*
X99409799Y-122898518D01*
D32*
%TO.N,+5V*%
X80264000Y-88900000D02*
X80264000Y-87122000D01*
X77808975Y-100416515D02*
X77808975Y-98721025D01*
X77808975Y-98721025D02*
X80264000Y-96266000D01*
X69414000Y-87122000D02*
X80264000Y-87122000D01*
X80264000Y-87122000D02*
X86106000Y-87122000D01*
D31*
%TO.N,ccd-*%
X80634515Y-117688515D02*
X85864204Y-122918203D01*
X86750550Y-123304654D02*
X86750550Y-123304655D01*
X86750550Y-123304655D02*
X86712734Y-123342470D01*
X85864238Y-122918169D02*
G75*
G02*
X85864203Y-123342466I-212138J-212131D01*
G01*
X87137000Y-123766735D02*
X87174815Y-123728919D01*
X80634515Y-117688515D02*
X69143975Y-117688515D01*
X87136999Y-123766735D02*
X87137000Y-123766735D01*
X89091000Y-126145000D02*
X87137000Y-124191000D01*
X85826390Y-123804547D02*
G75*
G03*
X86250652Y-123804547I212131J212131D01*
G01*
X87137032Y-123766769D02*
G75*
G03*
X87137000Y-124191000I212068J-212131D01*
G01*
X86250653Y-123804548D02*
X86712734Y-123342470D01*
X85826373Y-123380268D02*
G75*
G03*
X85826389Y-123804548I212127J-212132D01*
G01*
X87174801Y-123304669D02*
G75*
G02*
X87174814Y-123728918I-212101J-212131D01*
G01*
X85826388Y-123380283D02*
X85826390Y-123380284D01*
X86750568Y-123304672D02*
G75*
G02*
X87174815Y-123304655I212132J-212128D01*
G01*
X85826390Y-123380284D02*
X85864204Y-123342467D01*
%TO.N,ccd_f+*%
X61865595Y-97114515D02*
X67199595Y-91780515D01*
%TO.N,ccd_f-*%
X69699595Y-91780515D02*
X74271595Y-96352515D01*
X74271595Y-96352515D02*
X74985975Y-96352515D01*
%TO.N,ccd_f+*%
X61015975Y-97114515D02*
X61865595Y-97114515D01*
X65079975Y-97114515D02*
X61015975Y-97114515D01*
X65050975Y-100416515D02*
X65050975Y-97143515D01*
X65050975Y-97143515D02*
X65079975Y-97114515D01*
%TO.N,ccd_f-*%
X72728975Y-100416515D02*
X72728975Y-98609515D01*
X72728975Y-98609515D02*
X74985975Y-96352515D01*
X70130975Y-100416515D02*
X72728975Y-100416515D01*
%TO.N,ccd_f+*%
X65587975Y-104988515D02*
X65587975Y-100953515D01*
X65587975Y-100953515D02*
X65050975Y-100416515D01*
%TO.N,ccd_f-*%
X69651975Y-104988515D02*
X69651975Y-100895515D01*
X69651975Y-100895515D02*
X70130975Y-100416515D01*
%TO.N,ccd_f+*%
X61991975Y-110068515D02*
X61991975Y-108584515D01*
X61991975Y-108584515D02*
X65587975Y-104988515D01*
%TO.N,ccd_f-*%
X73461975Y-110068515D02*
X73461975Y-108798515D01*
X73461975Y-108798515D02*
X69651975Y-104988515D01*
X69143975Y-110068515D02*
X73461975Y-110068515D01*
%TO.N,ccd_f+*%
X65841975Y-110068515D02*
X61991975Y-110068515D01*
%TO.N,ccd+*%
X65841975Y-117688515D02*
X66154375Y-118000915D01*
X67991657Y-118000915D02*
X68714968Y-118724226D01*
X66154375Y-118000915D02*
X67991657Y-118000915D01*
X68714968Y-118724226D02*
X69572982Y-118724226D01*
X69572982Y-118724226D02*
X70296293Y-118000915D01*
X70296293Y-118000915D02*
X80505114Y-118000915D01*
X80505114Y-118000915D02*
X84901000Y-122396801D01*
X84901000Y-122396801D02*
X84901000Y-126145000D01*
%TO.N,can-*%
X112530858Y-115803459D02*
X120349459Y-115803459D01*
X108820059Y-117806258D02*
X110822858Y-115803459D01*
X121012059Y-116466059D02*
X121012059Y-118564258D01*
X120349459Y-115803459D02*
X121012059Y-116466059D01*
X110822858Y-115803459D02*
X111330858Y-115803459D01*
X112230858Y-116481133D02*
X112230858Y-116103459D01*
X111630858Y-116103459D02*
X111630858Y-116481133D01*
X111630941Y-116103459D02*
G75*
G03*
X111330858Y-115803459I-300041J-41D01*
G01*
X112530858Y-115803458D02*
G75*
G03*
X112230858Y-116103459I42J-300042D01*
G01*
X112230933Y-116481133D02*
G75*
G02*
X111930858Y-116781133I-300033J33D01*
G01*
X111930858Y-116781142D02*
G75*
G02*
X111630858Y-116481133I42J300042D01*
G01*
%TO.N,can+*%
X120478858Y-115491057D02*
X123552059Y-118564258D01*
X108820059Y-113488258D02*
X110822858Y-115491057D01*
X110822858Y-115491057D02*
X120478858Y-115491057D01*
D32*
%TO.N,12V_MEASURE*%
X93469865Y-86614000D02*
X97393311Y-90537446D01*
X89154000Y-75144000D02*
X82844000Y-68834000D01*
X91059000Y-106297000D02*
X92313311Y-105042689D01*
X92202000Y-86614000D02*
X93469865Y-86614000D01*
X89154000Y-82042000D02*
X89154000Y-75144000D01*
X97393311Y-104282689D02*
X96633311Y-105042689D01*
X79288000Y-68834000D02*
X82844000Y-68834000D01*
X96633311Y-105042689D02*
X92313311Y-105042689D01*
X97393311Y-90537446D02*
X97393311Y-104282689D01*
D31*
%TO.N,txd*%
X103947282Y-92710000D02*
X115062000Y-92710000D01*
X102254711Y-91017429D02*
X103947282Y-92710000D01*
X101346000Y-86943000D02*
X102254711Y-87851711D01*
X102254711Y-87851711D02*
X102254711Y-91017429D01*
%TO.N,rxd*%
X117963289Y-92092711D02*
X118999000Y-91057000D01*
X103886000Y-86943000D02*
X104794711Y-87851711D01*
X105554711Y-92092711D02*
X117963289Y-92092711D01*
X104794711Y-91332711D02*
X105554711Y-92092711D01*
X104794711Y-87851711D02*
X104794711Y-91332711D01*
%TO.N,CCD_CLOCK*%
X110236000Y-89660000D02*
X110236000Y-85773000D01*
X110236000Y-85773000D02*
X116586000Y-79423000D01*
X108839000Y-91057000D02*
X110236000Y-89660000D01*
%TO.N,idle*%
X100183289Y-91486007D02*
X100183289Y-90785289D01*
X100183289Y-90785289D02*
X97028000Y-87630000D01*
X109220000Y-93288600D02*
X109149400Y-93218000D01*
X101915282Y-93218000D02*
X100183289Y-91486007D01*
X109149400Y-93218000D02*
X101915282Y-93218000D01*
D32*
%TO.N,+5V*%
X62938000Y-85258000D02*
X67550000Y-85258000D01*
X67550000Y-85258000D02*
X69414000Y-87122000D01*
X116586000Y-86943000D02*
X117856000Y-85673000D01*
X72237370Y-81702000D02*
X75312000Y-81702000D01*
X68681370Y-85258000D02*
X72237370Y-81702000D01*
X107990000Y-74930000D02*
X109006000Y-75946000D01*
X86106000Y-87122000D02*
X97028000Y-76200000D01*
X67550000Y-85258000D02*
X68681370Y-85258000D01*
X125222000Y-92376000D02*
X119714000Y-86868000D01*
D33*
X75312000Y-81772000D02*
X75312000Y-77892000D01*
D32*
X109006000Y-75946000D02*
X109006000Y-79383000D01*
X117856000Y-78801967D02*
X116778033Y-77724000D01*
X67550000Y-85258000D02*
X61676000Y-85258000D01*
X75518000Y-85344000D02*
X75518000Y-81908000D01*
X116778033Y-77724000D02*
X110665000Y-77724000D01*
X108966000Y-86943000D02*
X108966000Y-79423000D01*
X97028000Y-74930000D02*
X107990000Y-74930000D01*
X125222000Y-102614000D02*
X125222000Y-92376000D01*
X121539000Y-106297000D02*
X125222000Y-102614000D01*
X117856000Y-85673000D02*
X117856000Y-78801967D01*
D33*
X75312000Y-77892000D02*
X75432000Y-77772000D01*
D32*
X75518000Y-81908000D02*
X75312000Y-81702000D01*
X110665000Y-77724000D02*
X108966000Y-79423000D01*
X97028000Y-76200000D02*
X97028000Y-74930000D01*
X116661000Y-86868000D02*
X116586000Y-86943000D01*
X109006000Y-79383000D02*
X108966000Y-79423000D01*
X119714000Y-86868000D02*
X116661000Y-86868000D01*
%TO.N,Net-(D4-Pad1)*%
X57858000Y-70018000D02*
X62938000Y-70018000D01*
X62938000Y-70018000D02*
X67678000Y-70018000D01*
X67678000Y-70018000D02*
X67812000Y-70152000D01*
D31*
%TO.N,IO{slash}1*%
X91626451Y-126650451D02*
X91626451Y-113349549D01*
X97471000Y-132495000D02*
X91626451Y-126650451D01*
X91626451Y-113349549D02*
X98679000Y-106297000D01*
%TO.N,IO{slash}2*%
X96139000Y-106297000D02*
X91314531Y-111121469D01*
X91314531Y-130528531D02*
X93281000Y-132495000D01*
X91314531Y-111121469D02*
X91314531Y-130528531D01*
%TO.N,IO{slash}3*%
X91002611Y-108893389D02*
X93599000Y-106297000D01*
X91002611Y-130583389D02*
X91002611Y-108893389D01*
X89091000Y-132495000D02*
X91002611Y-130583389D01*
D32*
%TO.N,+12V*%
X76708000Y-125222000D02*
X80518000Y-121412000D01*
X68595689Y-120157689D02*
X62936311Y-120157689D01*
X79163689Y-120057689D02*
X71204311Y-120057689D01*
X62936311Y-120157689D02*
X61682000Y-121412000D01*
X54864000Y-117602000D02*
X54864000Y-85640000D01*
X69850000Y-121412000D02*
X68595689Y-120157689D01*
X71606311Y-71406311D02*
X80336311Y-71406311D01*
X54864000Y-85640000D02*
X70352000Y-70152000D01*
X61682000Y-121412000D02*
X58674000Y-121412000D01*
X71204311Y-120057689D02*
X69850000Y-121412000D01*
X80711000Y-132495000D02*
X76708000Y-128492000D01*
X58674000Y-121412000D02*
X54864000Y-117602000D01*
X80336311Y-71406311D02*
X82844000Y-73914000D01*
X76708000Y-128492000D02*
X76708000Y-125222000D01*
X70352000Y-70152000D02*
X71606311Y-71406311D01*
X80518000Y-121412000D02*
X79163689Y-120057689D01*
D31*
%TO.N,/split*%
X96120059Y-113488258D02*
X96120059Y-117806258D01*
X118396059Y-118488258D02*
X118472059Y-118564258D01*
X114916059Y-118488258D02*
X118396059Y-118488258D01*
%TD*%
M02*
