M48
; DRILL file {KiCad 6.0.4-6f826c9f35~116~ubuntu20.04.1} date Sat 07 May 2022 09:53:58 PM CDT
; FORMAT={-:-/ absolute / inch / decimal}
; #@! TF.CreationDate,2022-05-07T21:53:58-05:00
; #@! TF.GenerationSoftware,Kicad,Pcbnew,6.0.4-6f826c9f35~116~ubuntu20.04.1
; #@! TF.FileFunction,Plated,1,2,PTH
FMAT,2
INCH
; #@! TA.AperFunction,Plated,PTH,ViaDrill
T1C0.0130
; #@! TA.AperFunction,Plated,PTH,ComponentDrill
T2C0.0276
; #@! TA.AperFunction,Plated,PTH,ComponentDrill
T3C0.0315
; #@! TA.AperFunction,Plated,PTH,ComponentDrill
T4C0.0354
; #@! TA.AperFunction,Plated,PTH,ComponentDrill
T5C0.0433
; #@! TA.AperFunction,Plated,PTH,ComponentDrill
T6C0.0472
; #@! TA.AperFunction,Plated,PTH,ComponentDrill
T7C0.0488
; #@! TA.AperFunction,Plated,PTH,ComponentDrill
T8C0.1260
%
G90
G05
T1
X3.16Y-3.5
X3.16Y-3.79
X3.33Y-4.435
X3.51Y-3.23
X3.63Y-3.41
X4.0Y-4.59
X4.17Y-4.76
X4.3Y-3.6728
X4.53Y-3.65
T2
X3.1216Y-2.71
X3.1216Y-2.91
X3.2616Y-2.71
X3.2616Y-2.91
T3
X2.2316Y-4.78
X2.3038Y-3.8234
X2.3422Y-4.3334
X2.4022Y-3.8234
X2.4284Y-4.78
X2.4406Y-4.3334
X2.5531Y-4.78
X2.5611Y-3.9534
X2.5622Y-3.8234
X2.5922Y-4.3334
X2.5922Y-4.6334
X2.6457Y-3.6134
X2.6594Y-3.3566
X2.6698Y-2.7619
X2.6698Y-3.0619
X2.7222Y-4.3334
X2.7222Y-4.6334
X2.7441Y-3.6134
X2.75Y-4.78
X2.7611Y-3.9534
X2.7622Y-3.8234
X2.7682Y-3.2166
X2.7698Y-2.7619
X2.7698Y-3.0619
X2.8563Y-3.3566
X2.8633Y-3.9534
X2.8698Y-2.7619
X2.8698Y-3.0619
X2.8922Y-4.3334
X2.9522Y-3.695
X2.9522Y-3.7934
X2.965Y-3.2166
X2.9698Y-2.7619
X2.9698Y-3.0619
X2.9731Y-3.36
X2.9906Y-4.3334
X3.0633Y-3.9534
X3.17Y-3.36
X3.7843Y-4.468
X3.7843Y-4.638
X3.82Y-2.95
X3.82Y-3.45
X3.99Y-3.1269
X3.99Y-3.423
X4.09Y-3.1269
X4.09Y-3.423
X4.19Y-3.1269
X4.19Y-3.423
X4.2843Y-4.468
X4.2843Y-4.638
X4.29Y-3.1269
X4.29Y-3.423
X4.2916Y-2.99
X4.39Y-3.1269
X4.39Y-3.423
X4.4884Y-2.99
X4.49Y-3.1269
X4.49Y-3.423
X4.5243Y-4.468
X4.5243Y-4.6649
X4.59Y-3.1269
X4.59Y-3.423
X4.6643Y-4.358
X4.6643Y-4.6679
X4.7131Y-3.42
X4.7643Y-4.358
X4.7643Y-4.6679
X4.8643Y-4.358
X4.8643Y-4.6679
X4.91Y-3.42
X4.9643Y-4.358
X4.9643Y-4.6679
T4
X2.87Y-4.78
X3.17Y-4.78
T5
X2.2779Y-2.7566
X2.2779Y-3.0566
X2.4822Y-4.1334
X2.5822Y-4.1334
X2.7422Y-4.1334
X2.8422Y-4.1334
X3.485Y-3.5849
X3.485Y-3.6849
X3.485Y-3.7849
X3.485Y-3.8849
X3.485Y-3.9849
X3.485Y-4.0849
X3.485Y-4.1849
X3.585Y-3.5849
X3.585Y-4.1849
X3.685Y-3.5849
X3.685Y-4.1849
X3.785Y-3.5849
X3.785Y-4.1849
X3.885Y-3.5849
X3.885Y-4.1849
X3.985Y-3.5849
X3.985Y-4.1849
X4.085Y-3.5849
X4.085Y-4.1849
X4.185Y-3.5849
X4.185Y-4.1849
X4.285Y-3.5849
X4.285Y-4.1849
X4.385Y-3.5849
X4.385Y-4.1849
X4.485Y-3.5849
X4.485Y-4.1849
X4.585Y-3.5849
X4.585Y-4.1849
X4.685Y-3.5849
X4.685Y-4.1849
X4.785Y-3.5849
X4.785Y-4.1849
T6
X2.4779Y-2.7566
X2.4779Y-3.3566
T7
X3.1776Y-4.9663
X3.1776Y-5.2163
X3.3426Y-4.9663
X3.3426Y-5.2163
X3.5075Y-4.9663
X3.5075Y-5.2163
X3.6725Y-4.9663
X3.6725Y-5.2163
X3.8374Y-4.9663
X3.8374Y-5.2163
X4.0024Y-4.9663
X4.0024Y-5.2163
T8
X2.22Y-5.13
X4.975Y-5.13
T0
M30
