%TF.GenerationSoftware,KiCad,Pcbnew,6.0.4-6f826c9f35~116~ubuntu20.04.1*%
%TF.CreationDate,2022-05-07T21:53:41-05:00*%
%TF.ProjectId,Circuit,43697263-7569-4742-9e6b-696361645f70,rev?*%
%TF.SameCoordinates,Original*%
%TF.FileFunction,Legend,Top*%
%TF.FilePolarity,Positive*%
%FSLAX46Y46*%
G04 Gerber Fmt 4.6, Leading zero omitted, Abs format (unit mm)*
G04 Created by KiCad (PCBNEW 6.0.4-6f826c9f35~116~ubuntu20.04.1) date 2022-05-07 21:53:41*
%MOMM*%
%LPD*%
G01*
G04 APERTURE LIST*
%ADD10C,0.150000*%
%ADD11C,0.120000*%
%ADD12C,0.127000*%
%ADD13C,0.400000*%
%ADD14C,0.200000*%
G04 APERTURE END LIST*
D10*
X86066333Y-108910380D02*
X85733000Y-108434190D01*
X85494904Y-108910380D02*
X85494904Y-107910380D01*
X85875857Y-107910380D01*
X85971095Y-107958000D01*
X86018714Y-108005619D01*
X86066333Y-108100857D01*
X86066333Y-108243714D01*
X86018714Y-108338952D01*
X85971095Y-108386571D01*
X85875857Y-108434190D01*
X85494904Y-108434190D01*
X86399666Y-107910380D02*
X87066333Y-108910380D01*
X87066333Y-107910380D02*
X86399666Y-108910380D01*
X79748142Y-111228142D02*
X79700523Y-111275761D01*
X79557666Y-111323380D01*
X79462428Y-111323380D01*
X79319571Y-111275761D01*
X79224333Y-111180523D01*
X79176714Y-111085285D01*
X79129095Y-110894809D01*
X79129095Y-110751952D01*
X79176714Y-110561476D01*
X79224333Y-110466238D01*
X79319571Y-110371000D01*
X79462428Y-110323380D01*
X79557666Y-110323380D01*
X79700523Y-110371000D01*
X79748142Y-110418619D01*
X80129095Y-111037666D02*
X80605285Y-111037666D01*
X80033857Y-111323380D02*
X80367190Y-110323380D01*
X80700523Y-111323380D01*
X81033857Y-111323380D02*
X81033857Y-110323380D01*
X81605285Y-111323380D01*
X81605285Y-110323380D01*
X79827523Y-115165142D02*
X79779904Y-115212761D01*
X79637047Y-115260380D01*
X79541809Y-115260380D01*
X79398952Y-115212761D01*
X79303714Y-115117523D01*
X79256095Y-115022285D01*
X79208476Y-114831809D01*
X79208476Y-114688952D01*
X79256095Y-114498476D01*
X79303714Y-114403238D01*
X79398952Y-114308000D01*
X79541809Y-114260380D01*
X79637047Y-114260380D01*
X79779904Y-114308000D01*
X79827523Y-114355619D01*
X80827523Y-115165142D02*
X80779904Y-115212761D01*
X80637047Y-115260380D01*
X80541809Y-115260380D01*
X80398952Y-115212761D01*
X80303714Y-115117523D01*
X80256095Y-115022285D01*
X80208476Y-114831809D01*
X80208476Y-114688952D01*
X80256095Y-114498476D01*
X80303714Y-114403238D01*
X80398952Y-114308000D01*
X80541809Y-114260380D01*
X80637047Y-114260380D01*
X80779904Y-114308000D01*
X80827523Y-114355619D01*
X81256095Y-115260380D02*
X81256095Y-114260380D01*
X81494190Y-114260380D01*
X81637047Y-114308000D01*
X81732285Y-114403238D01*
X81779904Y-114498476D01*
X81827523Y-114688952D01*
X81827523Y-114831809D01*
X81779904Y-115022285D01*
X81732285Y-115117523D01*
X81637047Y-115212761D01*
X81494190Y-115260380D01*
X81256095Y-115260380D01*
X82296095Y-107910380D02*
X82867523Y-107910380D01*
X82581809Y-108910380D02*
X82581809Y-107910380D01*
X83105619Y-107910380D02*
X83772285Y-108910380D01*
X83772285Y-107910380D02*
X83105619Y-108910380D01*
%TO.C,D1*%
X63579879Y-108191530D02*
X63579879Y-107191530D01*
X63817975Y-107191530D01*
X63960832Y-107239150D01*
X64056070Y-107334388D01*
X64103689Y-107429626D01*
X64151308Y-107620102D01*
X64151308Y-107762959D01*
X64103689Y-107953435D01*
X64056070Y-108048673D01*
X63960832Y-108143911D01*
X63817975Y-108191530D01*
X63579879Y-108191530D01*
X65103689Y-108191530D02*
X64532260Y-108191530D01*
X64817975Y-108191530D02*
X64817975Y-107191530D01*
X64722736Y-107334388D01*
X64627498Y-107429626D01*
X64532260Y-107477245D01*
X60709879Y-105155181D02*
X61186070Y-105155181D01*
X60614641Y-105440895D02*
X60947975Y-104440895D01*
X61281308Y-105440895D01*
%TO.C,R7*%
X67453308Y-95196895D02*
X67119975Y-94720705D01*
X66881879Y-95196895D02*
X66881879Y-94196895D01*
X67262832Y-94196895D01*
X67358070Y-94244515D01*
X67405689Y-94292134D01*
X67453308Y-94387372D01*
X67453308Y-94530229D01*
X67405689Y-94625467D01*
X67358070Y-94673086D01*
X67262832Y-94720705D01*
X66881879Y-94720705D01*
X67786641Y-94196895D02*
X68453308Y-94196895D01*
X68024736Y-95196895D01*
%TO.C,C11*%
X69193142Y-87901142D02*
X69145523Y-87948761D01*
X69002666Y-87996380D01*
X68907428Y-87996380D01*
X68764571Y-87948761D01*
X68669333Y-87853523D01*
X68621714Y-87758285D01*
X68574095Y-87567809D01*
X68574095Y-87424952D01*
X68621714Y-87234476D01*
X68669333Y-87139238D01*
X68764571Y-87044000D01*
X68907428Y-86996380D01*
X69002666Y-86996380D01*
X69145523Y-87044000D01*
X69193142Y-87091619D01*
X70145523Y-87996380D02*
X69574095Y-87996380D01*
X69859809Y-87996380D02*
X69859809Y-86996380D01*
X69764571Y-87139238D01*
X69669333Y-87234476D01*
X69574095Y-87282095D01*
X71097904Y-87996380D02*
X70526476Y-87996380D01*
X70812190Y-87996380D02*
X70812190Y-86996380D01*
X70716952Y-87139238D01*
X70621714Y-87234476D01*
X70526476Y-87282095D01*
%TO.C,C13*%
X56695406Y-110777083D02*
X56743025Y-110824702D01*
X56790644Y-110967559D01*
X56790644Y-111062797D01*
X56743025Y-111205654D01*
X56647787Y-111300892D01*
X56552549Y-111348511D01*
X56362073Y-111396130D01*
X56219216Y-111396130D01*
X56028740Y-111348511D01*
X55933502Y-111300892D01*
X55838264Y-111205654D01*
X55790644Y-111062797D01*
X55790644Y-110967559D01*
X55838264Y-110824702D01*
X55885883Y-110777083D01*
X56790644Y-109824702D02*
X56790644Y-110396130D01*
X56790644Y-110110416D02*
X55790644Y-110110416D01*
X55933502Y-110205654D01*
X56028740Y-110300892D01*
X56076359Y-110396130D01*
X55790644Y-109491368D02*
X55790644Y-108872321D01*
X56171597Y-109205654D01*
X56171597Y-109062797D01*
X56219216Y-108967559D01*
X56266835Y-108919940D01*
X56362073Y-108872321D01*
X56600168Y-108872321D01*
X56695406Y-108919940D01*
X56743025Y-108967559D01*
X56790644Y-109062797D01*
X56790644Y-109348511D01*
X56743025Y-109443749D01*
X56695406Y-109491368D01*
%TO.C,D7*%
X85034380Y-115546095D02*
X84034380Y-115546095D01*
X84034380Y-115308000D01*
X84082000Y-115165142D01*
X84177238Y-115069904D01*
X84272476Y-115022285D01*
X84462952Y-114974666D01*
X84605809Y-114974666D01*
X84796285Y-115022285D01*
X84891523Y-115069904D01*
X84986761Y-115165142D01*
X85034380Y-115308000D01*
X85034380Y-115546095D01*
X84034380Y-114641333D02*
X84034380Y-113974666D01*
X85034380Y-114403238D01*
%TO.C,C5*%
X68282928Y-87737657D02*
X68235309Y-87785276D01*
X68092452Y-87832895D01*
X67997214Y-87832895D01*
X67854356Y-87785276D01*
X67759118Y-87690038D01*
X67711499Y-87594800D01*
X67663880Y-87404324D01*
X67663880Y-87261467D01*
X67711499Y-87070991D01*
X67759118Y-86975753D01*
X67854356Y-86880515D01*
X67997214Y-86832895D01*
X68092452Y-86832895D01*
X68235309Y-86880515D01*
X68282928Y-86928134D01*
X69187690Y-86832895D02*
X68711499Y-86832895D01*
X68663880Y-87309086D01*
X68711499Y-87261467D01*
X68806737Y-87213848D01*
X69044833Y-87213848D01*
X69140071Y-87261467D01*
X69187690Y-87309086D01*
X69235309Y-87404324D01*
X69235309Y-87642419D01*
X69187690Y-87737657D01*
X69140071Y-87785276D01*
X69044833Y-87832895D01*
X68806737Y-87832895D01*
X68711499Y-87785276D01*
X68663880Y-87737657D01*
%TO.C,R3*%
X100200380Y-81446666D02*
X99724190Y-81780000D01*
X100200380Y-82018095D02*
X99200380Y-82018095D01*
X99200380Y-81637142D01*
X99248000Y-81541904D01*
X99295619Y-81494285D01*
X99390857Y-81446666D01*
X99533714Y-81446666D01*
X99628952Y-81494285D01*
X99676571Y-81541904D01*
X99724190Y-81637142D01*
X99724190Y-82018095D01*
X99200380Y-81113333D02*
X99200380Y-80494285D01*
X99581333Y-80827619D01*
X99581333Y-80684761D01*
X99628952Y-80589523D01*
X99676571Y-80541904D01*
X99771809Y-80494285D01*
X100009904Y-80494285D01*
X100105142Y-80541904D01*
X100152761Y-80589523D01*
X100200380Y-80684761D01*
X100200380Y-80970476D01*
X100152761Y-81065714D01*
X100105142Y-81113333D01*
%TO.C,R5*%
X75102308Y-103238895D02*
X74768975Y-102762705D01*
X74530879Y-103238895D02*
X74530879Y-102238895D01*
X74911832Y-102238895D01*
X75007070Y-102286515D01*
X75054689Y-102334134D01*
X75102308Y-102429372D01*
X75102308Y-102572229D01*
X75054689Y-102667467D01*
X75007070Y-102715086D01*
X74911832Y-102762705D01*
X74530879Y-102762705D01*
X76007070Y-102238895D02*
X75530879Y-102238895D01*
X75483260Y-102715086D01*
X75530879Y-102667467D01*
X75626117Y-102619848D01*
X75864213Y-102619848D01*
X75959451Y-102667467D01*
X76007070Y-102715086D01*
X76054689Y-102810324D01*
X76054689Y-103048419D01*
X76007070Y-103143657D01*
X75959451Y-103191276D01*
X75864213Y-103238895D01*
X75626117Y-103238895D01*
X75530879Y-103191276D01*
X75483260Y-103143657D01*
%TO.C,J1*%
X74008469Y-118845343D02*
X74008469Y-120275765D01*
X73913108Y-120561849D01*
X73722385Y-120752572D01*
X73436300Y-120847934D01*
X73245577Y-120847934D01*
X76011060Y-120847934D02*
X74866722Y-120847934D01*
X75438891Y-120847934D02*
X75438891Y-118845343D01*
X75248168Y-119131427D01*
X75057445Y-119322150D01*
X74866722Y-119417511D01*
%TO.C,C10*%
X72169142Y-84218142D02*
X72121523Y-84265761D01*
X71978666Y-84313380D01*
X71883428Y-84313380D01*
X71740571Y-84265761D01*
X71645333Y-84170523D01*
X71597714Y-84075285D01*
X71550095Y-83884809D01*
X71550095Y-83741952D01*
X71597714Y-83551476D01*
X71645333Y-83456238D01*
X71740571Y-83361000D01*
X71883428Y-83313380D01*
X71978666Y-83313380D01*
X72121523Y-83361000D01*
X72169142Y-83408619D01*
X73121523Y-84313380D02*
X72550095Y-84313380D01*
X72835809Y-84313380D02*
X72835809Y-83313380D01*
X72740571Y-83456238D01*
X72645333Y-83551476D01*
X72550095Y-83599095D01*
X73740571Y-83313380D02*
X73835809Y-83313380D01*
X73931047Y-83361000D01*
X73978666Y-83408619D01*
X74026285Y-83503857D01*
X74073904Y-83694333D01*
X74073904Y-83932428D01*
X74026285Y-84122904D01*
X73978666Y-84218142D01*
X73931047Y-84265761D01*
X73835809Y-84313380D01*
X73740571Y-84313380D01*
X73645333Y-84265761D01*
X73597714Y-84218142D01*
X73550095Y-84122904D01*
X73502476Y-83932428D01*
X73502476Y-83694333D01*
X73550095Y-83503857D01*
X73597714Y-83408619D01*
X73645333Y-83361000D01*
X73740571Y-83313380D01*
%TO.C,U1*%
X120546267Y-119786033D02*
X120546267Y-122017061D01*
X120677504Y-122279535D01*
X120808741Y-122410772D01*
X121071215Y-122542009D01*
X121596163Y-122542009D01*
X121858637Y-122410772D01*
X121989874Y-122279535D01*
X122121111Y-122017061D01*
X122121111Y-119786033D01*
X124877087Y-122542009D02*
X123302243Y-122542009D01*
X124089665Y-122542009D02*
X124089665Y-119786033D01*
X123827191Y-120179743D01*
X123564717Y-120442217D01*
X123302243Y-120573454D01*
%TO.C,D8*%
X88208380Y-115546095D02*
X87208380Y-115546095D01*
X87208380Y-115308000D01*
X87256000Y-115165142D01*
X87351238Y-115069904D01*
X87446476Y-115022285D01*
X87636952Y-114974666D01*
X87779809Y-114974666D01*
X87970285Y-115022285D01*
X88065523Y-115069904D01*
X88160761Y-115165142D01*
X88208380Y-115308000D01*
X88208380Y-115546095D01*
X87636952Y-114403238D02*
X87589333Y-114498476D01*
X87541714Y-114546095D01*
X87446476Y-114593714D01*
X87398857Y-114593714D01*
X87303619Y-114546095D01*
X87256000Y-114498476D01*
X87208380Y-114403238D01*
X87208380Y-114212761D01*
X87256000Y-114117523D01*
X87303619Y-114069904D01*
X87398857Y-114022285D01*
X87446476Y-114022285D01*
X87541714Y-114069904D01*
X87589333Y-114117523D01*
X87636952Y-114212761D01*
X87636952Y-114403238D01*
X87684571Y-114498476D01*
X87732190Y-114546095D01*
X87827428Y-114593714D01*
X88017904Y-114593714D01*
X88113142Y-114546095D01*
X88160761Y-114498476D01*
X88208380Y-114403238D01*
X88208380Y-114212761D01*
X88160761Y-114117523D01*
X88113142Y-114069904D01*
X88017904Y-114022285D01*
X87827428Y-114022285D01*
X87732190Y-114069904D01*
X87684571Y-114117523D01*
X87636952Y-114212761D01*
%TO.C,L1*%
X59634380Y-82970666D02*
X59634380Y-83446857D01*
X58634380Y-83446857D01*
X59634380Y-82113523D02*
X59634380Y-82684952D01*
X59634380Y-82399238D02*
X58634380Y-82399238D01*
X58777238Y-82494476D01*
X58872476Y-82589714D01*
X58920095Y-82684952D01*
%TO.C,R10*%
X68435406Y-120238606D02*
X68102073Y-119762416D01*
X67863978Y-120238606D02*
X67863978Y-119238606D01*
X68244930Y-119238606D01*
X68340168Y-119286226D01*
X68387787Y-119333845D01*
X68435406Y-119429083D01*
X68435406Y-119571940D01*
X68387787Y-119667178D01*
X68340168Y-119714797D01*
X68244930Y-119762416D01*
X67863978Y-119762416D01*
X69387787Y-120238606D02*
X68816359Y-120238606D01*
X69102073Y-120238606D02*
X69102073Y-119238606D01*
X69006835Y-119381464D01*
X68911597Y-119476702D01*
X68816359Y-119524321D01*
X70006835Y-119238606D02*
X70102073Y-119238606D01*
X70197311Y-119286226D01*
X70244930Y-119333845D01*
X70292549Y-119429083D01*
X70340168Y-119619559D01*
X70340168Y-119857654D01*
X70292549Y-120048130D01*
X70244930Y-120143368D01*
X70197311Y-120190987D01*
X70102073Y-120238606D01*
X70006835Y-120238606D01*
X69911597Y-120190987D01*
X69863978Y-120143368D01*
X69816359Y-120048130D01*
X69768740Y-119857654D01*
X69768740Y-119619559D01*
X69816359Y-119429083D01*
X69863978Y-119333845D01*
X69911597Y-119286226D01*
X70006835Y-119238606D01*
%TO.C,C3*%
X111339333Y-74017142D02*
X111291714Y-74064761D01*
X111148857Y-74112380D01*
X111053619Y-74112380D01*
X110910761Y-74064761D01*
X110815523Y-73969523D01*
X110767904Y-73874285D01*
X110720285Y-73683809D01*
X110720285Y-73540952D01*
X110767904Y-73350476D01*
X110815523Y-73255238D01*
X110910761Y-73160000D01*
X111053619Y-73112380D01*
X111148857Y-73112380D01*
X111291714Y-73160000D01*
X111339333Y-73207619D01*
X111672666Y-73112380D02*
X112291714Y-73112380D01*
X111958380Y-73493333D01*
X112101238Y-73493333D01*
X112196476Y-73540952D01*
X112244095Y-73588571D01*
X112291714Y-73683809D01*
X112291714Y-73921904D01*
X112244095Y-74017142D01*
X112196476Y-74064761D01*
X112101238Y-74112380D01*
X111815523Y-74112380D01*
X111720285Y-74064761D01*
X111672666Y-74017142D01*
%TO.C,R9*%
X85154380Y-71206666D02*
X84678190Y-71540000D01*
X85154380Y-71778095D02*
X84154380Y-71778095D01*
X84154380Y-71397142D01*
X84202000Y-71301904D01*
X84249619Y-71254285D01*
X84344857Y-71206666D01*
X84487714Y-71206666D01*
X84582952Y-71254285D01*
X84630571Y-71301904D01*
X84678190Y-71397142D01*
X84678190Y-71778095D01*
X85154380Y-70730476D02*
X85154380Y-70540000D01*
X85106761Y-70444761D01*
X85059142Y-70397142D01*
X84916285Y-70301904D01*
X84725809Y-70254285D01*
X84344857Y-70254285D01*
X84249619Y-70301904D01*
X84202000Y-70349523D01*
X84154380Y-70444761D01*
X84154380Y-70635238D01*
X84202000Y-70730476D01*
X84249619Y-70778095D01*
X84344857Y-70825714D01*
X84582952Y-70825714D01*
X84678190Y-70778095D01*
X84725809Y-70730476D01*
X84773428Y-70635238D01*
X84773428Y-70444761D01*
X84725809Y-70349523D01*
X84678190Y-70301904D01*
X84582952Y-70254285D01*
%TO.C,C12*%
X74069117Y-106025657D02*
X74021498Y-106073276D01*
X73878641Y-106120895D01*
X73783403Y-106120895D01*
X73640546Y-106073276D01*
X73545308Y-105978038D01*
X73497689Y-105882800D01*
X73450070Y-105692324D01*
X73450070Y-105549467D01*
X73497689Y-105358991D01*
X73545308Y-105263753D01*
X73640546Y-105168515D01*
X73783403Y-105120895D01*
X73878641Y-105120895D01*
X74021498Y-105168515D01*
X74069117Y-105216134D01*
X75021498Y-106120895D02*
X74450070Y-106120895D01*
X74735784Y-106120895D02*
X74735784Y-105120895D01*
X74640546Y-105263753D01*
X74545308Y-105358991D01*
X74450070Y-105406610D01*
X75402451Y-105216134D02*
X75450070Y-105168515D01*
X75545308Y-105120895D01*
X75783403Y-105120895D01*
X75878641Y-105168515D01*
X75926260Y-105216134D01*
X75973879Y-105311372D01*
X75973879Y-105406610D01*
X75926260Y-105549467D01*
X75354832Y-106120895D01*
X75973879Y-106120895D01*
%TO.C,U2*%
X117298857Y-78161285D02*
X118270285Y-78161285D01*
X118384571Y-78104142D01*
X118441714Y-78047000D01*
X118498857Y-77932714D01*
X118498857Y-77704142D01*
X118441714Y-77589857D01*
X118384571Y-77532714D01*
X118270285Y-77475571D01*
X117298857Y-77475571D01*
X117413142Y-76961285D02*
X117356000Y-76904142D01*
X117298857Y-76789857D01*
X117298857Y-76504142D01*
X117356000Y-76389857D01*
X117413142Y-76332714D01*
X117527428Y-76275571D01*
X117641714Y-76275571D01*
X117813142Y-76332714D01*
X118498857Y-77018428D01*
X118498857Y-76275571D01*
%TO.C,D4*%
X56078380Y-74906095D02*
X55078380Y-74906095D01*
X55078380Y-74668000D01*
X55126000Y-74525142D01*
X55221238Y-74429904D01*
X55316476Y-74382285D01*
X55506952Y-74334666D01*
X55649809Y-74334666D01*
X55840285Y-74382285D01*
X55935523Y-74429904D01*
X56030761Y-74525142D01*
X56078380Y-74668000D01*
X56078380Y-74906095D01*
X55411714Y-73477523D02*
X56078380Y-73477523D01*
X55030761Y-73715619D02*
X55745047Y-73953714D01*
X55745047Y-73334666D01*
X56024380Y-70700284D02*
X55024380Y-70700284D01*
X56024380Y-70128856D02*
X55452952Y-70557427D01*
X55024380Y-70128856D02*
X55595809Y-70700284D01*
%TO.C,C9*%
X66929333Y-123928142D02*
X66881714Y-123975761D01*
X66738857Y-124023380D01*
X66643619Y-124023380D01*
X66500761Y-123975761D01*
X66405523Y-123880523D01*
X66357904Y-123785285D01*
X66310285Y-123594809D01*
X66310285Y-123451952D01*
X66357904Y-123261476D01*
X66405523Y-123166238D01*
X66500761Y-123071000D01*
X66643619Y-123023380D01*
X66738857Y-123023380D01*
X66881714Y-123071000D01*
X66929333Y-123118619D01*
X67405523Y-124023380D02*
X67596000Y-124023380D01*
X67691238Y-123975761D01*
X67738857Y-123928142D01*
X67834095Y-123785285D01*
X67881714Y-123594809D01*
X67881714Y-123213857D01*
X67834095Y-123118619D01*
X67786476Y-123071000D01*
X67691238Y-123023380D01*
X67500761Y-123023380D01*
X67405523Y-123071000D01*
X67357904Y-123118619D01*
X67310285Y-123213857D01*
X67310285Y-123451952D01*
X67357904Y-123547190D01*
X67405523Y-123594809D01*
X67500761Y-123642428D01*
X67691238Y-123642428D01*
X67786476Y-123594809D01*
X67834095Y-123547190D01*
X67881714Y-123451952D01*
%TO.C,C8*%
X54967142Y-122046666D02*
X55014761Y-122094285D01*
X55062380Y-122237142D01*
X55062380Y-122332380D01*
X55014761Y-122475238D01*
X54919523Y-122570476D01*
X54824285Y-122618095D01*
X54633809Y-122665714D01*
X54490952Y-122665714D01*
X54300476Y-122618095D01*
X54205238Y-122570476D01*
X54110000Y-122475238D01*
X54062380Y-122332380D01*
X54062380Y-122237142D01*
X54110000Y-122094285D01*
X54157619Y-122046666D01*
X54490952Y-121475238D02*
X54443333Y-121570476D01*
X54395714Y-121618095D01*
X54300476Y-121665714D01*
X54252857Y-121665714D01*
X54157619Y-121618095D01*
X54110000Y-121570476D01*
X54062380Y-121475238D01*
X54062380Y-121284761D01*
X54110000Y-121189523D01*
X54157619Y-121141904D01*
X54252857Y-121094285D01*
X54300476Y-121094285D01*
X54395714Y-121141904D01*
X54443333Y-121189523D01*
X54490952Y-121284761D01*
X54490952Y-121475238D01*
X54538571Y-121570476D01*
X54586190Y-121618095D01*
X54681428Y-121665714D01*
X54871904Y-121665714D01*
X54967142Y-121618095D01*
X55014761Y-121570476D01*
X55062380Y-121475238D01*
X55062380Y-121284761D01*
X55014761Y-121189523D01*
X54967142Y-121141904D01*
X54871904Y-121094285D01*
X54681428Y-121094285D01*
X54586190Y-121141904D01*
X54538571Y-121189523D01*
X54490952Y-121284761D01*
%TO.C,D3*%
X75969904Y-119618380D02*
X75969904Y-118618380D01*
X76208000Y-118618380D01*
X76350857Y-118666000D01*
X76446095Y-118761238D01*
X76493714Y-118856476D01*
X76541333Y-119046952D01*
X76541333Y-119189809D01*
X76493714Y-119380285D01*
X76446095Y-119475523D01*
X76350857Y-119570761D01*
X76208000Y-119618380D01*
X75969904Y-119618380D01*
X76874666Y-118618380D02*
X77493714Y-118618380D01*
X77160380Y-118999333D01*
X77303238Y-118999333D01*
X77398476Y-119046952D01*
X77446095Y-119094571D01*
X77493714Y-119189809D01*
X77493714Y-119427904D01*
X77446095Y-119523142D01*
X77398476Y-119570761D01*
X77303238Y-119618380D01*
X77017523Y-119618380D01*
X76922285Y-119570761D01*
X76874666Y-119523142D01*
X80256095Y-123764380D02*
X80256095Y-122764380D01*
X80827523Y-123764380D02*
X80398952Y-123192952D01*
X80827523Y-122764380D02*
X80256095Y-123335809D01*
%TO.C,D2*%
X70183879Y-102690260D02*
X70183879Y-101690260D01*
X70421975Y-101690260D01*
X70564832Y-101737880D01*
X70660070Y-101833118D01*
X70707689Y-101928356D01*
X70755308Y-102118832D01*
X70755308Y-102261689D01*
X70707689Y-102452165D01*
X70660070Y-102547403D01*
X70564832Y-102642641D01*
X70421975Y-102690260D01*
X70183879Y-102690260D01*
X71136260Y-101785499D02*
X71183879Y-101737880D01*
X71279117Y-101690260D01*
X71517213Y-101690260D01*
X71612451Y-101737880D01*
X71660070Y-101785499D01*
X71707689Y-101880737D01*
X71707689Y-101975975D01*
X71660070Y-102118832D01*
X71088641Y-102690260D01*
X71707689Y-102690260D01*
X74053879Y-105155181D02*
X74530070Y-105155181D01*
X73958641Y-105440895D02*
X74291975Y-104440895D01*
X74625308Y-105440895D01*
%TO.C,R8*%
X81518380Y-71540666D02*
X81042190Y-71874000D01*
X81518380Y-72112095D02*
X80518380Y-72112095D01*
X80518380Y-71731142D01*
X80566000Y-71635904D01*
X80613619Y-71588285D01*
X80708857Y-71540666D01*
X80851714Y-71540666D01*
X80946952Y-71588285D01*
X80994571Y-71635904D01*
X81042190Y-71731142D01*
X81042190Y-72112095D01*
X80946952Y-70969238D02*
X80899333Y-71064476D01*
X80851714Y-71112095D01*
X80756476Y-71159714D01*
X80708857Y-71159714D01*
X80613619Y-71112095D01*
X80566000Y-71064476D01*
X80518380Y-70969238D01*
X80518380Y-70778761D01*
X80566000Y-70683523D01*
X80613619Y-70635904D01*
X80708857Y-70588285D01*
X80756476Y-70588285D01*
X80851714Y-70635904D01*
X80899333Y-70683523D01*
X80946952Y-70778761D01*
X80946952Y-70969238D01*
X80994571Y-71064476D01*
X81042190Y-71112095D01*
X81137428Y-71159714D01*
X81327904Y-71159714D01*
X81423142Y-71112095D01*
X81470761Y-71064476D01*
X81518380Y-70969238D01*
X81518380Y-70778761D01*
X81470761Y-70683523D01*
X81423142Y-70635904D01*
X81327904Y-70588285D01*
X81137428Y-70588285D01*
X81042190Y-70635904D01*
X80994571Y-70683523D01*
X80946952Y-70778761D01*
%TO.C,D5*%
X85042380Y-111530595D02*
X84042380Y-111530595D01*
X84042380Y-111292500D01*
X84090000Y-111149642D01*
X84185238Y-111054404D01*
X84280476Y-111006785D01*
X84470952Y-110959166D01*
X84613809Y-110959166D01*
X84804285Y-111006785D01*
X84899523Y-111054404D01*
X84994761Y-111149642D01*
X85042380Y-111292500D01*
X85042380Y-111530595D01*
X84042380Y-110054404D02*
X84042380Y-110530595D01*
X84518571Y-110578214D01*
X84470952Y-110530595D01*
X84423333Y-110435357D01*
X84423333Y-110197261D01*
X84470952Y-110102023D01*
X84518571Y-110054404D01*
X84613809Y-110006785D01*
X84851904Y-110006785D01*
X84947142Y-110054404D01*
X84994761Y-110102023D01*
X85042380Y-110197261D01*
X85042380Y-110435357D01*
X84994761Y-110530595D01*
X84947142Y-110578214D01*
%TO.C,R6*%
X67424308Y-98498895D02*
X67090975Y-98022705D01*
X66852879Y-98498895D02*
X66852879Y-97498895D01*
X67233832Y-97498895D01*
X67329070Y-97546515D01*
X67376689Y-97594134D01*
X67424308Y-97689372D01*
X67424308Y-97832229D01*
X67376689Y-97927467D01*
X67329070Y-97975086D01*
X67233832Y-98022705D01*
X66852879Y-98022705D01*
X68281451Y-97498895D02*
X68090975Y-97498895D01*
X67995736Y-97546515D01*
X67948117Y-97594134D01*
X67852879Y-97736991D01*
X67805260Y-97927467D01*
X67805260Y-98308419D01*
X67852879Y-98403657D01*
X67900498Y-98451276D01*
X67995736Y-98498895D01*
X68186213Y-98498895D01*
X68281451Y-98451276D01*
X68329070Y-98403657D01*
X68376689Y-98308419D01*
X68376689Y-98070324D01*
X68329070Y-97975086D01*
X68281451Y-97927467D01*
X68186213Y-97879848D01*
X67995736Y-97879848D01*
X67900498Y-97927467D01*
X67852879Y-97975086D01*
X67805260Y-98070324D01*
%TO.C,R2*%
X65609597Y-120238606D02*
X65276264Y-119762416D01*
X65038168Y-120238606D02*
X65038168Y-119238606D01*
X65419121Y-119238606D01*
X65514359Y-119286226D01*
X65561978Y-119333845D01*
X65609597Y-119429083D01*
X65609597Y-119571940D01*
X65561978Y-119667178D01*
X65514359Y-119714797D01*
X65419121Y-119762416D01*
X65038168Y-119762416D01*
X65990549Y-119333845D02*
X66038168Y-119286226D01*
X66133406Y-119238606D01*
X66371502Y-119238606D01*
X66466740Y-119286226D01*
X66514359Y-119333845D01*
X66561978Y-119429083D01*
X66561978Y-119524321D01*
X66514359Y-119667178D01*
X65942930Y-120238606D01*
X66561978Y-120238606D01*
%TO.C,C2*%
X114749392Y-111813400D02*
X114701773Y-111861019D01*
X114558916Y-111908638D01*
X114463678Y-111908638D01*
X114320820Y-111861019D01*
X114225582Y-111765781D01*
X114177963Y-111670543D01*
X114130344Y-111480067D01*
X114130344Y-111337210D01*
X114177963Y-111146734D01*
X114225582Y-111051496D01*
X114320820Y-110956258D01*
X114463678Y-110908638D01*
X114558916Y-110908638D01*
X114701773Y-110956258D01*
X114749392Y-111003877D01*
X115130344Y-111003877D02*
X115177963Y-110956258D01*
X115273201Y-110908638D01*
X115511297Y-110908638D01*
X115606535Y-110956258D01*
X115654154Y-111003877D01*
X115701773Y-111099115D01*
X115701773Y-111194353D01*
X115654154Y-111337210D01*
X115082725Y-111908638D01*
X115701773Y-111908638D01*
%TO.C,U4*%
X104267095Y-108289380D02*
X104267095Y-109098904D01*
X104314714Y-109194142D01*
X104362333Y-109241761D01*
X104457571Y-109289380D01*
X104648047Y-109289380D01*
X104743285Y-109241761D01*
X104790904Y-109194142D01*
X104838523Y-109098904D01*
X104838523Y-108289380D01*
X105743285Y-108622714D02*
X105743285Y-109289380D01*
X105505190Y-108241761D02*
X105267095Y-108956047D01*
X105886142Y-108956047D01*
%TO.C,H2*%
X55626095Y-134554380D02*
X55626095Y-133554380D01*
X55626095Y-134030571D02*
X56197523Y-134030571D01*
X56197523Y-134554380D02*
X56197523Y-133554380D01*
X56626095Y-133649619D02*
X56673714Y-133602000D01*
X56768952Y-133554380D01*
X57007047Y-133554380D01*
X57102285Y-133602000D01*
X57149904Y-133649619D01*
X57197523Y-133744857D01*
X57197523Y-133840095D01*
X57149904Y-133982952D01*
X56578476Y-134554380D01*
X57197523Y-134554380D01*
%TO.C,C4*%
X122047333Y-84939142D02*
X121999714Y-84986761D01*
X121856857Y-85034380D01*
X121761619Y-85034380D01*
X121618761Y-84986761D01*
X121523523Y-84891523D01*
X121475904Y-84796285D01*
X121428285Y-84605809D01*
X121428285Y-84462952D01*
X121475904Y-84272476D01*
X121523523Y-84177238D01*
X121618761Y-84082000D01*
X121761619Y-84034380D01*
X121856857Y-84034380D01*
X121999714Y-84082000D01*
X122047333Y-84129619D01*
X122904476Y-84367714D02*
X122904476Y-85034380D01*
X122666380Y-83986761D02*
X122428285Y-84701047D01*
X123047333Y-84701047D01*
%TO.C,C6*%
X59986639Y-101601368D02*
X59939020Y-101648987D01*
X59796163Y-101696606D01*
X59700925Y-101696606D01*
X59558067Y-101648987D01*
X59462829Y-101553749D01*
X59415210Y-101458511D01*
X59367591Y-101268035D01*
X59367591Y-101125178D01*
X59415210Y-100934702D01*
X59462829Y-100839464D01*
X59558067Y-100744226D01*
X59700925Y-100696606D01*
X59796163Y-100696606D01*
X59939020Y-100744226D01*
X59986639Y-100791845D01*
X60843782Y-100696606D02*
X60653306Y-100696606D01*
X60558067Y-100744226D01*
X60510448Y-100791845D01*
X60415210Y-100934702D01*
X60367591Y-101125178D01*
X60367591Y-101506130D01*
X60415210Y-101601368D01*
X60462829Y-101648987D01*
X60558067Y-101696606D01*
X60748544Y-101696606D01*
X60843782Y-101648987D01*
X60891401Y-101601368D01*
X60939020Y-101506130D01*
X60939020Y-101268035D01*
X60891401Y-101172797D01*
X60843782Y-101125178D01*
X60748544Y-101077559D01*
X60558067Y-101077559D01*
X60462829Y-101125178D01*
X60415210Y-101172797D01*
X60367591Y-101268035D01*
%TO.C,C1*%
X77851333Y-88201142D02*
X77803714Y-88248761D01*
X77660857Y-88296380D01*
X77565619Y-88296380D01*
X77422761Y-88248761D01*
X77327523Y-88153523D01*
X77279904Y-88058285D01*
X77232285Y-87867809D01*
X77232285Y-87724952D01*
X77279904Y-87534476D01*
X77327523Y-87439238D01*
X77422761Y-87344000D01*
X77565619Y-87296380D01*
X77660857Y-87296380D01*
X77803714Y-87344000D01*
X77851333Y-87391619D01*
X78803714Y-88296380D02*
X78232285Y-88296380D01*
X78518000Y-88296380D02*
X78518000Y-87296380D01*
X78422761Y-87439238D01*
X78327523Y-87534476D01*
X78232285Y-87582095D01*
%TO.C,R4*%
X102430392Y-111400638D02*
X102097059Y-110924448D01*
X101858963Y-111400638D02*
X101858963Y-110400638D01*
X102239916Y-110400638D01*
X102335154Y-110448258D01*
X102382773Y-110495877D01*
X102430392Y-110591115D01*
X102430392Y-110733972D01*
X102382773Y-110829210D01*
X102335154Y-110876829D01*
X102239916Y-110924448D01*
X101858963Y-110924448D01*
X103287535Y-110733972D02*
X103287535Y-111400638D01*
X103049439Y-110353019D02*
X102811344Y-111067305D01*
X103430392Y-111067305D01*
%TO.C,D6*%
X88082380Y-111530595D02*
X87082380Y-111530595D01*
X87082380Y-111292500D01*
X87130000Y-111149642D01*
X87225238Y-111054404D01*
X87320476Y-111006785D01*
X87510952Y-110959166D01*
X87653809Y-110959166D01*
X87844285Y-111006785D01*
X87939523Y-111054404D01*
X88034761Y-111149642D01*
X88082380Y-111292500D01*
X88082380Y-111530595D01*
X87082380Y-110102023D02*
X87082380Y-110292500D01*
X87130000Y-110387738D01*
X87177619Y-110435357D01*
X87320476Y-110530595D01*
X87510952Y-110578214D01*
X87891904Y-110578214D01*
X87987142Y-110530595D01*
X88034761Y-110482976D01*
X88082380Y-110387738D01*
X88082380Y-110197261D01*
X88034761Y-110102023D01*
X87987142Y-110054404D01*
X87891904Y-110006785D01*
X87653809Y-110006785D01*
X87558571Y-110054404D01*
X87510952Y-110102023D01*
X87463333Y-110197261D01*
X87463333Y-110387738D01*
X87510952Y-110482976D01*
X87558571Y-110530595D01*
X87653809Y-110578214D01*
%TO.C,C7*%
X71651135Y-93079802D02*
X71698754Y-93127421D01*
X71746373Y-93270278D01*
X71746373Y-93365516D01*
X71698754Y-93508374D01*
X71603516Y-93603612D01*
X71508278Y-93651231D01*
X71317802Y-93698850D01*
X71174945Y-93698850D01*
X70984469Y-93651231D01*
X70889231Y-93603612D01*
X70793993Y-93508374D01*
X70746373Y-93365516D01*
X70746373Y-93270278D01*
X70793993Y-93127421D01*
X70841612Y-93079802D01*
X70746373Y-92746469D02*
X70746373Y-92079802D01*
X71746373Y-92508374D01*
%TO.C,H1*%
X125603095Y-126954380D02*
X125603095Y-125954380D01*
X125603095Y-126430571D02*
X126174523Y-126430571D01*
X126174523Y-126954380D02*
X126174523Y-125954380D01*
X127174523Y-126954380D02*
X126603095Y-126954380D01*
X126888809Y-126954380D02*
X126888809Y-125954380D01*
X126793571Y-126097238D01*
X126698333Y-126192476D01*
X126603095Y-126240095D01*
%TO.C,U3*%
X77122380Y-74462904D02*
X77931904Y-74462904D01*
X78027142Y-74415285D01*
X78074761Y-74367666D01*
X78122380Y-74272428D01*
X78122380Y-74081952D01*
X78074761Y-73986714D01*
X78027142Y-73939095D01*
X77931904Y-73891476D01*
X77122380Y-73891476D01*
X77122380Y-73510523D02*
X77122380Y-72891476D01*
X77503333Y-73224809D01*
X77503333Y-73081952D01*
X77550952Y-72986714D01*
X77598571Y-72939095D01*
X77693809Y-72891476D01*
X77931904Y-72891476D01*
X78027142Y-72939095D01*
X78074761Y-72986714D01*
X78122380Y-73081952D01*
X78122380Y-73367666D01*
X78074761Y-73462904D01*
X78027142Y-73510523D01*
%TO.C,R1*%
X102936392Y-120884638D02*
X102603059Y-120408448D01*
X102364963Y-120884638D02*
X102364963Y-119884638D01*
X102745916Y-119884638D01*
X102841154Y-119932258D01*
X102888773Y-119979877D01*
X102936392Y-120075115D01*
X102936392Y-120217972D01*
X102888773Y-120313210D01*
X102841154Y-120360829D01*
X102745916Y-120408448D01*
X102364963Y-120408448D01*
X103888773Y-120884638D02*
X103317344Y-120884638D01*
X103603059Y-120884638D02*
X103603059Y-119884638D01*
X103507820Y-120027496D01*
X103412582Y-120122734D01*
X103317344Y-120170353D01*
D11*
%TO.C,D1*%
X64276822Y-106088515D02*
G75*
G03*
X64336424Y-103821149I1311153J1100000D01*
G01*
%TO.C,R7*%
X66449975Y-97114515D02*
X69059975Y-97114515D01*
X66449975Y-97114515D02*
G75*
G03*
X66449975Y-97114515I-1370000J0D01*
G01*
%TO.C,C11*%
X66430000Y-86628000D02*
X73670000Y-86628000D01*
X66430000Y-83888000D02*
X73670000Y-83888000D01*
X73670000Y-83888000D02*
X73670000Y-86628000D01*
X66430000Y-83888000D02*
X66430000Y-86628000D01*
%TO.C,C13*%
X59380975Y-109028515D02*
X59380975Y-107134515D01*
X59260975Y-109028515D02*
X59260975Y-107192515D01*
X59500975Y-109028515D02*
X59500975Y-107082515D01*
X58900975Y-109028515D02*
X58900975Y-107404515D01*
X59220975Y-112924515D02*
X59220975Y-111108515D01*
X60341975Y-109028515D02*
X60341975Y-106862515D01*
X57540975Y-110701515D02*
X57540975Y-109435515D01*
X59180975Y-112902515D02*
X59180975Y-111108515D01*
X58500975Y-112411515D02*
X58500975Y-111108515D01*
X60141975Y-109028515D02*
X60141975Y-106893515D01*
X59580975Y-113086515D02*
X59580975Y-111108515D01*
X58860975Y-112704515D02*
X58860975Y-111108515D01*
X59740975Y-109028515D02*
X59740975Y-106994515D01*
X60261975Y-109028515D02*
X60261975Y-106873515D01*
X58620975Y-109028515D02*
X58620975Y-107618515D01*
X58740975Y-112616515D02*
X58740975Y-111108515D01*
X60341975Y-113274515D02*
X60341975Y-111108515D01*
X60221975Y-113257515D02*
X60221975Y-111108515D01*
X59060975Y-112834515D02*
X59060975Y-111108515D01*
X58980975Y-109028515D02*
X58980975Y-107352515D01*
X59340975Y-112984515D02*
X59340975Y-111108515D01*
X57500975Y-110470515D02*
X57500975Y-109666515D01*
X58700975Y-109028515D02*
X58700975Y-107552515D01*
X58740975Y-109028515D02*
X58740975Y-107520515D01*
X59300975Y-109028515D02*
X59300975Y-107172515D01*
X59900975Y-113189515D02*
X59900975Y-111108515D01*
X59660975Y-113115515D02*
X59660975Y-111108515D01*
X57740975Y-111330515D02*
X57740975Y-108806515D01*
X59340975Y-109028515D02*
X59340975Y-107152515D01*
X58180975Y-112063515D02*
X58180975Y-108073515D01*
X57820975Y-111500515D02*
X57820975Y-108636515D01*
X59420975Y-109028515D02*
X59420975Y-107116515D01*
X59300975Y-112964515D02*
X59300975Y-111108515D01*
X60221975Y-109028515D02*
X60221975Y-106879515D01*
X59860975Y-113178515D02*
X59860975Y-111108515D01*
X58860975Y-109028515D02*
X58860975Y-107432515D01*
X59740975Y-113142515D02*
X59740975Y-111108515D01*
X58460975Y-112373515D02*
X58460975Y-111108515D01*
X58660975Y-109028515D02*
X58660975Y-107584515D01*
X58300975Y-112205515D02*
X58300975Y-107931515D01*
X57860975Y-111577515D02*
X57860975Y-108559515D01*
X60501975Y-109028515D02*
X60501975Y-106846515D01*
X60301975Y-109028515D02*
X60301975Y-106867515D01*
X59100975Y-112858515D02*
X59100975Y-111108515D01*
X58060975Y-111902515D02*
X58060975Y-108234515D01*
X57660975Y-111127515D02*
X57660975Y-109009515D01*
X58940975Y-112758515D02*
X58940975Y-111108515D01*
X58580975Y-109028515D02*
X58580975Y-107652515D01*
X60141975Y-113243515D02*
X60141975Y-111108515D01*
X60061975Y-113227515D02*
X60061975Y-111108515D01*
X57900975Y-111649515D02*
X57900975Y-108487515D01*
X57780975Y-111418515D02*
X57780975Y-108718515D01*
X59220975Y-109028515D02*
X59220975Y-107212515D01*
X58820975Y-109028515D02*
X58820975Y-107461515D01*
X60381975Y-113279515D02*
X60381975Y-111108515D01*
X60301975Y-113269515D02*
X60301975Y-111108515D01*
X58420975Y-112333515D02*
X58420975Y-107803515D01*
X59780975Y-113154515D02*
X59780975Y-111108515D01*
X57700975Y-111233515D02*
X57700975Y-108903515D01*
X60421975Y-109028515D02*
X60421975Y-106853515D01*
X59140975Y-112880515D02*
X59140975Y-111108515D01*
X57980975Y-111782515D02*
X57980975Y-108354515D01*
X59980975Y-113209515D02*
X59980975Y-111108515D01*
X58220975Y-112112515D02*
X58220975Y-108024515D01*
X58460975Y-109028515D02*
X58460975Y-107763515D01*
X59820975Y-109028515D02*
X59820975Y-106970515D01*
X59420975Y-113020515D02*
X59420975Y-111108515D01*
X60701975Y-113298515D02*
X60701975Y-106838515D01*
X60181975Y-113250515D02*
X60181975Y-111108515D01*
X58820975Y-112675515D02*
X58820975Y-111108515D01*
X60661975Y-113298515D02*
X60661975Y-106838515D01*
X57580975Y-110870515D02*
X57580975Y-109266515D01*
X58980975Y-112784515D02*
X58980975Y-111108515D01*
X59620975Y-109028515D02*
X59620975Y-107035515D01*
X60421975Y-113283515D02*
X60421975Y-111108515D01*
X60741975Y-113298515D02*
X60741975Y-106838515D01*
X58340975Y-112250515D02*
X58340975Y-107886515D01*
X60381975Y-109028515D02*
X60381975Y-106857515D01*
X59500975Y-113054515D02*
X59500975Y-111108515D01*
X59700975Y-109028515D02*
X59700975Y-107007515D01*
X60461975Y-109028515D02*
X60461975Y-106850515D01*
X60621975Y-113296515D02*
X60621975Y-106840515D01*
X59940975Y-113199515D02*
X59940975Y-111108515D01*
X58140975Y-112012515D02*
X58140975Y-108124515D01*
X58940975Y-109028515D02*
X58940975Y-107378515D01*
X58380975Y-112292515D02*
X58380975Y-107844515D01*
X59820975Y-113166515D02*
X59820975Y-111108515D01*
X57940975Y-111718515D02*
X57940975Y-108418515D01*
X60261975Y-113263515D02*
X60261975Y-111108515D01*
X60020975Y-109028515D02*
X60020975Y-106918515D01*
X59100975Y-109028515D02*
X59100975Y-107278515D01*
X58780975Y-112646515D02*
X58780975Y-111108515D01*
X59900975Y-109028515D02*
X59900975Y-106947515D01*
X57620975Y-111008515D02*
X57620975Y-109128515D01*
X60461975Y-113286515D02*
X60461975Y-111108515D01*
X63927216Y-112222515D02*
X63927216Y-111592515D01*
X58780975Y-109028515D02*
X58780975Y-107490515D01*
X59700975Y-113129515D02*
X59700975Y-111108515D01*
X58660975Y-112552515D02*
X58660975Y-111108515D01*
X59620975Y-113101515D02*
X59620975Y-111108515D01*
X64242216Y-111907515D02*
X63612216Y-111907515D01*
X58580975Y-112484515D02*
X58580975Y-111108515D01*
X59460975Y-109028515D02*
X59460975Y-107098515D01*
X58900975Y-112732515D02*
X58900975Y-111108515D01*
X59180975Y-109028515D02*
X59180975Y-107234515D01*
X59460975Y-113038515D02*
X59460975Y-111108515D01*
X60581975Y-113295515D02*
X60581975Y-106841515D01*
X58500975Y-109028515D02*
X58500975Y-107725515D01*
X60501975Y-113290515D02*
X60501975Y-111108515D01*
X59780975Y-109028515D02*
X59780975Y-106982515D01*
X59140975Y-109028515D02*
X59140975Y-107256515D01*
X59580975Y-109028515D02*
X59580975Y-107050515D01*
X59260975Y-112944515D02*
X59260975Y-111108515D01*
X59380975Y-113002515D02*
X59380975Y-111108515D01*
X58620975Y-112518515D02*
X58620975Y-111108515D01*
X60181975Y-109028515D02*
X60181975Y-106886515D01*
X60541975Y-113292515D02*
X60541975Y-106844515D01*
X60101975Y-113235515D02*
X60101975Y-111108515D01*
X58700975Y-112584515D02*
X58700975Y-111108515D01*
X59940975Y-109028515D02*
X59940975Y-106937515D01*
X58260975Y-112160515D02*
X58260975Y-107976515D01*
X59060975Y-109028515D02*
X59060975Y-107302515D01*
X58540975Y-112448515D02*
X58540975Y-111108515D01*
X59020975Y-112810515D02*
X59020975Y-111108515D01*
X59980975Y-109028515D02*
X59980975Y-106927515D01*
X59540975Y-113070515D02*
X59540975Y-111108515D01*
X59020975Y-109028515D02*
X59020975Y-107326515D01*
X59860975Y-109028515D02*
X59860975Y-106958515D01*
X58020975Y-111844515D02*
X58020975Y-108292515D01*
X60061975Y-109028515D02*
X60061975Y-106909515D01*
X60101975Y-109028515D02*
X60101975Y-106901515D01*
X59660975Y-109028515D02*
X59660975Y-107021515D01*
X59540975Y-109028515D02*
X59540975Y-107066515D01*
X60020975Y-113218515D02*
X60020975Y-111108515D01*
X58540975Y-109028515D02*
X58540975Y-107688515D01*
X58100975Y-111958515D02*
X58100975Y-108178515D01*
X64011975Y-110068515D02*
G75*
G03*
X64011975Y-110068515I-3270000J0D01*
G01*
%TO.C,D7*%
X84018000Y-115808000D02*
X84018000Y-113123000D01*
X84018000Y-113123000D02*
X82098000Y-113123000D01*
X82098000Y-113123000D02*
X82098000Y-115808000D01*
%TO.C,C5*%
X69210595Y-92820515D02*
X69210595Y-94921515D01*
X69930595Y-88904515D02*
X69930595Y-90740515D01*
X69370595Y-88682515D02*
X69370595Y-90740515D01*
X70490595Y-92820515D02*
X70490595Y-94296515D01*
X69890595Y-92820515D02*
X69890595Y-94676515D01*
X69410595Y-92820515D02*
X69410595Y-94866515D01*
X70050595Y-88968515D02*
X70050595Y-90740515D01*
X70370595Y-89173515D02*
X70370595Y-90740515D01*
X70610595Y-89364515D02*
X70610595Y-90740515D01*
X68849595Y-88574515D02*
X68849595Y-90740515D01*
X69129595Y-92820515D02*
X69129595Y-94939515D01*
X69970595Y-92820515D02*
X69970595Y-94636515D01*
X71410595Y-90430515D02*
X71410595Y-93130515D01*
X71530595Y-90721515D02*
X71530595Y-92839515D01*
X69089595Y-92820515D02*
X69089595Y-94947515D01*
X70250595Y-89090515D02*
X70250595Y-90740515D01*
X69290595Y-92820515D02*
X69290595Y-94901515D01*
X69810595Y-88846515D02*
X69810595Y-90740515D01*
X69049595Y-88605515D02*
X69049595Y-90740515D01*
X68729595Y-88562515D02*
X68729595Y-90740515D01*
X70730595Y-89475515D02*
X70730595Y-90740515D01*
X69850595Y-92820515D02*
X69850595Y-94696515D01*
X69490595Y-92820515D02*
X69490595Y-94841515D01*
X69450595Y-92820515D02*
X69450595Y-94854515D01*
X68809595Y-88569515D02*
X68809595Y-90740515D01*
X71130595Y-89946515D02*
X71130595Y-93614515D01*
X68809595Y-92820515D02*
X68809595Y-94991515D01*
X68689595Y-92820515D02*
X68689595Y-95002515D01*
X64949354Y-89941515D02*
X65579354Y-89941515D01*
X68729595Y-92820515D02*
X68729595Y-94998515D01*
X70450595Y-92820515D02*
X70450595Y-94328515D01*
X69170595Y-88630515D02*
X69170595Y-90740515D01*
X71170595Y-90004515D02*
X71170595Y-93556515D01*
X69610595Y-88762515D02*
X69610595Y-90740515D01*
X70850595Y-89598515D02*
X70850595Y-93962515D01*
X69730595Y-92820515D02*
X69730595Y-94750515D01*
X70410595Y-89202515D02*
X70410595Y-90740515D01*
X69250595Y-88649515D02*
X69250595Y-90740515D01*
X69690595Y-88794515D02*
X69690595Y-90740515D01*
X68569595Y-88552515D02*
X68569595Y-95008515D01*
X70210595Y-92820515D02*
X70210595Y-94496515D01*
X70130595Y-89014515D02*
X70130595Y-90740515D01*
X68529595Y-88550515D02*
X68529595Y-95010515D01*
X70690595Y-89437515D02*
X70690595Y-90740515D01*
X68929595Y-88585515D02*
X68929595Y-90740515D01*
X69970595Y-88924515D02*
X69970595Y-90740515D01*
X70570595Y-92820515D02*
X70570595Y-94230515D01*
X68449595Y-88550515D02*
X68449595Y-95010515D01*
X71090595Y-89890515D02*
X71090595Y-93670515D01*
X69810595Y-92820515D02*
X69810595Y-94714515D01*
X69650595Y-92820515D02*
X69650595Y-94782515D01*
X69530595Y-92820515D02*
X69530595Y-94827515D01*
X70530595Y-89296515D02*
X70530595Y-90740515D01*
X71210595Y-90066515D02*
X71210595Y-93494515D01*
X70170595Y-92820515D02*
X70170595Y-94522515D01*
X68609595Y-88553515D02*
X68609595Y-95007515D01*
X69490595Y-88719515D02*
X69490595Y-90740515D01*
X68769595Y-88565515D02*
X68769595Y-90740515D01*
X70370595Y-92820515D02*
X70370595Y-94387515D01*
X70090595Y-92820515D02*
X70090595Y-94570515D01*
X71290595Y-90199515D02*
X71290595Y-93361515D01*
X70130595Y-92820515D02*
X70130595Y-94546515D01*
X70450595Y-89232515D02*
X70450595Y-90740515D01*
X65264354Y-89626515D02*
X65264354Y-90256515D01*
X70970595Y-89736515D02*
X70970595Y-93824515D01*
X70810595Y-89556515D02*
X70810595Y-94004515D01*
X68969595Y-88591515D02*
X68969595Y-90740515D01*
X69610595Y-92820515D02*
X69610595Y-94798515D01*
X70930595Y-89688515D02*
X70930595Y-93872515D01*
X70330595Y-92820515D02*
X70330595Y-94416515D01*
X69210595Y-88639515D02*
X69210595Y-90740515D01*
X68769595Y-92820515D02*
X68769595Y-94995515D01*
X70650595Y-92820515D02*
X70650595Y-94160515D01*
X69250595Y-92820515D02*
X69250595Y-94911515D01*
X71610595Y-90978515D02*
X71610595Y-92582515D01*
X69450595Y-88706515D02*
X69450595Y-90740515D01*
X70210595Y-89064515D02*
X70210595Y-90740515D01*
X69290595Y-88659515D02*
X69290595Y-90740515D01*
X70690595Y-92820515D02*
X70690595Y-94123515D01*
X68889595Y-92820515D02*
X68889595Y-94981515D01*
X70490595Y-89264515D02*
X70490595Y-90740515D01*
X70770595Y-89515515D02*
X70770595Y-94045515D01*
X69570595Y-88747515D02*
X69570595Y-90740515D01*
X68849595Y-92820515D02*
X68849595Y-94986515D01*
X69370595Y-92820515D02*
X69370595Y-94878515D01*
X70610595Y-92820515D02*
X70610595Y-94196515D01*
X68489595Y-88550515D02*
X68489595Y-95010515D01*
X70530595Y-92820515D02*
X70530595Y-94264515D01*
X69170595Y-92820515D02*
X69170595Y-94930515D01*
X71690595Y-91378515D02*
X71690595Y-92182515D01*
X68689595Y-88558515D02*
X68689595Y-90740515D01*
X70890595Y-89643515D02*
X70890595Y-93917515D01*
X71650595Y-91147515D02*
X71650595Y-92413515D01*
X69049595Y-92820515D02*
X69049595Y-94955515D01*
X70730595Y-92820515D02*
X70730595Y-94085515D01*
X68929595Y-92820515D02*
X68929595Y-94975515D01*
X70290595Y-89116515D02*
X70290595Y-90740515D01*
X69770595Y-88828515D02*
X69770595Y-90740515D01*
X69009595Y-88598515D02*
X69009595Y-90740515D01*
X71330595Y-90271515D02*
X71330595Y-93289515D01*
X69410595Y-88694515D02*
X69410595Y-90740515D01*
X70010595Y-92820515D02*
X70010595Y-94614515D01*
X71570595Y-90840515D02*
X71570595Y-92720515D01*
X71490595Y-90615515D02*
X71490595Y-92945515D01*
X71250595Y-90130515D02*
X71250595Y-93430515D01*
X68889595Y-88579515D02*
X68889595Y-90740515D01*
X69850595Y-88864515D02*
X69850595Y-90740515D01*
X69930595Y-92820515D02*
X69930595Y-94656515D01*
X69009595Y-92820515D02*
X69009595Y-94962515D01*
X69890595Y-88884515D02*
X69890595Y-90740515D01*
X68969595Y-92820515D02*
X68969595Y-94969515D01*
X71010595Y-89785515D02*
X71010595Y-93775515D01*
X70250595Y-92820515D02*
X70250595Y-94470515D01*
X70170595Y-89038515D02*
X70170595Y-90740515D01*
X69690595Y-92820515D02*
X69690595Y-94766515D01*
X69330595Y-92820515D02*
X69330595Y-94890515D01*
X71450595Y-90518515D02*
X71450595Y-93042515D01*
X70050595Y-92820515D02*
X70050595Y-94592515D01*
X69570595Y-92820515D02*
X69570595Y-94813515D01*
X69330595Y-88670515D02*
X69330595Y-90740515D01*
X70090595Y-88990515D02*
X70090595Y-90740515D01*
X70290595Y-92820515D02*
X70290595Y-94444515D01*
X69730595Y-88810515D02*
X69730595Y-90740515D01*
X70410595Y-92820515D02*
X70410595Y-94358515D01*
X68649595Y-88556515D02*
X68649595Y-95004515D01*
X70570595Y-89330515D02*
X70570595Y-90740515D01*
X69530595Y-88733515D02*
X69530595Y-90740515D01*
X70010595Y-88946515D02*
X70010595Y-90740515D01*
X71050595Y-89836515D02*
X71050595Y-93724515D01*
X69089595Y-88613515D02*
X69089595Y-90740515D01*
X70650595Y-89400515D02*
X70650595Y-90740515D01*
X69129595Y-88621515D02*
X69129595Y-90740515D01*
X69770595Y-92820515D02*
X69770595Y-94732515D01*
X69650595Y-88778515D02*
X69650595Y-90740515D01*
X71370595Y-90348515D02*
X71370595Y-93212515D01*
X70330595Y-89144515D02*
X70330595Y-90740515D01*
X71719595Y-91780515D02*
G75*
G03*
X71719595Y-91780515I-3270000J0D01*
G01*
%TO.C,R3*%
X98748000Y-85900000D02*
X98748000Y-76660000D01*
X95308000Y-76660000D02*
X95308000Y-85900000D01*
X95308000Y-85900000D02*
X98748000Y-85900000D01*
X97028000Y-75970000D02*
X97028000Y-76660000D01*
X97028000Y-86590000D02*
X97028000Y-85900000D01*
X98748000Y-76660000D02*
X95308000Y-76660000D01*
%TO.C,R5*%
X76438975Y-100416515D02*
X73828975Y-100416515D01*
X79178975Y-100416515D02*
G75*
G03*
X79178975Y-100416515I-1370000J0D01*
G01*
D12*
%TO.C,J1*%
X124661000Y-127015000D02*
X124661000Y-130390000D01*
X127911000Y-130390000D02*
X127911000Y-127015000D01*
X131036000Y-127015000D02*
X131036000Y-135445000D01*
X129966000Y-135445000D02*
X131036000Y-135445000D01*
X122606000Y-127015000D02*
X124661000Y-127015000D01*
X40686000Y-145305000D02*
X40686000Y-161055000D01*
X78186000Y-135445000D02*
X104186000Y-135445000D01*
X121536000Y-135445000D02*
X121536000Y-127015000D01*
X40686000Y-135445000D02*
X78186000Y-135445000D01*
X127911000Y-127015000D02*
X129966000Y-127015000D01*
X59966000Y-135445000D02*
X59966000Y-127015000D01*
X121536000Y-135445000D02*
X122606000Y-135445000D01*
X129966000Y-127015000D02*
X131036000Y-127015000D01*
X141686000Y-161055000D02*
X141686000Y-145305000D01*
X40686000Y-145305000D02*
X40686000Y-135445000D01*
X104186000Y-135445000D02*
X121536000Y-135445000D01*
X61036000Y-127015000D02*
X61036000Y-135445000D01*
X52606000Y-135445000D02*
X52606000Y-127015000D01*
X57911000Y-127015000D02*
X59966000Y-127015000D01*
X52606000Y-127015000D02*
X54661000Y-127015000D01*
X129966000Y-135445000D02*
X129966000Y-127015000D01*
X78186000Y-124145000D02*
X104186000Y-124145000D01*
X78186000Y-135445000D02*
X78186000Y-124145000D01*
X57911000Y-130390000D02*
X57911000Y-127015000D01*
X122606000Y-135445000D02*
X122606000Y-127015000D01*
X141686000Y-145305000D02*
X40686000Y-145305000D01*
X121536000Y-127015000D02*
X122606000Y-127015000D01*
X54661000Y-127015000D02*
X54661000Y-130390000D01*
X51536000Y-135445000D02*
X52606000Y-135445000D01*
X104186000Y-124145000D02*
X104186000Y-135445000D01*
X122606000Y-135445000D02*
X129966000Y-135445000D01*
X59966000Y-135445000D02*
X61036000Y-135445000D01*
X51536000Y-127015000D02*
X52606000Y-127015000D01*
X51536000Y-135445000D02*
X51536000Y-127015000D01*
X61036000Y-135445000D02*
X71686000Y-135445000D01*
X59966000Y-127015000D02*
X61036000Y-127015000D01*
X131036000Y-135445000D02*
X141686000Y-135445000D01*
X40686000Y-161055000D02*
X141686000Y-161055000D01*
X52606000Y-135445000D02*
X59966000Y-135445000D01*
X141686000Y-135445000D02*
X141686000Y-145305000D01*
X124661000Y-130390000D02*
G75*
G03*
X126286000Y-132015000I1625000J0D01*
G01*
X56286000Y-132015000D02*
G75*
G03*
X57911000Y-130390000I2J1624998D01*
G01*
X54661000Y-130390000D02*
G75*
G03*
X56286000Y-132015000I1624998J-2D01*
G01*
X126286000Y-132015000D02*
G75*
G03*
X127911000Y-130390000I0J1625000D01*
G01*
D13*
X105386000Y-132495000D02*
G75*
G03*
X105386000Y-132495000I-200000J0D01*
G01*
D11*
%TO.C,C10*%
X76432000Y-80332000D02*
X69192000Y-80332000D01*
X69192000Y-83072000D02*
X69192000Y-80332000D01*
X76432000Y-83072000D02*
X69192000Y-83072000D01*
X76432000Y-83072000D02*
X76432000Y-80332000D01*
D12*
%TO.C,U1*%
X127082059Y-111449258D02*
X127082059Y-117809258D01*
X117482059Y-117809258D02*
X117482059Y-111449258D01*
D14*
X127232059Y-109779258D02*
G75*
G03*
X127232059Y-109779258I-100000J0D01*
G01*
D11*
%TO.C,D8*%
X85146000Y-113123000D02*
X85146000Y-115808000D01*
X87066000Y-113123000D02*
X85146000Y-113123000D01*
X87066000Y-115808000D02*
X87066000Y-113123000D01*
%TO.C,L1*%
X60318000Y-71518000D02*
X60318000Y-83758000D01*
X62938000Y-83818000D02*
X62938000Y-83758000D01*
X62938000Y-71458000D02*
X62938000Y-71518000D01*
X65558000Y-71518000D02*
X60318000Y-71518000D01*
X60318000Y-83758000D02*
X65558000Y-83758000D01*
X65558000Y-83758000D02*
X65558000Y-71518000D01*
%TO.C,R10*%
X68103975Y-117148515D02*
X67773975Y-117148515D01*
X70513975Y-117148515D02*
X70513975Y-110608515D01*
X70513975Y-110608515D02*
X70183975Y-110608515D01*
X70183975Y-117148515D02*
X70513975Y-117148515D01*
X67773975Y-110608515D02*
X68103975Y-110608515D01*
X67773975Y-117148515D02*
X67773975Y-110608515D01*
%TO.C,C3*%
X107886000Y-74576000D02*
X115126000Y-74576000D01*
X115126000Y-74576000D02*
X115126000Y-77316000D01*
X107886000Y-74576000D02*
X107886000Y-77316000D01*
X107886000Y-77316000D02*
X115126000Y-77316000D01*
%TO.C,R9*%
X81924000Y-69454000D02*
X81924000Y-73294000D01*
X83764000Y-69454000D02*
X83764000Y-73294000D01*
%TO.C,C12*%
X75872975Y-107050515D02*
X75872975Y-109028515D01*
X75912975Y-107066515D02*
X75912975Y-109028515D01*
X74751975Y-106838515D02*
X74751975Y-113298515D01*
X76392975Y-111108515D02*
X76392975Y-112834515D01*
X76632975Y-107461515D02*
X76632975Y-109028515D01*
X76352975Y-111108515D02*
X76352975Y-112858515D01*
X75231975Y-106879515D02*
X75231975Y-109028515D01*
X76472975Y-111108515D02*
X76472975Y-112784515D01*
X75792975Y-107021515D02*
X75792975Y-109028515D01*
X77552975Y-108487515D02*
X77552975Y-111649515D01*
X76032975Y-111108515D02*
X76032975Y-113020515D01*
X77472975Y-108354515D02*
X77472975Y-111782515D01*
X75832975Y-107035515D02*
X75832975Y-109028515D01*
X75672975Y-106982515D02*
X75672975Y-109028515D01*
X75311975Y-111108515D02*
X75311975Y-113243515D01*
X76312975Y-107256515D02*
X76312975Y-109028515D01*
X76432975Y-107326515D02*
X76432975Y-109028515D01*
X76992975Y-107763515D02*
X76992975Y-109028515D01*
X76592975Y-107432515D02*
X76592975Y-109028515D01*
X76712975Y-107520515D02*
X76712975Y-109028515D01*
X77152975Y-107931515D02*
X77152975Y-112205515D01*
X77752975Y-108903515D02*
X77752975Y-111233515D01*
X76712975Y-111108515D02*
X76712975Y-112616515D01*
X75472975Y-111108515D02*
X75472975Y-113209515D01*
X71526734Y-107914515D02*
X71526734Y-108544515D01*
X76912975Y-111108515D02*
X76912975Y-112448515D01*
X75592975Y-111108515D02*
X75592975Y-113178515D01*
X76512975Y-111108515D02*
X76512975Y-112758515D01*
X74711975Y-106838515D02*
X74711975Y-113298515D01*
X75792975Y-111108515D02*
X75792975Y-113115515D01*
X74911975Y-106844515D02*
X74911975Y-113292515D01*
X75271975Y-106886515D02*
X75271975Y-109028515D01*
X76952975Y-111108515D02*
X76952975Y-112411515D01*
X75071975Y-106857515D02*
X75071975Y-109028515D01*
X74951975Y-111108515D02*
X74951975Y-113290515D01*
X77312975Y-108124515D02*
X77312975Y-112012515D01*
X77872975Y-109266515D02*
X77872975Y-110870515D01*
X76392975Y-107302515D02*
X76392975Y-109028515D01*
X77112975Y-107886515D02*
X77112975Y-112250515D01*
X74871975Y-106841515D02*
X74871975Y-113295515D01*
X76272975Y-111108515D02*
X76272975Y-112902515D01*
X76232975Y-111108515D02*
X76232975Y-112924515D01*
X75111975Y-111108515D02*
X75111975Y-113274515D01*
X76792975Y-107584515D02*
X76792975Y-109028515D01*
X76512975Y-107378515D02*
X76512975Y-109028515D01*
X77432975Y-108292515D02*
X77432975Y-111844515D01*
X75512975Y-111108515D02*
X75512975Y-113199515D01*
X76632975Y-111108515D02*
X76632975Y-112675515D01*
X76472975Y-107352515D02*
X76472975Y-109028515D01*
X77672975Y-108718515D02*
X77672975Y-111418515D01*
X77272975Y-108073515D02*
X77272975Y-112063515D01*
X74951975Y-106846515D02*
X74951975Y-109028515D01*
X74991975Y-111108515D02*
X74991975Y-113286515D01*
X76552975Y-111108515D02*
X76552975Y-112732515D01*
X77392975Y-108234515D02*
X77392975Y-111902515D01*
X77632975Y-108636515D02*
X77632975Y-111500515D01*
X74991975Y-106850515D02*
X74991975Y-109028515D01*
X75151975Y-106867515D02*
X75151975Y-109028515D01*
X75712975Y-111108515D02*
X75712975Y-113142515D01*
X75271975Y-111108515D02*
X75271975Y-113250515D01*
X75952975Y-107082515D02*
X75952975Y-109028515D01*
X77832975Y-109128515D02*
X77832975Y-111008515D01*
X76072975Y-107134515D02*
X76072975Y-109028515D01*
X75391975Y-111108515D02*
X75391975Y-113227515D01*
X76032975Y-107116515D02*
X76032975Y-109028515D01*
X76792975Y-111108515D02*
X76792975Y-112552515D01*
X75632975Y-106970515D02*
X75632975Y-109028515D01*
X76992975Y-111108515D02*
X76992975Y-112373515D01*
X75872975Y-111108515D02*
X75872975Y-113086515D01*
X76832975Y-107618515D02*
X76832975Y-109028515D01*
X76112975Y-107152515D02*
X76112975Y-109028515D01*
X75031975Y-111108515D02*
X75031975Y-113283515D01*
X76752975Y-107552515D02*
X76752975Y-109028515D01*
X77232975Y-108024515D02*
X77232975Y-112112515D01*
X75472975Y-106927515D02*
X75472975Y-109028515D01*
X75191975Y-106873515D02*
X75191975Y-109028515D01*
X75512975Y-106937515D02*
X75512975Y-109028515D01*
X77352975Y-108178515D02*
X77352975Y-111958515D01*
X75752975Y-107007515D02*
X75752975Y-109028515D01*
X76232975Y-107212515D02*
X76232975Y-109028515D01*
X76152975Y-107172515D02*
X76152975Y-109028515D01*
X76192975Y-111108515D02*
X76192975Y-112944515D01*
X77192975Y-107976515D02*
X77192975Y-112160515D01*
X76952975Y-107725515D02*
X76952975Y-109028515D01*
X77952975Y-109666515D02*
X77952975Y-110470515D01*
X76072975Y-111108515D02*
X76072975Y-113002515D01*
X75912975Y-111108515D02*
X75912975Y-113070515D01*
X76432975Y-111108515D02*
X76432975Y-112810515D01*
X77792975Y-109009515D02*
X77792975Y-111127515D01*
X75712975Y-106994515D02*
X75712975Y-109028515D01*
X75992975Y-111108515D02*
X75992975Y-113038515D01*
X76112975Y-111108515D02*
X76112975Y-112984515D01*
X76192975Y-107192515D02*
X76192975Y-109028515D01*
X75111975Y-106862515D02*
X75111975Y-109028515D01*
X76672975Y-111108515D02*
X76672975Y-112646515D01*
X75632975Y-111108515D02*
X75632975Y-113166515D01*
X75231975Y-111108515D02*
X75231975Y-113257515D01*
X75311975Y-106893515D02*
X75311975Y-109028515D01*
X75351975Y-106901515D02*
X75351975Y-109028515D01*
X76672975Y-107490515D02*
X76672975Y-109028515D01*
X75391975Y-106909515D02*
X75391975Y-109028515D01*
X75432975Y-111108515D02*
X75432975Y-113218515D01*
X76912975Y-107688515D02*
X76912975Y-109028515D01*
X75191975Y-111108515D02*
X75191975Y-113263515D01*
X75151975Y-111108515D02*
X75151975Y-113269515D01*
X76872975Y-107652515D02*
X76872975Y-109028515D01*
X77032975Y-107803515D02*
X77032975Y-112333515D01*
X75992975Y-107098515D02*
X75992975Y-109028515D01*
X76872975Y-111108515D02*
X76872975Y-112484515D01*
X75832975Y-111108515D02*
X75832975Y-113101515D01*
X76832975Y-111108515D02*
X76832975Y-112518515D01*
X76552975Y-107404515D02*
X76552975Y-109028515D01*
X75432975Y-106918515D02*
X75432975Y-109028515D01*
X75031975Y-106853515D02*
X75031975Y-109028515D01*
X77912975Y-109435515D02*
X77912975Y-110701515D01*
X75672975Y-111108515D02*
X75672975Y-113154515D01*
X74791975Y-106838515D02*
X74791975Y-113298515D01*
X77512975Y-108418515D02*
X77512975Y-111718515D01*
X75071975Y-111108515D02*
X75071975Y-113279515D01*
X75351975Y-111108515D02*
X75351975Y-113235515D01*
X75552975Y-111108515D02*
X75552975Y-113189515D01*
X71211734Y-108229515D02*
X71841734Y-108229515D01*
X77592975Y-108559515D02*
X77592975Y-111577515D01*
X75592975Y-106958515D02*
X75592975Y-109028515D01*
X76152975Y-111108515D02*
X76152975Y-112964515D01*
X76352975Y-107278515D02*
X76352975Y-109028515D01*
X76312975Y-111108515D02*
X76312975Y-112880515D01*
X76592975Y-111108515D02*
X76592975Y-112704515D01*
X77072975Y-107844515D02*
X77072975Y-112292515D01*
X75952975Y-111108515D02*
X75952975Y-113054515D01*
X76272975Y-107234515D02*
X76272975Y-109028515D01*
X74831975Y-106840515D02*
X74831975Y-113296515D01*
X77712975Y-108806515D02*
X77712975Y-111330515D01*
X75552975Y-106947515D02*
X75552975Y-109028515D01*
X76752975Y-111108515D02*
X76752975Y-112584515D01*
X75752975Y-111108515D02*
X75752975Y-113129515D01*
X77981975Y-110068515D02*
G75*
G03*
X77981975Y-110068515I-3270000J0D01*
G01*
D10*
%TO.C,U2*%
X100246000Y-80923000D02*
X100246000Y-85442999D01*
X117686000Y-85443000D02*
X117686000Y-83936333D01*
X117236000Y-83936333D02*
X117236000Y-82429667D01*
X117686000Y-82429667D02*
X117686000Y-80923001D01*
X117686000Y-80923001D02*
X100246000Y-80923000D01*
X100246000Y-85442999D02*
X117686000Y-85443000D01*
X117686000Y-83936333D02*
X117236000Y-83936333D01*
X117236000Y-82429667D02*
X117686000Y-82429667D01*
D11*
%TO.C,D4*%
X59328000Y-72128000D02*
X56388000Y-72128000D01*
X56388000Y-71108000D02*
X56388000Y-76548000D01*
X59328000Y-72008000D02*
X56388000Y-72008000D01*
X59328000Y-71888000D02*
X56388000Y-71888000D01*
X59328000Y-71108000D02*
X59328000Y-76548000D01*
X56518000Y-71108000D02*
X56388000Y-71108000D01*
X59328000Y-76548000D02*
X59198000Y-76548000D01*
X59198000Y-71108000D02*
X59328000Y-71108000D01*
X56388000Y-76548000D02*
X56518000Y-76548000D01*
%TO.C,C9*%
X70970000Y-122782000D02*
X63730000Y-122782000D01*
X70970000Y-120042000D02*
X63730000Y-120042000D01*
X70970000Y-122782000D02*
X70970000Y-120042000D01*
X63730000Y-122782000D02*
X63730000Y-120042000D01*
%TO.C,C8*%
X62802000Y-122782000D02*
X62802000Y-120042000D01*
X62802000Y-122782000D02*
X55562000Y-122782000D01*
X62802000Y-120042000D02*
X55562000Y-120042000D01*
X55562000Y-122782000D02*
X55562000Y-120042000D01*
%TO.C,D3*%
X78408000Y-122882000D02*
X78408000Y-119942000D01*
X73988000Y-119942000D02*
X73988000Y-120272000D01*
X79428000Y-122552000D02*
X79428000Y-122882000D01*
X78528000Y-122882000D02*
X78528000Y-119942000D01*
X79428000Y-120272000D02*
X79428000Y-119942000D01*
X79428000Y-122882000D02*
X73988000Y-122882000D01*
X78648000Y-122882000D02*
X78648000Y-119942000D01*
X73988000Y-122882000D02*
X73988000Y-122552000D01*
X79428000Y-119942000D02*
X73988000Y-119942000D01*
%TO.C,D2*%
X70963128Y-103888515D02*
G75*
G03*
X70903526Y-106155881I-1311153J-1100000D01*
G01*
%TO.C,R8*%
X78368000Y-69454000D02*
X78368000Y-73294000D01*
X80208000Y-69454000D02*
X80208000Y-73294000D01*
%TO.C,D5*%
X84018000Y-112477500D02*
X84018000Y-109792500D01*
X82098000Y-109792500D02*
X82098000Y-112477500D01*
X82098000Y-112477500D02*
X84018000Y-112477500D01*
%TO.C,R6*%
X66420975Y-100416515D02*
X69030975Y-100416515D01*
X66420975Y-100416515D02*
G75*
G03*
X66420975Y-100416515I-1370000J0D01*
G01*
%TO.C,R2*%
X67211975Y-117148515D02*
X67211975Y-110608515D01*
X66881975Y-117148515D02*
X67211975Y-117148515D01*
X64471975Y-117148515D02*
X64471975Y-110608515D01*
X64471975Y-110608515D02*
X64801975Y-110608515D01*
X64801975Y-117148515D02*
X64471975Y-117148515D01*
X67211975Y-110608515D02*
X66881975Y-110608515D01*
%TO.C,C2*%
X116286059Y-112368258D02*
X113546059Y-112368258D01*
X116286059Y-119608258D02*
X113546059Y-119608258D01*
X116286059Y-112368258D02*
X116286059Y-119608258D01*
X113546059Y-112368258D02*
X113546059Y-119608258D01*
D10*
%TO.C,U4*%
X124079000Y-94867000D02*
X122809000Y-94867000D01*
X87249000Y-107567000D02*
X122809000Y-107567000D01*
X87249000Y-89787000D02*
X87249000Y-107567000D01*
X124079000Y-102487000D02*
X124079000Y-94867000D01*
X122809000Y-102487000D02*
X124079000Y-102487000D01*
X122809000Y-89787000D02*
X87249000Y-89787000D01*
X122809000Y-107567000D02*
X122809000Y-89787000D01*
D11*
%TO.C,C4*%
X125834000Y-85498000D02*
X125834000Y-88238000D01*
X118594000Y-85498000D02*
X125834000Y-85498000D01*
X118594000Y-88238000D02*
X125834000Y-88238000D01*
X118594000Y-85498000D02*
X118594000Y-88238000D01*
%TO.C,C6*%
X57884975Y-99750515D02*
X57884975Y-98154515D01*
X59725975Y-100344515D02*
X59725975Y-93884515D01*
X57804975Y-99692515D02*
X57804975Y-98154515D01*
X58884975Y-100224515D02*
X58884975Y-98154515D01*
X62951216Y-99268515D02*
X62951216Y-98638515D01*
X59245975Y-100303515D02*
X59245975Y-98154515D01*
X57244975Y-99158515D02*
X57244975Y-95070515D01*
X58244975Y-96074515D02*
X58244975Y-94258515D01*
X58484975Y-100084515D02*
X58484975Y-98154515D01*
X58444975Y-100066515D02*
X58444975Y-98154515D01*
X59325975Y-96074515D02*
X59325975Y-93913515D01*
X58964975Y-100245515D02*
X58964975Y-98154515D01*
X58684975Y-100161515D02*
X58684975Y-98154515D01*
X58084975Y-96074515D02*
X58084975Y-94348515D01*
X58564975Y-96074515D02*
X58564975Y-94112515D01*
X59605975Y-100341515D02*
X59605975Y-93887515D01*
X57924975Y-96074515D02*
X57924975Y-94450515D01*
X58004975Y-96074515D02*
X58004975Y-94398515D01*
X58284975Y-96074515D02*
X58284975Y-94238515D01*
X59365975Y-96074515D02*
X59365975Y-93908515D01*
X57204975Y-99109515D02*
X57204975Y-95119515D01*
X57284975Y-99206515D02*
X57284975Y-95022515D01*
X56604975Y-97916515D02*
X56604975Y-96312515D01*
X57404975Y-99338515D02*
X57404975Y-94890515D01*
X57804975Y-96074515D02*
X57804975Y-94536515D01*
X59485975Y-96074515D02*
X59485975Y-93896515D01*
X59285975Y-96074515D02*
X59285975Y-93919515D01*
X56524975Y-97516515D02*
X56524975Y-96712515D01*
X57604975Y-99530515D02*
X57604975Y-98154515D01*
X59565975Y-100338515D02*
X59565975Y-93890515D01*
X58324975Y-100010515D02*
X58324975Y-98154515D01*
X58924975Y-96074515D02*
X58924975Y-93993515D01*
X58844975Y-96074515D02*
X58844975Y-94016515D01*
X57724975Y-96074515D02*
X57724975Y-94598515D01*
X59525975Y-96074515D02*
X59525975Y-93892515D01*
X56684975Y-98173515D02*
X56684975Y-96055515D01*
X59044975Y-96074515D02*
X59044975Y-93964515D01*
X57524975Y-96074515D02*
X57524975Y-94771515D01*
X58564975Y-100116515D02*
X58564975Y-98154515D01*
X58484975Y-96074515D02*
X58484975Y-94144515D01*
X59165975Y-100289515D02*
X59165975Y-98154515D01*
X58604975Y-96074515D02*
X58604975Y-94096515D01*
X56764975Y-98376515D02*
X56764975Y-95852515D01*
X58044975Y-99856515D02*
X58044975Y-98154515D01*
X58204975Y-99948515D02*
X58204975Y-98154515D01*
X59405975Y-96074515D02*
X59405975Y-93903515D01*
X59765975Y-100344515D02*
X59765975Y-93884515D01*
X59285975Y-100309515D02*
X59285975Y-98154515D01*
X57084975Y-98948515D02*
X57084975Y-95280515D01*
X57684975Y-99598515D02*
X57684975Y-98154515D01*
X58444975Y-96074515D02*
X58444975Y-94162515D01*
X58204975Y-96074515D02*
X58204975Y-94280515D01*
X58364975Y-100030515D02*
X58364975Y-98154515D01*
X59085975Y-96074515D02*
X59085975Y-93955515D01*
X56964975Y-98764515D02*
X56964975Y-95464515D01*
X59004975Y-100255515D02*
X59004975Y-98154515D01*
X57764975Y-99662515D02*
X57764975Y-98154515D01*
X58404975Y-96074515D02*
X58404975Y-94180515D01*
X58524975Y-96074515D02*
X58524975Y-94128515D01*
X59405975Y-100325515D02*
X59405975Y-98154515D01*
X59205975Y-100296515D02*
X59205975Y-98154515D01*
X58844975Y-100212515D02*
X58844975Y-98154515D01*
X59125975Y-100281515D02*
X59125975Y-98154515D01*
X57764975Y-96074515D02*
X57764975Y-94566515D01*
X57564975Y-99494515D02*
X57564975Y-98154515D01*
X58124975Y-99904515D02*
X58124975Y-98154515D01*
X63266216Y-98953515D02*
X62636216Y-98953515D01*
X58404975Y-100048515D02*
X58404975Y-98154515D01*
X58724975Y-100175515D02*
X58724975Y-98154515D01*
X59685975Y-100344515D02*
X59685975Y-93884515D01*
X57044975Y-98890515D02*
X57044975Y-95338515D01*
X58964975Y-96074515D02*
X58964975Y-93983515D01*
X58044975Y-96074515D02*
X58044975Y-94372515D01*
X58604975Y-100132515D02*
X58604975Y-98154515D01*
X56644975Y-98054515D02*
X56644975Y-96174515D01*
X59365975Y-100320515D02*
X59365975Y-98154515D01*
X57724975Y-99630515D02*
X57724975Y-98154515D01*
X59085975Y-100273515D02*
X59085975Y-98154515D01*
X56564975Y-97747515D02*
X56564975Y-96481515D01*
X58804975Y-96074515D02*
X58804975Y-94028515D01*
X57564975Y-96074515D02*
X57564975Y-94734515D01*
X59004975Y-96074515D02*
X59004975Y-93973515D01*
X58644975Y-100147515D02*
X58644975Y-98154515D01*
X59165975Y-96074515D02*
X59165975Y-93939515D01*
X57364975Y-99296515D02*
X57364975Y-94932515D01*
X57924975Y-99778515D02*
X57924975Y-98154515D01*
X57964975Y-96074515D02*
X57964975Y-94424515D01*
X58524975Y-100100515D02*
X58524975Y-98154515D01*
X56804975Y-98464515D02*
X56804975Y-95764515D01*
X59525975Y-100336515D02*
X59525975Y-98154515D01*
X58004975Y-99830515D02*
X58004975Y-98154515D01*
X59044975Y-100264515D02*
X59044975Y-98154515D01*
X57324975Y-99251515D02*
X57324975Y-94977515D01*
X57164975Y-99058515D02*
X57164975Y-95170515D01*
X59125975Y-96074515D02*
X59125975Y-93947515D01*
X58284975Y-99990515D02*
X58284975Y-98154515D01*
X58684975Y-96074515D02*
X58684975Y-94067515D01*
X58164975Y-96074515D02*
X58164975Y-94302515D01*
X57644975Y-96074515D02*
X57644975Y-94664515D01*
X58084975Y-99880515D02*
X58084975Y-98154515D01*
X57644975Y-99564515D02*
X57644975Y-98154515D01*
X57004975Y-98828515D02*
X57004975Y-95400515D01*
X57604975Y-96074515D02*
X57604975Y-94698515D01*
X58884975Y-96074515D02*
X58884975Y-94004515D01*
X57484975Y-99419515D02*
X57484975Y-98154515D01*
X56924975Y-98695515D02*
X56924975Y-95533515D01*
X57884975Y-96074515D02*
X57884975Y-94478515D01*
X56724975Y-98279515D02*
X56724975Y-95949515D01*
X57964975Y-99804515D02*
X57964975Y-98154515D01*
X59485975Y-100332515D02*
X59485975Y-98154515D01*
X57844975Y-99721515D02*
X57844975Y-98154515D01*
X58924975Y-100235515D02*
X58924975Y-98154515D01*
X57444975Y-99379515D02*
X57444975Y-94849515D01*
X58724975Y-96074515D02*
X58724975Y-94053515D01*
X57524975Y-99457515D02*
X57524975Y-98154515D01*
X57484975Y-96074515D02*
X57484975Y-94809515D01*
X59325975Y-100315515D02*
X59325975Y-98154515D01*
X58364975Y-96074515D02*
X58364975Y-94198515D01*
X57124975Y-99004515D02*
X57124975Y-95224515D01*
X57844975Y-96074515D02*
X57844975Y-94507515D01*
X56844975Y-98546515D02*
X56844975Y-95682515D01*
X59445975Y-96074515D02*
X59445975Y-93899515D01*
X57684975Y-96074515D02*
X57684975Y-94630515D01*
X59645975Y-100342515D02*
X59645975Y-93886515D01*
X59205975Y-96074515D02*
X59205975Y-93932515D01*
X58164975Y-99926515D02*
X58164975Y-98154515D01*
X56884975Y-98623515D02*
X56884975Y-95605515D01*
X58244975Y-99970515D02*
X58244975Y-98154515D01*
X58644975Y-96074515D02*
X58644975Y-94081515D01*
X59245975Y-96074515D02*
X59245975Y-93925515D01*
X58764975Y-100188515D02*
X58764975Y-98154515D01*
X58764975Y-96074515D02*
X58764975Y-94040515D01*
X58804975Y-100200515D02*
X58804975Y-98154515D01*
X58324975Y-96074515D02*
X58324975Y-94218515D01*
X59445975Y-100329515D02*
X59445975Y-98154515D01*
X58124975Y-96074515D02*
X58124975Y-94324515D01*
X63035975Y-97114515D02*
G75*
G03*
X63035975Y-97114515I-3270000J0D01*
G01*
%TO.C,C1*%
X81638000Y-86714000D02*
X74398000Y-86714000D01*
X74398000Y-86714000D02*
X74398000Y-83974000D01*
X81638000Y-83974000D02*
X74398000Y-83974000D01*
X81638000Y-86714000D02*
X81638000Y-83974000D01*
%TO.C,R4*%
X107780059Y-117806258D02*
X107090059Y-117806258D01*
X97850059Y-119526258D02*
X107090059Y-119526258D01*
X107090059Y-116086258D02*
X97850059Y-116086258D01*
X107090059Y-119526258D02*
X107090059Y-116086258D01*
X97850059Y-116086258D02*
X97850059Y-119526258D01*
X97160059Y-117806258D02*
X97850059Y-117806258D01*
%TO.C,D6*%
X87066000Y-112477500D02*
X87066000Y-109792500D01*
X85146000Y-112477500D02*
X87066000Y-112477500D01*
X85146000Y-109792500D02*
X85146000Y-112477500D01*
%TO.C,C7*%
X72990975Y-92541515D02*
X76980975Y-92541515D01*
X74045975Y-91981515D02*
X75925975Y-91981515D01*
X76025975Y-92821515D02*
X77290975Y-92821515D01*
X71938975Y-94021515D02*
X73945975Y-94021515D01*
X76025975Y-93101515D02*
X77533975Y-93101515D01*
X76025975Y-94662515D02*
X78186975Y-94662515D01*
X76025975Y-94021515D02*
X78032975Y-94021515D01*
X72501975Y-93021515D02*
X73945975Y-93021515D01*
X71763975Y-94862515D02*
X73945975Y-94862515D01*
X72535975Y-92981515D02*
X73945975Y-92981515D01*
X73209975Y-92381515D02*
X76761975Y-92381515D01*
X76025975Y-94422515D02*
X78144975Y-94422515D01*
X71779975Y-94702515D02*
X73945975Y-94702515D01*
X76025975Y-93901515D02*
X77987975Y-93901515D01*
X74352975Y-91901515D02*
X75618975Y-91901515D01*
X72349975Y-93221515D02*
X73945975Y-93221515D01*
X76025975Y-94341515D02*
X78126975Y-94341515D01*
X71810975Y-94502515D02*
X73945975Y-94502515D01*
X71796975Y-94582515D02*
X73945975Y-94582515D01*
X76025975Y-93701515D02*
X77901975Y-93701515D01*
X76025975Y-94782515D02*
X78200975Y-94782515D01*
X76025975Y-93741515D02*
X77919975Y-93741515D01*
X73476975Y-92221515D02*
X76494975Y-92221515D01*
X73820975Y-92061515D02*
X76150975Y-92061515D01*
X74183975Y-91941515D02*
X75787975Y-91941515D01*
X72803975Y-92701515D02*
X77167975Y-92701515D01*
X72173975Y-93501515D02*
X73945975Y-93501515D01*
X76025975Y-94502515D02*
X78160975Y-94502515D01*
X72893975Y-92621515D02*
X77077975Y-92621515D01*
X71924975Y-94061515D02*
X73945975Y-94061515D01*
X76025975Y-93661515D02*
X77881975Y-93661515D01*
X76025975Y-92981515D02*
X77435975Y-92981515D01*
X71755975Y-95022515D02*
X78215975Y-95022515D01*
X76025975Y-92901515D02*
X77365975Y-92901515D01*
X71864975Y-94261515D02*
X73945975Y-94261515D01*
X76025975Y-94822515D02*
X78203975Y-94822515D01*
X72129975Y-93581515D02*
X73945975Y-93581515D01*
X73404975Y-92261515D02*
X76566975Y-92261515D01*
X71761975Y-94902515D02*
X78209975Y-94902515D01*
X76025975Y-93021515D02*
X77469975Y-93021515D01*
X76025975Y-93541515D02*
X77819975Y-93541515D01*
X76025975Y-93501515D02*
X77797975Y-93501515D01*
X76025975Y-93181515D02*
X77592975Y-93181515D01*
X71899975Y-94141515D02*
X73945975Y-94141515D01*
X72089975Y-93661515D02*
X73945975Y-93661515D01*
X73146975Y-98602756D02*
X73146975Y-97972756D01*
X72378975Y-93181515D02*
X73945975Y-93181515D01*
X71967975Y-93941515D02*
X73945975Y-93941515D01*
X76025975Y-93461515D02*
X77775975Y-93461515D01*
X76025975Y-93341515D02*
X77701975Y-93341515D01*
X76025975Y-94141515D02*
X78071975Y-94141515D01*
X72680975Y-92821515D02*
X73945975Y-92821515D01*
X72848975Y-92661515D02*
X77122975Y-92661515D01*
X76025975Y-93581515D02*
X77841975Y-93581515D01*
X76025975Y-93421515D02*
X77751975Y-93421515D01*
X76025975Y-94462515D02*
X78152975Y-94462515D01*
X72605975Y-92901515D02*
X73945975Y-92901515D01*
X73271975Y-92341515D02*
X76699975Y-92341515D01*
X76025975Y-93941515D02*
X78003975Y-93941515D01*
X72321975Y-93261515D02*
X73945975Y-93261515D01*
X72033975Y-93781515D02*
X73945975Y-93781515D01*
X71983975Y-93901515D02*
X73945975Y-93901515D01*
X72051975Y-93741515D02*
X73945975Y-93741515D01*
X71770975Y-94782515D02*
X73945975Y-94782515D01*
X76025975Y-94582515D02*
X78174975Y-94582515D01*
X71784975Y-94662515D02*
X73945975Y-94662515D01*
X71826975Y-94422515D02*
X73945975Y-94422515D01*
X76025975Y-94221515D02*
X78095975Y-94221515D01*
X76025975Y-94061515D02*
X78046975Y-94061515D01*
X72069975Y-93701515D02*
X73945975Y-93701515D01*
X72151975Y-93541515D02*
X73945975Y-93541515D01*
X71767975Y-94822515D02*
X73945975Y-94822515D01*
X72243975Y-93381515D02*
X73945975Y-93381515D01*
X76025975Y-93621515D02*
X77861975Y-93621515D01*
X72109975Y-93621515D02*
X73945975Y-93621515D01*
X71911975Y-94101515D02*
X73945975Y-94101515D01*
X72469975Y-93061515D02*
X73945975Y-93061515D01*
X76025975Y-94261515D02*
X78106975Y-94261515D01*
X71755975Y-95102515D02*
X78215975Y-95102515D01*
X72831975Y-98287756D02*
X73461975Y-98287756D01*
X76025975Y-94381515D02*
X78135975Y-94381515D01*
X72761975Y-92741515D02*
X77209975Y-92741515D01*
X72642975Y-92861515D02*
X73945975Y-92861515D01*
X76025975Y-92861515D02*
X77328975Y-92861515D01*
X76025975Y-93061515D02*
X77501975Y-93061515D01*
X71835975Y-94381515D02*
X73945975Y-94381515D01*
X71790975Y-94622515D02*
X73945975Y-94622515D01*
X72269975Y-93341515D02*
X73945975Y-93341515D01*
X76025975Y-93821515D02*
X77955975Y-93821515D01*
X72219975Y-93421515D02*
X73945975Y-93421515D01*
X72569975Y-92941515D02*
X73945975Y-92941515D01*
X71803975Y-94542515D02*
X73945975Y-94542515D01*
X71887975Y-94181515D02*
X73945975Y-94181515D01*
X76025975Y-93861515D02*
X77971975Y-93861515D01*
X72015975Y-93821515D02*
X73945975Y-93821515D01*
X71758975Y-94942515D02*
X78212975Y-94942515D01*
X76025975Y-94862515D02*
X78207975Y-94862515D01*
X76025975Y-93221515D02*
X77621975Y-93221515D01*
X76025975Y-93981515D02*
X78018975Y-93981515D01*
X72407975Y-93141515D02*
X73945975Y-93141515D01*
X71854975Y-94301515D02*
X73945975Y-94301515D01*
X73723975Y-92101515D02*
X76247975Y-92101515D01*
X73926975Y-92021515D02*
X76044975Y-92021515D01*
X72941975Y-92581515D02*
X77029975Y-92581515D01*
X76025975Y-94702515D02*
X78191975Y-94702515D01*
X72720975Y-92781515D02*
X77250975Y-92781515D01*
X76025975Y-94742515D02*
X78196975Y-94742515D01*
X71757975Y-94982515D02*
X78213975Y-94982515D01*
X76025975Y-94622515D02*
X78180975Y-94622515D01*
X76025975Y-93261515D02*
X77649975Y-93261515D01*
X74583975Y-91861515D02*
X75387975Y-91861515D01*
X76025975Y-94542515D02*
X78167975Y-94542515D01*
X76025975Y-93381515D02*
X77727975Y-93381515D01*
X71755975Y-95062515D02*
X78215975Y-95062515D01*
X76025975Y-94181515D02*
X78083975Y-94181515D01*
X73041975Y-92501515D02*
X76929975Y-92501515D01*
X72195975Y-93461515D02*
X73945975Y-93461515D01*
X71844975Y-94341515D02*
X73945975Y-94341515D01*
X76025975Y-93141515D02*
X77563975Y-93141515D01*
X76025975Y-94101515D02*
X78059975Y-94101515D01*
X76025975Y-93301515D02*
X77675975Y-93301515D01*
X72437975Y-93101515D02*
X73945975Y-93101515D01*
X76025975Y-94301515D02*
X78116975Y-94301515D01*
X76025975Y-92941515D02*
X77401975Y-92941515D01*
X71875975Y-94221515D02*
X73945975Y-94221515D01*
X71818975Y-94462515D02*
X73945975Y-94462515D01*
X71774975Y-94742515D02*
X73945975Y-94742515D01*
X73553975Y-92181515D02*
X76417975Y-92181515D01*
X71952975Y-93981515D02*
X73945975Y-93981515D01*
X73151975Y-92421515D02*
X76819975Y-92421515D01*
X73335975Y-92301515D02*
X76635975Y-92301515D01*
X76025975Y-93781515D02*
X77937975Y-93781515D01*
X71999975Y-93861515D02*
X73945975Y-93861515D01*
X73095975Y-92461515D02*
X76875975Y-92461515D01*
X72295975Y-93301515D02*
X73945975Y-93301515D01*
X73635975Y-92141515D02*
X76335975Y-92141515D01*
X78255975Y-95102515D02*
G75*
G03*
X78255975Y-95102515I-3270000J0D01*
G01*
%TO.C,U3*%
X76762000Y-76612000D02*
X76762000Y-71312000D01*
X66482000Y-71312000D02*
X66482000Y-72962000D01*
X76762000Y-71312000D02*
X66482000Y-71312000D01*
X66482000Y-74962000D02*
X66482000Y-76612000D01*
X66482000Y-76612000D02*
X76762000Y-76612000D01*
X66482000Y-74962000D02*
G75*
G03*
X66482000Y-72962000I0J1000000D01*
G01*
%TO.C,R1*%
X107090059Y-111768258D02*
X97850059Y-111768258D01*
X107780059Y-113488258D02*
X107090059Y-113488258D01*
X97160059Y-113488258D02*
X97850059Y-113488258D01*
X107090059Y-115208258D02*
X107090059Y-111768258D01*
X97850059Y-115208258D02*
X107090059Y-115208258D01*
X97850059Y-111768258D02*
X97850059Y-115208258D01*
%TD*%
M02*
