ISO-10303-21;
HEADER;
FILE_DESCRIPTION (( 'STEP AP214' ),
    '1' );
FILE_NAME ('SA58A.STEP',
    '2025-04-24T13:34:51',
    ( '' ),
    ( '' ),
    'SwSTEP 2.0',
    'SolidWorks 2024',
    '' );
FILE_SCHEMA (( 'AUTOMOTIVE_DESIGN' ));
ENDSEC;

DATA;
#1 = CIRCLE ( 'NONE', #347, 0.05500000000000001416 ) ;
#2 =( GEOMETRIC_REPRESENTATION_CONTEXT ( 3 ) GLOBAL_UNCERTAINTY_ASSIGNED_CONTEXT ( ( #717 ) ) GLOBAL_UNIT_ASSIGNED_CONTEXT ( ( #499, #371, #426 ) ) REPRESENTATION_CONTEXT ( 'NONE', 'WORKASPACE' ) );
#3 =( GEOMETRIC_REPRESENTATION_CONTEXT ( 3 ) GLOBAL_UNCERTAINTY_ASSIGNED_CONTEXT ( ( #231 ) ) GLOBAL_UNIT_ASSIGNED_CONTEXT ( ( #23, #695, #272 ) ) REPRESENTATION_CONTEXT ( 'NONE', 'WORKASPACE' ) );
#4 = EDGE_CURVE ( 'NONE', #713, #98, #44, .T. ) ;
#5 =( NAMED_UNIT ( * ) SI_UNIT ( $, .STERADIAN. ) SOLID_ANGLE_UNIT ( ) );
#6 = VECTOR ( 'NONE', #305, 39.37007874015748143 ) ;
#7 = EDGE_CURVE ( 'NONE', #455, #206, #430, .T. ) ;
#8 = DIRECTION ( 'NONE',  ( 1.000000000000000000, 0.000000000000000000, 0.000000000000000000 ) ) ;
#9 = EDGE_CURVE ( 'NONE', #229, #78, #142, .T. ) ;
#10 =( CONVERSION_BASED_UNIT ( 'INCH', #552 ) LENGTH_UNIT ( ) NAMED_UNIT ( #182 ) );
#11 = AXIS2_PLACEMENT_3D ( 'NONE', #34, #568, #275 ) ;
#12 = CARTESIAN_POINT ( 'NONE',  ( -0.07749999999999999944, 0.07000000000000000666, 0.000000000000000000 ) ) ;
#13 = AXIS2_PLACEMENT_3D ( 'NONE', #629, #77, #534 ) ;
#14 = SHAPE_REPRESENTATION_RELATIONSHIP ( 'NONE' , 'NONE' ,  #365, #420 ) ;
#15 = CLOSED_SHELL ( 'NONE', ( #193, #463, #179, #751, #326, #312 ) ) ;
#16 = PRODUCT_DEFINITION_CONTEXT ( 'detailed design', #600, 'design' ) ;
#17 = ORIENTED_EDGE ( 'NONE', *, *, #783, .T. ) ;
#18 = CARTESIAN_POINT ( 'NONE',  ( -0.1324999999999999789, 0.1250000000000000278, 6.735557395310443903E-18 ) ) ;
#19 =( CONVERSION_BASED_UNIT ( 'INCH', #216 ) LENGTH_UNIT ( ) NAMED_UNIT ( #556 ) );
#20 = ORIENTED_EDGE ( 'NONE', *, *, #65, .F. ) ;
#21 = LINE ( 'NONE', #681, #186 ) ;
#22 = CARTESIAN_POINT ( 'NONE',  ( 0.1325000000000000899, 4.268512490100411279E-17, 0.000000000000000000 ) ) ;
#23 =( CONVERSION_BASED_UNIT ( 'INCH', #446 ) LENGTH_UNIT ( ) NAMED_UNIT ( #421 ) );
#24 = VERTEX_POINT ( 'NONE', #449 ) ;
#25 = CARTESIAN_POINT ( 'NONE',  ( -0.1074999999999999845, 0.07000000000000000666, 0.000000000000000000 ) ) ;
#26 = CARTESIAN_POINT ( 'NONE',  ( -0.07749999999999999944, 0.07000000000000000666, 0.000000000000000000 ) ) ;
#27 = EDGE_CURVE ( 'NONE', #471, #150, #364, .T. ) ;
#28 = ORIENTED_EDGE ( 'NONE', *, *, #294, .T. ) ;
#29 = CYLINDRICAL_SURFACE ( 'NONE', #353, 0.05500000000000001416 ) ;
#30 = CARTESIAN_POINT ( 'NONE',  ( -0.01438976377952752225, 0.07000000000000002054, 0.000000000000000000 ) ) ;
#31 = DIRECTION ( 'NONE',  ( -6.559443634590607961E-32, 6.559443634590682405E-32, 1.000000000000000000 ) ) ;
#32 = EDGE_CURVE ( 'NONE', #651, #329, #438, .T. ) ;
#33 = VERTEX_POINT ( 'NONE', #620 ) ;
#34 = CARTESIAN_POINT ( 'NONE',  ( -0.1324999999999999789, 0.07000000000000000666, 0.000000000000000000 ) ) ;
#35 = CYLINDRICAL_SURFACE ( 'NONE', #236, 0.05500000000000001416 ) ;
#36 = ORIENTED_EDGE ( 'NONE', *, *, #461, .F. ) ;
#37 = CYLINDRICAL_SURFACE ( 'NONE', #327, 0.06999999999999999278 ) ;
#38 = AXIS2_PLACEMENT_3D ( 'NONE', #121, #372, #492 ) ;
#39 = DIRECTION ( 'NONE',  ( -1.094490382077028922E-16, 1.000000000000000000, -0.000000000000000000 ) ) ;
#40 = AXIS2_PLACEMENT_3D ( 'NONE', #83, #333, #89 ) ;
#41 = ORIENTED_EDGE ( 'NONE', *, *, #577, .F. ) ;
#42 = CYLINDRICAL_SURFACE ( 'NONE', #665, 0.01550000000000001203 ) ;
#43 = ORIENTED_EDGE ( 'NONE', *, *, #512, .T. ) ;
#44 = CIRCLE ( 'NONE', #769, 0.06999999999999999278 ) ;
#45 = UNCERTAINTY_MEASURE_WITH_UNIT (LENGTH_MEASURE( 1.000000000000000082E-05 ), #724, 'distance_accuracy_value', 'NONE');
#46 = CARTESIAN_POINT ( 'NONE',  ( -0.1074999999999999567, 8.537024980200822558E-18, 0.000000000000000000 ) ) ;
#47 = LINE ( 'NONE', #710, #156 ) ;
#48 = EDGE_CURVE ( 'NONE', #78, #229, #221, .T. ) ;
#49 = CARTESIAN_POINT ( 'NONE',  ( -0.2179999999999992499, 0.08549999999999900735, 1.898202538678307757E-18 ) ) ;
#50 =( NAMED_UNIT ( * ) PLANE_ANGLE_UNIT ( ) SI_UNIT ( $, .RADIAN. ) );
#51 = DIRECTION ( 'NONE',  ( 2.439149994343092652E-16, -1.000000000000000000, 0.000000000000000000 ) ) ;
#52 = AXIS2_PLACEMENT_3D ( 'NONE', #81, #576, #213 ) ;
#53 = ORIENTED_EDGE ( 'NONE', *, *, #504, .F. ) ;
#54 = DIRECTION ( 'NONE',  ( -1.542172254487891024E-14, -1.000000000000000000, -6.123233995736764803E-17 ) ) ;
#55 = EDGE_CURVE ( 'NONE', #653, #24, #21, .T. ) ;
#56 = DIRECTION ( 'NONE',  ( -6.559443634590607961E-32, 6.559443634590682405E-32, 1.000000000000000000 ) ) ;
#57 = LINE ( 'NONE', #734, #6 ) ;
#58 = SURFACE_SIDE_STYLE ('',( #610 ) ) ;
#59 = EDGE_CURVE ( 'NONE', #133, #229, #503, .T. ) ;
#60 = CIRCLE ( 'NONE', #545, 0.01550000000000001203 ) ;
#61 = DIRECTION ( 'NONE',  ( 1.384615472433624979E-16, -1.000000000000000000, 0.000000000000000000 ) ) ;
#62 = ADVANCED_FACE ( 'NONE', ( #634 ), #749, .T. ) ;
#63 = APPLICATION_PROTOCOL_DEFINITION ( 'draft international standard', 'automotive_design', 1998, #721 ) ;
#64 = CIRCLE ( 'NONE', #728, 0.06999999999999999278 ) ;
#65 = EDGE_CURVE ( 'NONE', #596, #581, #76, .T. ) ;
#66 = APPLICATION_PROTOCOL_DEFINITION ( 'draft international standard', 'automotive_design', 1998, #257 ) ;
#67 = DIRECTION ( 'NONE',  ( 1.000000000000000000, 1.288607544181256203E-16, 0.000000000000000000 ) ) ;
#68 = ORIENTED_EDGE ( 'NONE', *, *, #87, .F. ) ;
#69 = DIRECTION ( 'NONE',  ( 0.000000000000000000, -1.000000000000000000, 0.000000000000000000 ) ) ;
#70 = AXIS2_PLACEMENT_3D ( 'NONE', #106, #220, #419 ) ;
#71 = APPLICATION_PROTOCOL_DEFINITION ( 'draft international standard', 'automotive_design', 1998, #417 ) ;
#72 = VECTOR ( 'NONE', #198, 39.37007874015748143 ) ;
#73 = CARTESIAN_POINT ( 'NONE',  ( -0.2520000000000000018, 0.03599999999999987932, 0.000000000000000000 ) ) ;
#74 = ORIENTED_EDGE ( 'NONE', *, *, #7, .T. ) ;
#75 = DIRECTION ( 'NONE',  ( 0.000000000000000000, -1.000000000000000000, 0.000000000000000000 ) ) ;
#76 = CIRCLE ( 'NONE', #548, 0.01550000000000001203 ) ;
#77 = DIRECTION ( 'NONE',  ( -1.000000000000000000, -9.984824538246602689E-17, 0.000000000000000000 ) ) ;
#78 = VERTEX_POINT ( 'NONE', #741 ) ;
#79 = CARTESIAN_POINT ( 'NONE',  ( -0.2520000000000000018, 0.03599999999999987932, 0.000000000000000000 ) ) ;
#80 = EDGE_CURVE ( 'NONE', #471, #160, #747, .T. ) ;
#81 = CARTESIAN_POINT ( 'NONE',  ( -0.1324999999999999789, 0.07000000000000000666, 0.000000000000000000 ) ) ;
#82 = EDGE_LOOP ( 'NONE', ( #529, #707, #757, #520 ) ) ;
#83 = CARTESIAN_POINT ( 'NONE',  ( -0.1074999999999999845, 0.07000000000000000666, 0.000000000000000000 ) ) ;
#84 = ORIENTED_EDGE ( 'NONE', *, *, #696, .T. ) ;
#85 = CARTESIAN_POINT ( 'NONE',  ( -0.01438976377952752572, 0.08550000000000002043, 1.898202538678397890E-18 ) ) ;
#86 = AXIS2_PLACEMENT_3D ( 'NONE', #607, #56, #346 ) ;
#87 = EDGE_CURVE ( 'NONE', #144, #383, #442, .T. ) ;
#88 = MANIFOLD_SOLID_BREP ( 'Sweep1', #291 ) ;
#89 = DIRECTION ( 'NONE',  ( 0.000000000000000000, -1.000000000000000000, 0.000000000000000000 ) ) ;
#90 = ORIENTED_EDGE ( 'NONE', *, *, #65, .T. ) ;
#91 = CARTESIAN_POINT ( 'NONE',  ( -0.2674999999999999045, -0.8999999999999996891, 1.898202538678399046E-18 ) ) ;
#92 = PRODUCT ( 'P6KE10_3_1', 'P6KE10_3_1', '', ( #384 ) ) ;
#93 = CARTESIAN_POINT ( 'NONE',  ( -0.07749999999999999944, 0.01500000000000000291, 0.000000000000000000 ) ) ;
#94 = DIRECTION ( 'NONE',  ( 1.000000000000000000, 1.288607544181256449E-16, 0.000000000000000000 ) ) ;
#95 = ORIENTED_EDGE ( 'NONE', *, *, #679, .T. ) ;
#96 = CARTESIAN_POINT ( 'NONE',  ( -0.07749999999999999944, 0.07000000000000000666, 0.000000000000000000 ) ) ;
#97 = CARTESIAN_POINT ( 'NONE',  ( -0.07749999999999999944, 0.07000000000000000666, 0.000000000000000000 ) ) ;
#98 = VERTEX_POINT ( 'NONE', #582 ) ;
#99 = CARTESIAN_POINT ( 'NONE',  ( -0.1074999999999999845, 0.07000000000000000666, 0.000000000000000000 ) ) ;
#100 = ORIENTED_EDGE ( 'NONE', *, *, #397, .F. ) ;
#101 = PRODUCT_DEFINITION_SHAPE ( 'NONE', 'NONE',  #791 ) ;
#102 = DIRECTION ( 'NONE',  ( 1.376939512935616176E-16, -1.000000000000000000, 0.000000000000000000 ) ) ;
#103 = AXIS2_PLACEMENT_3D ( 'NONE', #188, #429, #490 ) ;
#104 = CYLINDRICAL_SURFACE ( 'NONE', #591, 0.07000000000000000666 ) ;
#105 = AXIS2_PLACEMENT_3D ( 'NONE', #117, #359, #766 ) ;
#106 = CARTESIAN_POINT ( 'NONE',  ( -0.1324999999999999789, 0.07000000000000000666, 0.000000000000000000 ) ) ;
#107 = VERTEX_POINT ( 'NONE', #390 ) ;
#108 = EDGE_CURVE ( 'NONE', #107, #505, #703, .T. ) ;
#109 =( CONVERSION_BASED_UNIT ( 'INCH', #235 ) LENGTH_UNIT ( ) NAMED_UNIT ( #488 ) );
#110 = PRODUCT_DEFINITION_CONTEXT ( 'detailed design', #754, 'design' ) ;
#111 = AXIS2_PLACEMENT_3D ( 'NONE', #331, #203, #339 ) ;
#112 = CARTESIAN_POINT ( 'NONE',  ( -0.1324999999999999789, 0.05449999999999999983, 0.000000000000000000 ) ) ;
#113 = AXIS2_PLACEMENT_3D ( 'NONE', #666, #544, #54 ) ;
#114 = CARTESIAN_POINT ( 'NONE',  ( -0.07749999999999999944, 0.07000000000000000666, 0.000000000000000000 ) ) ;
#115 = EDGE_LOOP ( 'NONE', ( #17, #292, #748, #715 ) ) ;
#116 = LENGTH_MEASURE_WITH_UNIT ( LENGTH_MEASURE( 0.02539999999999999897 ), #613 );
#117 = CARTESIAN_POINT ( 'NONE',  ( -0.1324999999999999789, 0.1400000000000000133, 0.000000000000000000 ) ) ;
#118 = LINE ( 'NONE', #664, #782 ) ;
#119 = EDGE_CURVE ( 'NONE', #206, #455, #496, .T. ) ;
#120 = DIRECTION ( 'NONE',  ( 1.000000000000000000, 1.384615472433624979E-16, 0.000000000000000000 ) ) ;
#121 = CARTESIAN_POINT ( 'NONE',  ( 0.000000000000000000, 0.000000000000000000, 0.000000000000000000 ) ) ;
#122 = SHAPE_REPRESENTATION ( 'P6KE10_1_1', ( #370 ), #574 ) ;
#123 = LENGTH_MEASURE_WITH_UNIT ( LENGTH_MEASURE( 0.02539999999999999897 ), #745 );
#124 = FILL_AREA_STYLE_COLOUR ( '', #130 ) ;
#125 = PRODUCT_CONTEXT ( 'NONE', #478, 'mechanical' ) ;
#126 = CIRCLE ( 'NONE', #369, 0.07000000000000000666 ) ;
#127 = PRODUCT_DEFINITION ( 'UNKNOWN', '', #361, #132 ) ;
#128 = ORIENTED_EDGE ( 'NONE', *, *, #433, .F. ) ;
#129 = DIRECTION ( 'NONE',  ( 2.439149994343092652E-16, -1.000000000000000000, 0.000000000000000000 ) ) ;
#130 = COLOUR_RGB ( '',0.2509803921568627416, 0.2509803921568627416, 0.2509803921568627416 ) ;
#131 = EDGE_LOOP ( 'NONE', ( #36, #692 ) ) ;
#132 = PRODUCT_DEFINITION_CONTEXT ( 'detailed design', #257, 'design' ) ;
#133 = VERTEX_POINT ( 'NONE', #223 ) ;
#134 = DIRECTION ( 'NONE',  ( 2.439149994343092652E-16, -1.000000000000000000, 0.000000000000000000 ) ) ;
#135 = SHAPE_DEFINITION_REPRESENTATION ( #586, #612 ) ;
#136 = DIRECTION ( 'NONE',  ( -1.000000000000000000, -1.288607544181256449E-16, -0.000000000000000000 ) ) ;
#137 = ORIENTED_EDGE ( 'NONE', *, *, #368, .T. ) ;
#138 = SURFACE_STYLE_FILL_AREA ( #684 ) ;
#139 = FACE_OUTER_BOUND ( 'NONE', #344, .T. ) ;
#140 = AXIS2_PLACEMENT_3D ( 'NONE', #73, #149, #200 ) ;
#141 = ORIENTED_EDGE ( 'NONE', *, *, #4, .T. ) ;
#142 = CIRCLE ( 'NONE', #263, 0.05500000000000001416 ) ;
#143 = ADVANCED_FACE ( 'NONE', ( #564 ), #29, .T. ) ;
#144 = VERTEX_POINT ( 'NONE', #85 ) ;
#145 = DIRECTION ( 'NONE',  ( -1.000000000000000000, -1.288607544181256449E-16, -0.000000000000000000 ) ) ;
#146 = EDGE_CURVE ( 'NONE', #329, #386, #735, .T. ) ;
#147 = DIRECTION ( 'NONE',  ( 0.000000000000000000, -1.000000000000000000, 0.000000000000000000 ) ) ;
#148 = DIRECTION ( 'NONE',  ( 0.000000000000000000, -1.000000000000000000, 6.462273882831316674E-32 ) ) ;
#149 = DIRECTION ( 'NONE',  ( 1.094490382077028922E-16, -1.000000000000000000, 0.000000000000000000 ) ) ;
#150 = VERTEX_POINT ( 'NONE', #22 ) ;
#151 = DIRECTION ( 'NONE',  ( -1.094490382077028922E-16, 1.000000000000000000, -0.000000000000000000 ) ) ;
#152 = AXIS2_PLACEMENT_3D ( 'NONE', #531, #778, #102 ) ;
#153 = CARTESIAN_POINT ( 'NONE',  ( -0.2364999999999998770, -0.8999999999999996891, 0.000000000000000000 ) ) ;
#154 = ORIENTED_EDGE ( 'NONE', *, *, #606, .F. ) ;
#155 = DIRECTION ( 'NONE',  ( 2.439149994343092159E-16, -1.000000000000000000, 0.000000000000000000 ) ) ;
#156 = VECTOR ( 'NONE', #161, 39.37007874015748143 ) ;
#157 = CARTESIAN_POINT ( 'NONE',  ( -0.1324999999999999789, 0.1400000000000000133, 8.572527594031471957E-18 ) ) ;
#158 = EDGE_LOOP ( 'NONE', ( #195, #753, #655, #388 ) ) ;
#159 = FACE_BOUND ( 'NONE', #689, .T. ) ;
#160 = VERTEX_POINT ( 'NONE', #524 ) ;
#161 = DIRECTION ( 'NONE',  ( 1.094490382077028922E-16, -1.000000000000000000, 0.000000000000000000 ) ) ;
#162 = CARTESIAN_POINT ( 'NONE',  ( 0.1325000000000000622, 0.1400000000000000411, 8.572527594031473498E-18 ) ) ;
#163 = EDGE_LOOP ( 'NONE', ( #266, #645, #767, #527 ) ) ;
#164 = DIRECTION ( 'NONE',  ( 1.376939512935616176E-16, -1.000000000000000000, 0.000000000000000000 ) ) ;
#165 = ORIENTED_EDGE ( 'NONE', *, *, #762, .F. ) ;
#166 = PRESENTATION_STYLE_ASSIGNMENT (( #727 ) ) ;
#167 = VECTOR ( 'NONE', #169, 39.37007874015748143 ) ;
#168 = PRODUCT_DEFINITION_FORMATION_WITH_SPECIFIED_SOURCE ( 'ANY', '', #174, .NOT_KNOWN. ) ;
#169 = DIRECTION ( 'NONE',  ( -1.000000000000000000, -1.288607544181256449E-16, -0.000000000000000000 ) ) ;
#170 = EDGE_CURVE ( 'NONE', #653, #107, #693, .T. ) ;
#171 = EDGE_CURVE ( 'NONE', #405, #133, #675, .T. ) ;
#172 = APPLICATION_CONTEXT ( 'automotive_design' ) ;
#173 = VERTEX_POINT ( 'NONE', #91 ) ;
#174 = PRODUCT ( 'SA58A', 'SA58A', '', ( #258 ) ) ;
#175 = PLANE ( 'NONE',  #618 ) ;
#176 = FACE_OUTER_BOUND ( 'NONE', #163, .T. ) ;
#177 = AXIS2_PLACEMENT_3D ( 'NONE', #425, #302, #731 ) ;
#178 = ADVANCED_FACE ( 'NONE', ( #336 ), #768, .T. ) ;
#179 = ADVANCED_FACE ( 'NONE', ( #467 ), #750, .T. ) ;
#180 = CARTESIAN_POINT ( 'NONE',  ( -0.2519999999999998908, -0.8999999999999996891, 0.000000000000000000 ) ) ;
#181 = DIRECTION ( 'NONE',  ( 0.000000000000000000, 0.000000000000000000, 1.000000000000000000 ) ) ;
#182 = DIMENSIONAL_EXPONENTS ( 1.000000000000000000, 0.000000000000000000, 0.000000000000000000, 0.000000000000000000, 0.000000000000000000, 0.000000000000000000, 0.000000000000000000 ) ;
#183 = LINE ( 'NONE', #495, #280 ) ;
#184 = LENGTH_MEASURE_WITH_UNIT ( LENGTH_MEASURE( 0.02539999999999999897 ), #614 );
#185 = VECTOR ( 'NONE', #481, 39.37007874015748143 ) ;
#186 = VECTOR ( 'NONE', #554, 39.37007874015748143 ) ;
#187 = PRESENTATION_LAYER_ASSIGNMENT (  '', '', ( #225 ) ) ;
#188 = CARTESIAN_POINT ( 'NONE',  ( 0.000000000000000000, 0.000000000000000000, 0.000000000000000000 ) ) ;
#189 = CARTESIAN_POINT ( 'NONE',  ( 0.000000000000000000, 0.000000000000000000, 0.000000000000000000 ) ) ;
#190 = ADVANCED_FACE ( 'NONE', ( #402 ), #650, .T. ) ;
#191 = ORIENTED_EDGE ( 'NONE', *, *, #239, .F. ) ;
#192 = DIRECTION ( 'NONE',  ( -1.000000000000000000, -1.288607544181256449E-16, -0.000000000000000000 ) ) ;
#193 = ADVANCED_FACE ( 'NONE', ( #759 ), #37, .T. ) ;
#194 = DIRECTION ( 'NONE',  ( -1.000000000000000000, -1.288607544181256203E-16, -0.000000000000000000 ) ) ;
#195 = ORIENTED_EDGE ( 'NONE', *, *, #239, .T. ) ;
#196 = PRODUCT_DEFINITION_CONTEXT ( 'detailed design', #172, 'design' ) ;
#197 = EDGE_LOOP ( 'NONE', ( #460, #201 ) ) ;
#198 = DIRECTION ( 'NONE',  ( -1.000000000000000000, -1.288607544181256203E-16, -0.000000000000000000 ) ) ;
#199 = ITEM_DEFINED_TRANSFORMATION ( 'NONE', 'NONE', #103,  #370 ) ;
#200 = DIRECTION ( 'NONE',  ( 1.000000000000000000, 0.000000000000000000, 0.000000000000000000 ) ) ;
#201 = ORIENTED_EDGE ( 'NONE', *, *, #253, .F. ) ;
#202 =( GEOMETRIC_REPRESENTATION_CONTEXT ( 3 ) GLOBAL_UNCERTAINTY_ASSIGNED_CONTEXT ( ( #411 ) ) GLOBAL_UNIT_ASSIGNED_CONTEXT ( ( #674, #611, #5 ) ) REPRESENTATION_CONTEXT ( 'NONE', 'WORKASPACE' ) );
#203 = DIRECTION ( 'NONE',  ( 1.000000000000000000, 1.288607544181256449E-16, 0.000000000000000000 ) ) ;
#204 = CIRCLE ( 'NONE', #765, 0.07000000000000000666 ) ;
#205 =( LENGTH_UNIT ( ) NAMED_UNIT ( * ) SI_UNIT ( $, .METRE. ) );
#206 = VERTEX_POINT ( 'NONE', #462 ) ;
#207 = EDGE_CURVE ( 'NONE', #173, #448, #260, .T. ) ;
#208 = CARTESIAN_POINT ( 'NONE',  ( -0.2519999999999998908, -0.8999999999999996891, 0.000000000000000000 ) ) ;
#209 = AXIS2_PLACEMENT_3D ( 'NONE', #608, #491, #250 ) ;
#210 = DIRECTION ( 'NONE',  ( 1.000000000000000000, 0.000000000000000000, 0.000000000000000000 ) ) ;
#211 = ORIENTED_EDGE ( 'NONE', *, *, #27, .T. ) ;
#212 = ORIENTED_EDGE ( 'NONE', *, *, #504, .T. ) ;
#213 = DIRECTION ( 'NONE',  ( 2.439149994343092652E-16, -1.000000000000000000, 0.000000000000000000 ) ) ;
#214 = PRODUCT_DEFINITION_SHAPE ( 'NONE', 'NONE',  #127 ) ;
#215 = FACE_OUTER_BOUND ( 'NONE', #575, .T. ) ;
#216 = LENGTH_MEASURE_WITH_UNIT ( LENGTH_MEASURE( 0.02539999999999999897 ), #632 );
#217 = ORIENTED_EDGE ( 'NONE', *, *, #80, .F. ) ;
#218 = DIRECTION ( 'NONE',  ( 0.000000000000000000, -1.000000000000000000, 0.000000000000000000 ) ) ;
#219 = FACE_OUTER_BOUND ( 'NONE', #131, .T. ) ;
#220 = DIRECTION ( 'NONE',  ( -1.000000000000000000, -1.288607544181256203E-16, -0.000000000000000000 ) ) ;
#221 = CIRCLE ( 'NONE', #525, 0.05500000000000001416 ) ;
#222 = EDGE_LOOP ( 'NONE', ( #217, #211, #28, #649 ) ) ;
#223 = CARTESIAN_POINT ( 'NONE',  ( -0.07749999999999999944, 0.1250000000000000278, 6.735557395310443132E-18 ) ) ;
#224 = PRODUCT_DEFINITION_SHAPE ( 'NONE', 'NONE',  #790 ) ;
#225 = STYLED_ITEM ( 'NONE', ( #510 ), #88 ) ;
#226 = LINE ( 'NONE', #112, #720 ) ;
#227 = ORIENTED_EDGE ( 'NONE', *, *, #87, .T. ) ;
#228 = FACE_OUTER_BOUND ( 'NONE', #539, .T. ) ;
#229 = VERTEX_POINT ( 'NONE', #472 ) ;
#230 = CARTESIAN_POINT ( 'NONE',  ( -0.1325000000000000067, 0.1400000000000000133, 8.572527594031471957E-18 ) ) ;
#231 = UNCERTAINTY_MEASURE_WITH_UNIT (LENGTH_MEASURE( 1.000000000000000082E-05 ), #23, 'distance_accuracy_value', 'NONE');
#232 = ADVANCED_FACE ( 'NONE', ( #139 ), #697, .T. ) ;
#233 = DIRECTION ( 'NONE',  ( 1.288607544181256203E-16, -1.000000000000000000, 0.000000000000000000 ) ) ;
#234 = CARTESIAN_POINT ( 'NONE',  ( -0.1324999999999999512, 0.000000000000000000, 0.000000000000000000 ) ) ;
#235 = LENGTH_MEASURE_WITH_UNIT ( LENGTH_MEASURE( 0.02539999999999999897 ), #422 );
#236 = AXIS2_PLACEMENT_3D ( 'NONE', #772, #473, #712 ) ;
#237 = AXIS2_PLACEMENT_3D ( 'NONE', #255, #181, #363 ) ;
#238 = CARTESIAN_POINT ( 'NONE',  ( -0.2675000000000000155, 0.03599999999999987932, 1.898202538678407520E-18 ) ) ;
#239 = EDGE_CURVE ( 'NONE', #150, #471, #502, .T. ) ;
#240 = DIRECTION ( 'NONE',  ( -1.000000000000000000, -1.288607544181256203E-16, 0.000000000000000000 ) ) ;
#241 = CYLINDRICAL_SURFACE ( 'NONE', #740, 0.05500000000000001416 ) ;
#242 = ORIENTED_EDGE ( 'NONE', *, *, #398, .T. ) ;
#243 = PRODUCT ( 'P6KE10_4', 'P6KE10_4', '', ( #125 ) ) ;
#244 = DIRECTION ( 'NONE',  ( 1.000000000000000000, 1.288607544181256203E-16, 0.000000000000000000 ) ) ;
#245 = PRODUCT_CONTEXT ( 'NONE', #547, 'mechanical' ) ;
#246 = CIRCLE ( 'NONE', #177, 0.05500000000000001416 ) ;
#247 = DIMENSIONAL_EXPONENTS ( 1.000000000000000000, 0.000000000000000000, 0.000000000000000000, 0.000000000000000000, 0.000000000000000000, 0.000000000000000000, 0.000000000000000000 ) ;
#248 = CARTESIAN_POINT ( 'NONE',  ( 0.1325000000000000344, 0.1400000000000000411, 0.000000000000000000 ) ) ;
#249 = DIRECTION ( 'NONE',  ( 1.000000000000000000, 0.000000000000000000, 0.000000000000000000 ) ) ;
#250 = DIRECTION ( 'NONE',  ( 2.439149994343092159E-16, -1.000000000000000000, 0.000000000000000000 ) ) ;
#251 = CIRCLE ( 'NONE', #456, 0.05500000000000001416 ) ;
#252 = AXIS2_PLACEMENT_3D ( 'NONE', #714, #240, #164 ) ;
#253 = EDGE_CURVE ( 'NONE', #144, #33, #395, .T. ) ;
#254 =( GEOMETRIC_REPRESENTATION_CONTEXT ( 3 ) GLOBAL_UNCERTAINTY_ASSIGNED_CONTEXT ( ( #297 ) ) GLOBAL_UNIT_ASSIGNED_CONTEXT ( ( #10, #325, #396 ) ) REPRESENTATION_CONTEXT ( 'NONE', 'WORKASPACE' ) );
#255 = CARTESIAN_POINT ( 'NONE',  ( -0.1181102362204724532, 0.000000000000000000, 0.000000000000000000 ) ) ;
#256 = MECHANICAL_DESIGN_GEOMETRIC_PRESENTATION_REPRESENTATION (  '', ( #374 ), #694 ) ;
#257 = APPLICATION_CONTEXT ( 'automotive_design' ) ;
#258 = PRODUCT_CONTEXT ( 'NONE', #721, 'mechanical' ) ;
#259 = EDGE_CURVE ( 'NONE', #160, #394, #482, .T. ) ;
#260 = CIRCLE ( 'NONE', #779, 0.01550000000000001203 ) ;
#261 = EDGE_LOOP ( 'NONE', ( #269, #43, #685, #625 ) ) ;
#262 = DIRECTION ( 'NONE',  ( -1.000000000000000000, -1.288607544181256203E-16, -0.000000000000000000 ) ) ;
#263 = AXIS2_PLACEMENT_3D ( 'NONE', #622, #560, #75 ) ;
#264 = ITEM_DEFINED_TRANSFORMATION ( 'NONE', 'NONE', #38,  #370 ) ;
#265 = ORIENTED_EDGE ( 'NONE', *, *, #762, .T. ) ;
#266 = ORIENTED_EDGE ( 'NONE', *, *, #461, .T. ) ;
#267 = DIRECTION ( 'NONE',  ( 1.094490382077028922E-16, -1.000000000000000000, 0.000000000000000000 ) ) ;
#268 = EDGE_LOOP ( 'NONE', ( #100, #660 ) ) ;
#269 = ORIENTED_EDGE ( 'NONE', *, *, #108, .F. ) ;
#270 = CARTESIAN_POINT ( 'NONE',  ( -0.1324999999999999789, 0.08550000000000002043, 1.898202538678397890E-18 ) ) ;
#271 = CARTESIAN_POINT ( 'NONE',  ( -0.1324999999999999789, 0.07000000000000000666, 0.000000000000000000 ) ) ;
#272 =( NAMED_UNIT ( * ) SI_UNIT ( $, .STERADIAN. ) SOLID_ANGLE_UNIT ( ) );
#273 = ORIENTED_EDGE ( 'NONE', *, *, #7, .F. ) ;
#274 =( LENGTH_UNIT ( ) NAMED_UNIT ( * ) SI_UNIT ( $, .METRE. ) );
#275 = DIRECTION ( 'NONE',  ( 2.439149994343092652E-16, -1.000000000000000000, 0.000000000000000000 ) ) ;
#276 = PRODUCT_RELATED_PRODUCT_CATEGORY ( 'part', '', ( #243 ) ) ;
#277 = ORIENTED_EDGE ( 'NONE', *, *, #27, .F. ) ;
#278 = ADVANCED_BREP_SHAPE_REPRESENTATION ( '', ( #354, #370 ), #574 ) ;
#279 = CARTESIAN_POINT ( 'NONE',  ( -0.1324999999999999789, 0.07000000000000000666, 0.000000000000000000 ) ) ;
#280 = VECTOR ( 'NONE', #428, 39.37007874015748143 ) ;
#281 = CARTESIAN_POINT ( 'NONE',  ( -0.2520000000000000018, 0.03599999999999973360, 0.000000000000000000 ) ) ;
#282 = ORIENTED_EDGE ( 'NONE', *, *, #59, .F. ) ;
#283 = CARTESIAN_POINT ( 'NONE',  ( -0.1324999999999999789, 0.07000000000000000666, 0.000000000000000000 ) ) ;
#284 = CARTESIAN_POINT ( 'NONE',  ( -0.2179999999999997218, 0.05449999999999902145, -1.898202538678396735E-18 ) ) ;
#285 = ORIENTED_EDGE ( 'NONE', *, *, #636, .F. ) ;
#286 = DIRECTION ( 'NONE',  ( 1.000000000000000000, 0.000000000000000000, 0.000000000000000000 ) ) ;
#287 = AXIS2_PLACEMENT_3D ( 'NONE', #719, #624, #393 ) ;
#288 = CYLINDRICAL_SURFACE ( 'NONE', #483, 0.01550000000000000336 ) ;
#289 = EDGE_LOOP ( 'NONE', ( #407, #285 ) ) ;
#290 = DIRECTION ( 'NONE',  ( 2.439149994343092652E-16, -1.000000000000000000, 0.000000000000000000 ) ) ;
#291 = CLOSED_SHELL ( 'NONE', ( #663, #439, #232, #619, #605, #308, #453, #391 ) ) ;
#292 = ORIENTED_EDGE ( 'NONE', *, *, #606, .T. ) ;
#293 = AXIS2_PLACEMENT_3D ( 'NONE', #96, #763, #646 ) ;
#294 = EDGE_CURVE ( 'NONE', #150, #394, #118, .T. ) ;
#295 = CARTESIAN_POINT ( 'NONE',  ( -0.1075000000000000122, 0.07000000000000000666, 0.000000000000000000 ) ) ;
#296 = SURFACE_STYLE_FILL_AREA ( #415 ) ;
#297 = UNCERTAINTY_MEASURE_WITH_UNIT (LENGTH_MEASURE( 1.000000000000000082E-05 ), #10, 'distance_accuracy_value', 'NONE');
#298 = CARTESIAN_POINT ( 'NONE',  ( -0.07749999999999997169, 1.707404996040164512E-17, 0.000000000000000000 ) ) ;
#299 = CARTESIAN_POINT ( 'NONE',  ( -0.07749999999999999944, 0.01500000000000000291, 0.000000000000000000 ) ) ;
#300 = AXIS2_PLACEMENT_3D ( 'NONE', #271, #511, #147 ) ;
#301 = DIRECTION ( 'NONE',  ( 2.439149994343092652E-16, -1.000000000000000000, 0.000000000000000000 ) ) ;
#302 = DIRECTION ( 'NONE',  ( -1.000000000000000000, -1.288607544181256449E-16, -0.000000000000000000 ) ) ;
#303 = APPLICATION_PROTOCOL_DEFINITION ( 'draft international standard', 'automotive_design', 1998, #172 ) ;
#304 = DIRECTION ( 'NONE',  ( 0.000000000000000000, -1.000000000000000000, 0.000000000000000000 ) ) ;
#305 = DIRECTION ( 'NONE',  ( -1.000000000000000000, -1.288607544181256203E-16, -0.000000000000000000 ) ) ;
#306 = SURFACE_STYLE_USAGE ( .BOTH. , #58 ) ;
#307 = DIRECTION ( 'NONE',  ( 0.000000000000000000, 0.000000000000000000, 1.000000000000000000 ) ) ;
#308 = ADVANCED_FACE ( 'NONE', ( #668 ), #570, .T. ) ;
#309 = SHAPE_DEFINITION_REPRESENTATION ( #726, #365 ) ;
#310 = AXIS2_PLACEMENT_3D ( 'NONE', #99, #589, #290 ) ;
#311 = SHAPE_DEFINITION_REPRESENTATION ( #214, #122 ) ;
#312 = ADVANCED_FACE ( 'NONE', ( #604 ), #241, .F. ) ;
#313 = DIRECTION ( 'NONE',  ( 2.439149994343092652E-16, -1.000000000000000000, 0.000000000000000000 ) ) ;
#314 = CONTEXT_DEPENDENT_SHAPE_REPRESENTATION ( #673, #340 ) ;
#315 = ORIENTED_EDGE ( 'NONE', *, *, #119, .T. ) ;
#316 = DIRECTION ( 'NONE',  ( -1.000000000000000000, -1.288607544181256203E-16, -0.000000000000000000 ) ) ;
#317 = COLOUR_RGB ( '',0.7921568627450980005, 0.8196078431372548767, 0.9333333333333333481 ) ;
#318 = DIRECTION ( 'NONE',  ( -1.288607544181256449E-16, 1.000000000000000000, 0.000000000000000000 ) ) ;
#319 = ORIENTED_EDGE ( 'NONE', *, *, #535, .F. ) ;
#320 = SURFACE_SIDE_STYLE ('',( #138 ) ) ;
#321 = CARTESIAN_POINT ( 'NONE',  ( -0.1324999999999999789, 0.1250000000000000278, 6.735557395310443903E-18 ) ) ;
#322 = LINE ( 'NONE', #580, #494 ) ;
#323 = ORIENTED_EDGE ( 'NONE', *, *, #563, .F. ) ;
#324 = DIRECTION ( 'NONE',  ( -1.000000000000000000, -9.984824538246602689E-17, 0.000000000000000000 ) ) ;
#325 =( NAMED_UNIT ( * ) PLANE_ANGLE_UNIT ( ) SI_UNIT ( $, .RADIAN. ) );
#326 = ADVANCED_FACE ( 'NONE', ( #538, #542 ), #785, .F. ) ;
#327 = AXIS2_PLACEMENT_3D ( 'NONE', #283, #755, #457 ) ;
#328 = DIRECTION ( 'NONE',  ( 1.000000000000000000, 0.000000000000000000, 0.000000000000000000 ) ) ;
#329 = VERTEX_POINT ( 'NONE', #230 ) ;
#330 = PRODUCT_DEFINITION_FORMATION_WITH_SPECIFIED_SOURCE ( 'ANY', '', #92, .NOT_KNOWN. ) ;
#331 = CARTESIAN_POINT ( 'NONE',  ( -0.07749999999999999944, 0.07000000000000000666, 0.000000000000000000 ) ) ;
#332 = CARTESIAN_POINT ( 'NONE',  ( -0.1324999999999999789, 0.000000000000000000, 0.000000000000000000 ) ) ;
#333 = DIRECTION ( 'NONE',  ( -1.000000000000000000, -1.288607544181256449E-16, -0.000000000000000000 ) ) ;
#334 = ORIENTED_EDGE ( 'NONE', *, *, #48, .T. ) ;
#335 = PRODUCT ( 'P6KE10_1_1', 'P6KE10_1_1', '', ( #245 ) ) ;
#336 = FACE_OUTER_BOUND ( 'NONE', #683, .T. ) ;
#337 = DIRECTION ( 'NONE',  ( -1.000000000000000000, -1.288607544181256203E-16, 0.000000000000000000 ) ) ;
#338 = ORIENTED_EDGE ( 'NONE', *, *, #170, .F. ) ;
#339 = DIRECTION ( 'NONE',  ( 0.000000000000000000, -1.000000000000000000, 0.000000000000000000 ) ) ;
#340 = PRODUCT_DEFINITION_SHAPE ( 'NONE', 'NONE',  #789 ) ;
#341 = DIRECTION ( 'NONE',  ( -1.000000000000000000, -1.288607544181256203E-16, -0.000000000000000000 ) ) ;
#342 = EDGE_LOOP ( 'NONE', ( #53, #680, #709, #20 ) ) ;
#343 = DIRECTION ( 'NONE',  ( -6.559443634590607961E-32, 6.559443634590682405E-32, 1.000000000000000000 ) ) ;
#344 = EDGE_LOOP ( 'NONE', ( #95, #227, #569, #638 ) ) ;
#345 = EDGE_CURVE ( 'NONE', #581, #448, #47, .T. ) ;
#346 = DIRECTION ( 'NONE',  ( -6.373795096527160880E-65, -1.000000000000000000, 6.559443634590682405E-32 ) ) ;
#347 = AXIS2_PLACEMENT_3D ( 'NONE', #97, #341, #701 ) ;
#348 = CYLINDRICAL_SURFACE ( 'NONE', #513, 0.01550000000000001203 ) ;
#349 = FACE_OUTER_BOUND ( 'NONE', #409, .T. ) ;
#350 = ORIENTED_EDGE ( 'NONE', *, *, #549, .T. ) ;
#351 =( REPRESENTATION_RELATIONSHIP ('NONE','NONE', #628, #122 ) REPRESENTATION_RELATIONSHIP_WITH_TRANSFORMATION ( #264 )SHAPE_REPRESENTATION_RELATIONSHIP( ) );
#352 = DIRECTION ( 'NONE',  ( -1.000000000000000000, -1.288607544181256203E-16, -0.000000000000000000 ) ) ;
#353 = AXIS2_PLACEMENT_3D ( 'NONE', #279, #635, #218 ) ;
#354 = MANIFOLD_SOLID_BREP ( 'Revolve2', #15 ) ;
#355 = DIRECTION ( 'NONE',  ( -1.000000000000000000, -9.984824538246602689E-17, 0.000000000000000000 ) ) ;
#356 = DIRECTION ( 'NONE',  ( 1.000000000000000000, 1.288607544181256203E-16, 0.000000000000000000 ) ) ;
#357 = VERTEX_POINT ( 'NONE', #647 ) ;
#358 = PRODUCT_RELATED_PRODUCT_CATEGORY ( 'part', '', ( #92 ) ) ;
#359 = DIRECTION ( 'NONE',  ( 1.000000000000000000, 1.288607544181256203E-16, 0.000000000000000000 ) ) ;
#360 = DIRECTION ( 'NONE',  ( 1.288607544181256449E-16, -1.000000000000000000, 0.000000000000000000 ) ) ;
#361 = PRODUCT_DEFINITION_FORMATION_WITH_SPECIFIED_SOURCE ( 'ANY', '', #335, .NOT_KNOWN. ) ;
#362 = DIRECTION ( 'NONE',  ( 1.000000000000000000, 1.288607544181256449E-16, 0.000000000000000000 ) ) ;
#363 = DIRECTION ( 'NONE',  ( 1.000000000000000000, 0.000000000000000000, 0.000000000000000000 ) ) ;
#364 = CIRCLE ( 'NONE', #468, 0.06999999999999999278 ) ;
#365 = SHAPE_REPRESENTATION ( 'P6KE10_4', ( #370 ), #2 ) ;
#366 = FILL_AREA_STYLE ('',( #124 ) ) ;
#367 = CARTESIAN_POINT ( 'NONE',  ( 0.000000000000000000, 0.000000000000000000, 0.000000000000000000 ) ) ;
#368 = EDGE_CURVE ( 'NONE', #133, #405, #1, .T. ) ;
#369 = AXIS2_PLACEMENT_3D ( 'NONE', #295, #587, #532 ) ;
#370 = AXIS2_PLACEMENT_3D ( 'NONE', #752, #637, #328 ) ;
#371 =( NAMED_UNIT ( * ) PLANE_ANGLE_UNIT ( ) SI_UNIT ( $, .RADIAN. ) );
#372 = DIRECTION ( 'NONE',  ( 0.000000000000000000, 0.000000000000000000, 1.000000000000000000 ) ) ;
#373 = COLOUR_RGB ( '',1.000000000000000000, 1.000000000000000000, 1.000000000000000000 ) ;
#374 = STYLED_ITEM ( 'NONE', ( #786 ), #617 ) ;
#375 = CARTESIAN_POINT ( 'NONE',  ( 0.1325000000000000622, 0.07000000000000003442, 0.000000000000000000 ) ) ;
#376 = CONTEXT_DEPENDENT_SHAPE_REPRESENTATION ( #387, #101 ) ;
#377 = ORIENTED_EDGE ( 'NONE', *, *, #146, .F. ) ;
#378 = FILL_AREA_STYLE_COLOUR ( '', #317 ) ;
#379 = AXIS2_PLACEMENT_3D ( 'NONE', #413, #470, #475 ) ;
#380 = EDGE_LOOP ( 'NONE', ( #773, #643 ) ) ;
#381 = DIRECTION ( 'NONE',  ( 1.000000000000000000, 1.288607544181256449E-16, 0.000000000000000000 ) ) ;
#382 = DIRECTION ( 'NONE',  ( 0.000000000000000000, -1.000000000000000000, 0.000000000000000000 ) ) ;
#383 = VERTEX_POINT ( 'NONE', #49 ) ;
#384 = PRODUCT_CONTEXT ( 'NONE', #417, 'mechanical' ) ;
#385 = AXIS2_PLACEMENT_3D ( 'NONE', #691, #515, #155 ) ;
#386 = VERTEX_POINT ( 'NONE', #332 ) ;
#387 =( REPRESENTATION_RELATIONSHIP ('NONE','NONE', #628, #365 ) REPRESENTATION_RELATIONSHIP_WITH_TRANSFORMATION ( #451 )SHAPE_REPRESENTATION_RELATIONSHIP( ) );
#388 = ORIENTED_EDGE ( 'NONE', *, *, #294, .F. ) ;
#389 = FACE_OUTER_BOUND ( 'NONE', #289, .T. ) ;
#390 = CARTESIAN_POINT ( 'NONE',  ( -0.07749999999999999944, 0.1250000000000000278, 6.735557395310443132E-18 ) ) ;
#391 = ADVANCED_FACE ( 'NONE', ( #403 ), #392, .F. ) ;
#392 = PLANE ( 'NONE',  #616 ) ;
#393 = DIRECTION ( 'NONE',  ( -1.542172254487891024E-14, -1.000000000000000000, -6.123233995736764803E-17 ) ) ;
#394 = VERTEX_POINT ( 'NONE', #764 ) ;
#395 = CIRCLE ( 'NONE', #152, 0.01550000000000000336 ) ;
#396 =( NAMED_UNIT ( * ) SI_UNIT ( $, .STERADIAN. ) SOLID_ANGLE_UNIT ( ) );
#397 = EDGE_CURVE ( 'NONE', #448, #173, #60, .T. ) ;
#398 = EDGE_CURVE ( 'NONE', #33, #423, #226, .T. ) ;
#399 = DIRECTION ( 'NONE',  ( -1.000000000000000000, -9.984824538246602689E-17, 0.000000000000000000 ) ) ;
#400 = SHAPE_REPRESENTATION_RELATIONSHIP ( 'NONE' , 'NONE' ,  #612, #780 ) ;
#401 = EDGE_LOOP ( 'NONE', ( #191, #277 ) ) ;
#402 = FACE_OUTER_BOUND ( 'NONE', #158, .T. ) ;
#403 = FACE_OUTER_BOUND ( 'NONE', #197, .T. ) ;
#404 = ORIENTED_EDGE ( 'NONE', *, *, #758, .F. ) ;
#405 = VERTEX_POINT ( 'NONE', #93 ) ;
#406 = FACE_OUTER_BOUND ( 'NONE', #743, .T. ) ;
#407 = ORIENTED_EDGE ( 'NONE', *, *, #4, .F. ) ;
#408 = DIRECTION ( 'NONE',  ( -1.000000000000000000, -1.288607544181256203E-16, -0.000000000000000000 ) ) ;
#409 = EDGE_LOOP ( 'NONE', ( #585, #377 ) ) ;
#410 =( GEOMETRIC_REPRESENTATION_CONTEXT ( 3 ) GLOBAL_UNCERTAINTY_ASSIGNED_CONTEXT ( ( #484 ) ) GLOBAL_UNIT_ASSIGNED_CONTEXT ( ( #109, #444, #658 ) ) REPRESENTATION_CONTEXT ( 'NONE', 'WORKASPACE' ) );
#411 = UNCERTAINTY_MEASURE_WITH_UNIT (LENGTH_MEASURE( 1.000000000000000082E-05 ), #674, 'distance_accuracy_value', 'NONE');
#412 = DIRECTION ( 'NONE',  ( -1.000000000000000000, -1.288607544181256203E-16, -0.000000000000000000 ) ) ;
#413 = CARTESIAN_POINT ( 'NONE',  ( -0.07749999999999999944, 0.1399999999999999856, 0.000000000000000000 ) ) ;
#414 = PRODUCT_DEFINITION ( 'UNKNOWN', '', #662, #16 ) ;
#415 = FILL_AREA_STYLE ('',( #722 ) ) ;
#416 = PRESENTATION_LAYER_ASSIGNMENT (  '', '', ( #374 ) ) ;
#417 = APPLICATION_CONTEXT ( 'automotive_design' ) ;
#418 = CARTESIAN_POINT ( 'NONE',  ( -0.07749999999999999944, 0.07000000000000000666, 0.000000000000000000 ) ) ;
#419 = DIRECTION ( 'NONE',  ( 2.439149994343092159E-16, -1.000000000000000000, 0.000000000000000000 ) ) ;
#420 = ADVANCED_BREP_SHAPE_REPRESENTATION ( '', ( #88, #370 ), #2 ) ;
#421 = DIMENSIONAL_EXPONENTS ( 1.000000000000000000, 0.000000000000000000, 0.000000000000000000, 0.000000000000000000, 0.000000000000000000, 0.000000000000000000, 0.000000000000000000 ) ;
#422 =( LENGTH_UNIT ( ) NAMED_UNIT ( * ) SI_UNIT ( $, .METRE. ) );
#423 = VERTEX_POINT ( 'NONE', #284 ) ;
#424 = ADVANCED_FACE ( 'NONE', ( #219, #469 ), #642, .F. ) ;
#425 = CARTESIAN_POINT ( 'NONE',  ( -0.1074999999999999845, 0.07000000000000000666, 0.000000000000000000 ) ) ;
#426 =( NAMED_UNIT ( * ) SI_UNIT ( $, .STERADIAN. ) SOLID_ANGLE_UNIT ( ) );
#427 = CIRCLE ( 'NONE', #140, 0.01550000000000001203 ) ;
#428 = DIRECTION ( 'NONE',  ( 1.094490382077028922E-16, -1.000000000000000000, 0.000000000000000000 ) ) ;
#429 = DIRECTION ( 'NONE',  ( 0.000000000000000000, 0.000000000000000000, 1.000000000000000000 ) ) ;
#430 = CIRCLE ( 'NONE', #704, 0.06999999999999999278 ) ;
#431 = AXIS2_PLACEMENT_3D ( 'NONE', #690, #316, #134 ) ;
#432 = CARTESIAN_POINT ( 'NONE',  ( -0.07749999999999999944, 0.07000000000000000666, 0.000000000000000000 ) ) ;
#433 = EDGE_CURVE ( 'NONE', #206, #98, #652, .T. ) ;
#434 = CARTESIAN_POINT ( 'NONE',  ( 0.1181102362204724532, 0.000000000000000000, 0.000000000000000000 ) ) ;
#435 =( REPRESENTATION_RELATIONSHIP ('NONE','NONE', #628, #365 ) REPRESENTATION_RELATIONSHIP_WITH_TRANSFORMATION ( #682 )SHAPE_REPRESENTATION_RELATIONSHIP( ) );
#436 = AXIS2_PLACEMENT_3D ( 'NONE', #26, #450, #382 ) ;
#437 = AXIS2_PLACEMENT_3D ( 'NONE', #114, #356, #51 ) ;
#438 = LINE ( 'NONE', #678, #72 ) ;
#439 = ADVANCED_FACE ( 'NONE', ( #578 ), #348, .T. ) ;
#440 = PRESENTATION_LAYER_ASSIGNMENT (  '', '', ( #493 ) ) ;
#441 = ORIENTED_EDGE ( 'NONE', *, *, #738, .F. ) ;
#442 = LINE ( 'NONE', #270, #630 ) ;
#443 = ORIENTED_EDGE ( 'NONE', *, *, #171, .F. ) ;
#444 =( NAMED_UNIT ( * ) PLANE_ANGLE_UNIT ( ) SI_UNIT ( $, .RADIAN. ) );
#445 = AXIS2_PLACEMENT_3D ( 'NONE', #189, #307, #8 ) ;
#446 = LENGTH_MEASURE_WITH_UNIT ( LENGTH_MEASURE( 0.02539999999999999897 ), #205 );
#447 = CIRCLE ( 'NONE', #546, 0.01849999999999899988 ) ;
#448 = VERTEX_POINT ( 'NONE', #153 ) ;
#449 = CARTESIAN_POINT ( 'NONE',  ( -0.1074999999999999845, 0.01499999999999999424, 0.000000000000000000 ) ) ;
#450 = DIRECTION ( 'NONE',  ( -1.000000000000000000, -1.288607544181256203E-16, -0.000000000000000000 ) ) ;
#451 = ITEM_DEFINED_TRANSFORMATION ( 'NONE', 'NONE', #237,  #370 ) ;
#452 = EDGE_LOOP ( 'NONE', ( #41, #404 ) ) ;
#453 = ADVANCED_FACE ( 'NONE', ( #215 ), #288, .T. ) ;
#454 = SHAPE_REPRESENTATION_RELATIONSHIP ( 'NONE' , 'NONE' ,  #122, #278 ) ;
#455 = VERTEX_POINT ( 'NONE', #298 ) ;
#456 = AXIS2_PLACEMENT_3D ( 'NONE', #418, #362, #781 ) ;
#457 = DIRECTION ( 'NONE',  ( 2.439149994343092652E-16, -1.000000000000000000, 0.000000000000000000 ) ) ;
#458 = CARTESIAN_POINT ( 'NONE',  ( -0.2180000000000000271, 0.03600000000000001116, -9.491012693391964414E-19 ) ) ;
#459 =( NAMED_UNIT ( * ) SI_UNIT ( $, .STERADIAN. ) SOLID_ANGLE_UNIT ( ) );
#460 = ORIENTED_EDGE ( 'NONE', *, *, #679, .F. ) ;
#461 = EDGE_CURVE ( 'NONE', #357, #651, #126, .T. ) ;
#462 = CARTESIAN_POINT ( 'NONE',  ( -0.07750000000000001332, 0.1400000000000000133, 8.572527594031471957E-18 ) ) ;
#463 = ADVANCED_FACE ( 'NONE', ( #526 ), #35, .F. ) ;
#464 = CARTESIAN_POINT ( 'NONE',  ( -0.2519999999999998908, -0.8999999999999996891, 0.000000000000000000 ) ) ;
#465 = ORIENTED_EDGE ( 'NONE', *, *, #573, .T. ) ;
#466 = AXIS2_PLACEMENT_3D ( 'NONE', #656, #593, #301 ) ;
#467 = FACE_OUTER_BOUND ( 'NONE', #579, .T. ) ;
#468 = AXIS2_PLACEMENT_3D ( 'NONE', #375, #567, #313 ) ;
#469 = FACE_BOUND ( 'NONE', #380, .T. ) ;
#470 = DIRECTION ( 'NONE',  ( 1.000000000000000000, 1.288607544181256203E-16, 0.000000000000000000 ) ) ;
#471 = VERTEX_POINT ( 'NONE', #162 ) ;
#472 = CARTESIAN_POINT ( 'NONE',  ( -0.1074999999999999845, 0.1250000000000000278, 6.735557395310443903E-18 ) ) ;
#473 = DIRECTION ( 'NONE',  ( -1.000000000000000000, -1.288607544181256449E-16, -0.000000000000000000 ) ) ;
#474 = ORIENTED_EDGE ( 'NONE', *, *, #59, .T. ) ;
#475 = DIRECTION ( 'NONE',  ( -1.288607544181256203E-16, 1.000000000000000000, 0.000000000000000000 ) ) ;
#476 = ORIENTED_EDGE ( 'NONE', *, *, #512, .F. ) ;
#477 = SURFACE_SIDE_STYLE ('',( #296 ) ) ;
#478 = APPLICATION_CONTEXT ( 'automotive_design' ) ;
#479 = CARTESIAN_POINT ( 'NONE',  ( -0.1324999999999999789, 0.07000000000000000666, 0.000000000000000000 ) ) ;
#480 = PRODUCT_DEFINITION ( 'UNKNOWN', '', #168, #196 ) ;
#481 = DIRECTION ( 'NONE',  ( -1.000000000000000000, -1.288607544181256203E-16, -0.000000000000000000 ) ) ;
#482 = CIRCLE ( 'NONE', #437, 0.06999999999999999278 ) ;
#483 = AXIS2_PLACEMENT_3D ( 'NONE', #479, #399, #583 ) ;
#484 = UNCERTAINTY_MEASURE_WITH_UNIT (LENGTH_MEASURE( 1.000000000000000082E-05 ), #109, 'distance_accuracy_value', 'NONE');
#485 = DIRECTION ( 'NONE',  ( 1.288607544181256203E-16, -1.000000000000000000, 0.000000000000000000 ) ) ;
#486 = CARTESIAN_POINT ( 'NONE',  ( -0.1075000000000000261, 0.1400000000000000133, 8.572527594031471957E-18 ) ) ;
#487 = DIRECTION ( 'NONE',  ( -1.000000000000000000, -1.288607544181256449E-16, 0.000000000000000000 ) ) ;
#488 = DIMENSIONAL_EXPONENTS ( 1.000000000000000000, 0.000000000000000000, 0.000000000000000000, 0.000000000000000000, 0.000000000000000000, 0.000000000000000000, 0.000000000000000000 ) ;
#489 = CARTESIAN_POINT ( 'NONE',  ( -0.2364999999999999880, 0.03599999999999987932, 0.000000000000000000 ) ) ;
#490 = DIRECTION ( 'NONE',  ( 1.000000000000000000, 0.000000000000000000, 0.000000000000000000 ) ) ;
#491 = DIRECTION ( 'NONE',  ( 1.000000000000000000, 1.288607544181256203E-16, 0.000000000000000000 ) ) ;
#492 = DIRECTION ( 'NONE',  ( 1.000000000000000000, 0.000000000000000000, 0.000000000000000000 ) ) ;
#493 = STYLED_ITEM ( 'NONE', ( #166 ), #354 ) ;
#494 = VECTOR ( 'NONE', #136, 39.37007874015748143 ) ;
#495 = CARTESIAN_POINT ( 'NONE',  ( -0.2675000000000000155, 0.03599999999999973360, 1.898202538678399046E-18 ) ) ;
#496 = CIRCLE ( 'NONE', #293, 0.06999999999999999278 ) ;
#497 = SHAPE_DEFINITION_REPRESENTATION ( #705, #628 ) ;
#498 = ADVANCED_FACE ( 'NONE', ( #406 ), #104, .T. ) ;
#499 =( CONVERSION_BASED_UNIT ( 'INCH', #123 ) LENGTH_UNIT ( ) NAMED_UNIT ( #540 ) );
#500 = PRODUCT_DEFINITION ( 'UNKNOWN', '', #330, #110 ) ;
#501 = CARTESIAN_POINT ( 'NONE',  ( -0.1324999999999999789, 0.1400000000000000133, 8.572527594031471957E-18 ) ) ;
#502 = CIRCLE ( 'NONE', #466, 0.06999999999999999278 ) ;
#503 = LINE ( 'NONE', #18, #626 ) ;
#504 = EDGE_CURVE ( 'NONE', #383, #596, #572, .T. ) ;
#505 = VERTEX_POINT ( 'NONE', #671 ) ;
#506 = ORIENTED_EDGE ( 'NONE', *, *, #723, .T. ) ;
#507 = DIRECTION ( 'NONE',  ( 1.000000000000000000, 0.000000000000000000, 0.000000000000000000 ) ) ;
#508 = CARTESIAN_POINT ( 'NONE',  ( -0.1074999999999999845, 0.1250000000000000278, 0.000000000000000000 ) ) ;
#509 = ORIENTED_EDGE ( 'NONE', *, *, #636, .T. ) ;
#510 = PRESENTATION_STYLE_ASSIGNMENT (( #562 ) ) ;
#511 = DIRECTION ( 'NONE',  ( -1.000000000000000000, -1.288607544181256203E-16, -0.000000000000000000 ) ) ;
#512 = EDGE_CURVE ( 'NONE', #107, #653, #251, .T. ) ;
#513 = AXIS2_PLACEMENT_3D ( 'NONE', #281, #519, #594 ) ;
#514 = EDGE_LOOP ( 'NONE', ( #74, #761, #509, #165 ) ) ;
#515 = DIRECTION ( 'NONE',  ( 1.000000000000000000, 1.288607544181256203E-16, 0.000000000000000000 ) ) ;
#516 = ORIENTED_EDGE ( 'NONE', *, *, #32, .F. ) ;
#517 = EDGE_LOOP ( 'NONE', ( #273, #571 ) ) ;
#518 = CIRCLE ( 'NONE', #113, 0.01549999999999999468 ) ;
#519 = DIRECTION ( 'NONE',  ( 1.094490382077028922E-16, -1.000000000000000000, 0.000000000000000000 ) ) ;
#520 = ORIENTED_EDGE ( 'NONE', *, *, #55, .F. ) ;
#521 = CYLINDRICAL_SURFACE ( 'NONE', #70, 0.07000000000000000666 ) ;
#522 = ORIENTED_EDGE ( 'NONE', *, *, #259, .F. ) ;
#523 = CIRCLE ( 'NONE', #252, 0.01550000000000000336 ) ;
#524 = CARTESIAN_POINT ( 'NONE',  ( -0.07750000000000001332, 0.1400000000000000133, 8.572527594031471957E-18 ) ) ;
#525 = AXIS2_PLACEMENT_3D ( 'NONE', #25, #67, #69 ) ;
#526 = FACE_OUTER_BOUND ( 'NONE', #82, .T. ) ;
#527 = ORIENTED_EDGE ( 'NONE', *, *, #723, .F. ) ;
#528 = DIRECTION ( 'NONE',  ( -6.373795096527160880E-65, -1.000000000000000000, 6.559443634590682405E-32 ) ) ;
#529 = ORIENTED_EDGE ( 'NONE', *, *, #170, .T. ) ;
#530 = VECTOR ( 'NONE', #194, 39.37007874015748143 ) ;
#531 = CARTESIAN_POINT ( 'NONE',  ( -0.01438976377952752225, 0.07000000000000000666, 0.000000000000000000 ) ) ;
#532 = DIRECTION ( 'NONE',  ( 2.439149994343092159E-16, -1.000000000000000000, 0.000000000000000000 ) ) ;
#533 = PLANE ( 'NONE',  #379 ) ;
#534 = DIRECTION ( 'NONE',  ( 0.000000000000000000, -1.000000000000000000, 0.000000000000000000 ) ) ;
#535 = EDGE_CURVE ( 'NONE', #383, #423, #518, .T. ) ;
#536 = DIRECTION ( 'NONE',  ( -1.000000000000000000, -1.288607544181256203E-16, 0.000000000000000000 ) ) ;
#537 =( NAMED_UNIT ( * ) SI_UNIT ( $, .STERADIAN. ) SOLID_ANGLE_UNIT ( ) );
#538 = FACE_OUTER_BOUND ( 'NONE', #517, .T. ) ;
#539 = EDGE_LOOP ( 'NONE', ( #323, #522 ) ) ;
#540 = DIMENSIONAL_EXPONENTS ( 1.000000000000000000, 0.000000000000000000, 0.000000000000000000, 0.000000000000000000, 0.000000000000000000, 0.000000000000000000, 0.000000000000000000 ) ;
#541 = APPLICATION_PROTOCOL_DEFINITION ( 'draft international standard', 'automotive_design', 1998, #547 ) ;
#542 = FACE_BOUND ( 'NONE', #588, .T. ) ;
#543 = FACE_OUTER_BOUND ( 'NONE', #401, .T. ) ;
#544 = DIRECTION ( 'NONE',  ( -1.000000000000000000, 1.542172254487890708E-14, 0.000000000000000000 ) ) ;
#545 = AXIS2_PLACEMENT_3D ( 'NONE', #464, #39, #210 ) ;
#546 = AXIS2_PLACEMENT_3D ( 'NONE', #648, #31, #584 ) ;
#547 = APPLICATION_CONTEXT ( 'automotive_design' ) ;
#548 = AXIS2_PLACEMENT_3D ( 'NONE', #79, #267, #507 ) ;
#549 = EDGE_CURVE ( 'NONE', #386, #329, #756, .T. ) ;
#550 = CIRCLE ( 'NONE', #310, 0.06999999999999999278 ) ;
#551 = DIRECTION ( 'NONE',  ( 0.000000000000000000, 0.000000000000000000, 1.000000000000000000 ) ) ;
#552 = LENGTH_MEASURE_WITH_UNIT ( LENGTH_MEASURE( 0.02539999999999999897 ), #274 );
#553 = CONTEXT_DEPENDENT_SHAPE_REPRESENTATION ( #351, #224 ) ;
#554 = DIRECTION ( 'NONE',  ( -1.000000000000000000, -1.288607544181256449E-16, -0.000000000000000000 ) ) ;
#555 = AXIS2_PLACEMENT_3D ( 'NONE', #508, #94, #318 ) ;
#556 = DIMENSIONAL_EXPONENTS ( 1.000000000000000000, 0.000000000000000000, 0.000000000000000000, 0.000000000000000000, 0.000000000000000000, 0.000000000000000000, 0.000000000000000000 ) ;
#557 = ORIENTED_EDGE ( 'NONE', *, *, #253, .T. ) ;
#558 = ORIENTED_EDGE ( 'NONE', *, *, #736, .T. ) ;
#559 = CLOSED_SHELL ( 'NONE', ( #190, #143, #700, #62, #676, #601, #178, #424, #498, #711 ) ) ;
#560 = DIRECTION ( 'NONE',  ( 1.000000000000000000, 1.288607544181256203E-16, 0.000000000000000000 ) ) ;
#561 = EDGE_LOOP ( 'NONE', ( #154, #90, #566, #590 ) ) ;
#562 = SURFACE_STYLE_USAGE ( .BOTH. , #320 ) ;
#563 = EDGE_CURVE ( 'NONE', #394, #160, #64, .T. ) ;
#564 = FACE_OUTER_BOUND ( 'NONE', #621, .T. ) ;
#565 = FACE_BOUND ( 'NONE', #452, .T. ) ;
#566 = ORIENTED_EDGE ( 'NONE', *, *, #345, .T. ) ;
#567 = DIRECTION ( 'NONE',  ( -1.000000000000000000, -1.288607544181256203E-16, -0.000000000000000000 ) ) ;
#568 = DIRECTION ( 'NONE',  ( -1.000000000000000000, -1.288607544181256203E-16, -0.000000000000000000 ) ) ;
#569 = ORIENTED_EDGE ( 'NONE', *, *, #736, .F. ) ;
#570 = TOROIDAL_SURFACE ( 'NONE', #86, 0.03399999999999900324, 0.01549999999999999989 ) ;
#571 = ORIENTED_EDGE ( 'NONE', *, *, #119, .F. ) ;
#572 = CIRCLE ( 'NONE', #686, 0.04949999999999900313 ) ;
#573 = EDGE_CURVE ( 'NONE', #405, #78, #57, .T. ) ;
#574 =( GEOMETRIC_REPRESENTATION_CONTEXT ( 3 ) GLOBAL_UNCERTAINTY_ASSIGNED_CONTEXT ( ( #657 ) ) GLOBAL_UNIT_ASSIGNED_CONTEXT ( ( #19, #644, #459 ) ) REPRESENTATION_CONTEXT ( 'NONE', 'WORKASPACE' ) );
#575 = EDGE_LOOP ( 'NONE', ( #68, #557, #242, #319 ) ) ;
#576 = DIRECTION ( 'NONE',  ( -1.000000000000000000, -1.288607544181256449E-16, -0.000000000000000000 ) ) ;
#577 = EDGE_CURVE ( 'NONE', #24, #505, #246, .T. ) ;
#578 = FACE_OUTER_BOUND ( 'NONE', #115, .T. ) ;
#579 = EDGE_LOOP ( 'NONE', ( #128, #315, #265, #141 ) ) ;
#580 = CARTESIAN_POINT ( 'NONE',  ( -0.1324999999999999512, 8.537024980200822558E-18, 0.000000000000000000 ) ) ;
#581 = VERTEX_POINT ( 'NONE', #489 ) ;
#582 = CARTESIAN_POINT ( 'NONE',  ( -0.1074999999999999983, 0.1400000000000000133, 8.572527594031470416E-18 ) ) ;
#583 = DIRECTION ( 'NONE',  ( 0.000000000000000000, -1.000000000000000000, 0.000000000000000000 ) ) ;
#584 = DIRECTION ( 'NONE',  ( 0.000000000000000000, -1.000000000000000000, 7.684866239042908534E-32 ) ) ;
#585 = ORIENTED_EDGE ( 'NONE', *, *, #549, .F. ) ;
#586 = PRODUCT_DEFINITION_SHAPE ( 'NONE', 'NONE',  #500 ) ;
#587 = DIRECTION ( 'NONE',  ( -1.000000000000000000, -1.288607544181256203E-16, -0.000000000000000000 ) ) ;
#588 = EDGE_LOOP ( 'NONE', ( #338, #476 ) ) ;
#589 = DIRECTION ( 'NONE',  ( 1.000000000000000000, 1.288607544181256449E-16, 0.000000000000000000 ) ) ;
#590 = ORIENTED_EDGE ( 'NONE', *, *, #397, .T. ) ;
#591 = AXIS2_PLACEMENT_3D ( 'NONE', #718, #412, #602 ) ;
#592 = TOROIDAL_SURFACE ( 'NONE', #733, 0.03399999999999900324, 0.01549999999999999989 ) ;
#593 = DIRECTION ( 'NONE',  ( -1.000000000000000000, -1.288607544181256203E-16, -0.000000000000000000 ) ) ;
#594 = DIRECTION ( 'NONE',  ( 1.000000000000000000, 0.000000000000000000, 0.000000000000000000 ) ) ;
#595 = CARTESIAN_POINT ( 'NONE',  ( -0.1075000000000000122, 0.07000000000000000666, 0.000000000000000000 ) ) ;
#596 = VERTEX_POINT ( 'NONE', #238 ) ;
#597 = MECHANICAL_DESIGN_GEOMETRIC_PRESENTATION_REPRESENTATION (  '', ( #225 ), #254 ) ;
#598 = CARTESIAN_POINT ( 'NONE',  ( -0.07750000000000001332, 0.1250000000000000278, 0.000000000000000000 ) ) ;
#599 = AXIS2_PLACEMENT_3D ( 'NONE', #248, #672, #485 ) ;
#600 = APPLICATION_CONTEXT ( 'automotive_design' ) ;
#601 = ADVANCED_FACE ( 'NONE', ( #543 ), #730, .F. ) ;
#602 = DIRECTION ( 'NONE',  ( 2.439149994343092159E-16, -1.000000000000000000, 0.000000000000000000 ) ) ;
#603 = CARTESIAN_POINT ( 'NONE',  ( -0.2520000000000000018, 0.03599999999999973360, 0.000000000000000000 ) ) ;
#604 = FACE_OUTER_BOUND ( 'NONE', #261, .T. ) ;
#605 = ADVANCED_FACE ( 'NONE', ( #788 ), #175, .T. ) ;
#606 = EDGE_CURVE ( 'NONE', #596, #173, #183, .T. ) ;
#607 = CARTESIAN_POINT ( 'NONE',  ( -0.2180000000000000271, 0.03600000000000001116, -9.491012693391964414E-19 ) ) ;
#608 = CARTESIAN_POINT ( 'NONE',  ( -0.1324999999999999789, 0.07000000000000000666, 0.000000000000000000 ) ) ;
#609 = DIRECTION ( 'NONE',  ( -1.000000000000000000, 0.000000000000000000, 0.000000000000000000 ) ) ;
#610 = SURFACE_STYLE_FILL_AREA ( #366 ) ;
#611 =( NAMED_UNIT ( * ) PLANE_ANGLE_UNIT ( ) SI_UNIT ( $, .RADIAN. ) );
#612 = SHAPE_REPRESENTATION ( 'P6KE10_3_1', ( #370 ), #3 ) ;
#613 =( LENGTH_UNIT ( ) NAMED_UNIT ( * ) SI_UNIT ( $, .METRE. ) );
#614 =( LENGTH_UNIT ( ) NAMED_UNIT ( * ) SI_UNIT ( $, .METRE. ) );
#615 = PRODUCT_RELATED_PRODUCT_CATEGORY ( 'part', '', ( #174 ) ) ;
#616 = AXIS2_PLACEMENT_3D ( 'NONE', #30, #536, #760 ) ;
#617 = MANIFOLD_SOLID_BREP ( 'Revolve1', #559 ) ;
#618 = AXIS2_PLACEMENT_3D ( 'NONE', #180, #61, #120 ) ;
#619 = ADVANCED_FACE ( 'NONE', ( #774 ), #42, .T. ) ;
#620 = CARTESIAN_POINT ( 'NONE',  ( -0.01438976377952752052, 0.05450000000000000677, 0.000000000000000000 ) ) ;
#621 = EDGE_LOOP ( 'NONE', ( #746, #474, #633, #699 ) ) ;
#622 = CARTESIAN_POINT ( 'NONE',  ( -0.1074999999999999845, 0.07000000000000000666, 0.000000000000000000 ) ) ;
#623 = CIRCLE ( 'NONE', #287, 0.01549999999999999468 ) ;
#624 = DIRECTION ( 'NONE',  ( -1.000000000000000000, 1.542172254487890708E-14, 0.000000000000000000 ) ) ;
#625 = ORIENTED_EDGE ( 'NONE', *, *, #577, .T. ) ;
#626 = VECTOR ( 'NONE', #262, 39.37007874015748143 ) ;
#627 = DIRECTION ( 'NONE',  ( 2.439149994343092652E-16, -1.000000000000000000, 0.000000000000000000 ) ) ;
#628 = SHAPE_REPRESENTATION ( 'SA58A', ( #445, #103, #38, #237, #677 ), #202 ) ;
#629 = CARTESIAN_POINT ( 'NONE',  ( -0.1324999999999999789, 0.07000000000000000666, 0.000000000000000000 ) ) ;
#630 = VECTOR ( 'NONE', #324, 39.37007874015748143 ) ;
#631 = APPLICATION_PROTOCOL_DEFINITION ( 'draft international standard', 'automotive_design', 1998, #754 ) ;
#632 =( LENGTH_UNIT ( ) NAMED_UNIT ( * ) SI_UNIT ( $, .METRE. ) );
#633 = ORIENTED_EDGE ( 'NONE', *, *, #9, .T. ) ;
#634 = FACE_OUTER_BOUND ( 'NONE', #222, .T. ) ;
#635 = DIRECTION ( 'NONE',  ( -1.000000000000000000, -1.288607544181256203E-16, -0.000000000000000000 ) ) ;
#636 = EDGE_CURVE ( 'NONE', #98, #713, #550, .T. ) ;
#637 = DIRECTION ( 'NONE',  ( 0.000000000000000000, 0.000000000000000000, 1.000000000000000000 ) ) ;
#638 = ORIENTED_EDGE ( 'NONE', *, *, #398, .F. ) ;
#639 = MECHANICAL_DESIGN_GEOMETRIC_PRESENTATION_REPRESENTATION (  '', ( #493 ), #410 ) ;
#640 = PRODUCT_RELATED_PRODUCT_CATEGORY ( 'part', '', ( #335 ) ) ;
#641 = AXIS2_PLACEMENT_3D ( 'NONE', #598, #487, #360 ) ;
#642 = PLANE ( 'NONE',  #661 ) ;
#643 = ORIENTED_EDGE ( 'NONE', *, *, #9, .F. ) ;
#644 =( NAMED_UNIT ( * ) PLANE_ANGLE_UNIT ( ) SI_UNIT ( $, .RADIAN. ) );
#645 = ORIENTED_EDGE ( 'NONE', *, *, #32, .T. ) ;
#646 = DIRECTION ( 'NONE',  ( 2.439149994343092652E-16, -1.000000000000000000, 0.000000000000000000 ) ) ;
#647 = CARTESIAN_POINT ( 'NONE',  ( -0.1074999999999999983, 0.000000000000000000, 0.000000000000000000 ) ) ;
#648 = CARTESIAN_POINT ( 'NONE',  ( -0.2180000000000000271, 0.03600000000000001116, -2.847303808017593754E-18 ) ) ;
#649 = ORIENTED_EDGE ( 'NONE', *, *, #563, .T. ) ;
#650 = CYLINDRICAL_SURFACE ( 'NONE', #11, 0.06999999999999999278 ) ;
#651 = VERTEX_POINT ( 'NONE', #486 ) ;
#652 = LINE ( 'NONE', #157, #167 ) ;
#653 = VERTEX_POINT ( 'NONE', #299 ) ;
#654 = DIRECTION ( 'NONE',  ( 1.094490382077028922E-16, -1.000000000000000000, 0.000000000000000000 ) ) ;
#655 = ORIENTED_EDGE ( 'NONE', *, *, #259, .T. ) ;
#656 = CARTESIAN_POINT ( 'NONE',  ( 0.1325000000000000622, 0.07000000000000003442, 0.000000000000000000 ) ) ;
#657 = UNCERTAINTY_MEASURE_WITH_UNIT (LENGTH_MEASURE( 1.000000000000000082E-05 ), #19, 'distance_accuracy_value', 'NONE');
#658 =( NAMED_UNIT ( * ) SI_UNIT ( $, .STERADIAN. ) SOLID_ANGLE_UNIT ( ) );
#659 = DIRECTION ( 'NONE',  ( 1.000000000000000000, 0.000000000000000000, 0.000000000000000000 ) ) ;
#660 = ORIENTED_EDGE ( 'NONE', *, *, #207, .F. ) ;
#661 = AXIS2_PLACEMENT_3D ( 'NONE', #706, #337, #233 ) ;
#662 = PRODUCT_DEFINITION_FORMATION_WITH_SPECIFIED_SOURCE ( 'ANY', '', #243, .NOT_KNOWN. ) ;
#663 = ADVANCED_FACE ( 'NONE', ( #784 ), #592, .T. ) ;
#664 = CARTESIAN_POINT ( 'NONE',  ( -0.1324999999999999512, 8.537024980200822558E-18, 0.000000000000000000 ) ) ;
#665 = AXIS2_PLACEMENT_3D ( 'NONE', #603, #654, #659 ) ;
#666 = CARTESIAN_POINT ( 'NONE',  ( -0.2179999999999994997, 0.06999999999999900746, -9.491012693391987525E-19 ) ) ;
#667 = PLANE ( 'NONE',  #105 ) ;
#668 = FACE_OUTER_BOUND ( 'NONE', #342, .T. ) ;
#669 = DIRECTION ( 'NONE',  ( 2.439149994343092652E-16, -1.000000000000000000, 0.000000000000000000 ) ) ;
#670 = CIRCLE ( 'NONE', #40, 0.05500000000000001416 ) ;
#671 = CARTESIAN_POINT ( 'NONE',  ( -0.1074999999999999845, 0.1250000000000000278, 6.735557395310443903E-18 ) ) ;
#672 = DIRECTION ( 'NONE',  ( -1.000000000000000000, -1.288607544181256203E-16, 0.000000000000000000 ) ) ;
#673 =( REPRESENTATION_RELATIONSHIP ('NONE','NONE', #628, #612 ) REPRESENTATION_RELATIONSHIP_WITH_TRANSFORMATION ( #199 )SHAPE_REPRESENTATION_RELATIONSHIP( ) );
#674 =( CONVERSION_BASED_UNIT ( 'INCH', #184 ) LENGTH_UNIT ( ) NAMED_UNIT ( #247 ) );
#675 = CIRCLE ( 'NONE', #436, 0.05500000000000001416 ) ;
#676 = ADVANCED_FACE ( 'NONE', ( #159, #228 ), #533, .F. ) ;
#677 = AXIS2_PLACEMENT_3D ( 'NONE', #434, #732, #609 ) ;
#678 = CARTESIAN_POINT ( 'NONE',  ( -0.1324999999999999789, 0.1400000000000000133, 8.572527594031471957E-18 ) ) ;
#679 = EDGE_CURVE ( 'NONE', #33, #144, #523, .T. ) ;
#680 = ORIENTED_EDGE ( 'NONE', *, *, #535, .T. ) ;
#681 = CARTESIAN_POINT ( 'NONE',  ( -0.1324999999999999789, 0.01499999999999999424, 0.000000000000000000 ) ) ;
#682 = ITEM_DEFINED_TRANSFORMATION ( 'NONE', 'NONE', #677,  #370 ) ;
#683 = EDGE_LOOP ( 'NONE', ( #282, #137, #465, #334 ) ) ;
#684 = FILL_AREA_STYLE ('',( #378 ) ) ;
#685 = ORIENTED_EDGE ( 'NONE', *, *, #55, .T. ) ;
#686 = AXIS2_PLACEMENT_3D ( 'NONE', #458, #698, #148 ) ;
#687 = AXIS2_PLACEMENT_3D ( 'NONE', #367, #551, #249 ) ;
#688 = PLANE ( 'NONE',  #555 ) ;
#689 = EDGE_LOOP ( 'NONE', ( #443, #744 ) ) ;
#690 = CARTESIAN_POINT ( 'NONE',  ( -0.1324999999999999789, 0.07000000000000000666, 0.000000000000000000 ) ) ;
#691 = CARTESIAN_POINT ( 'NONE',  ( -0.1324999999999999789, 0.07000000000000000666, 0.000000000000000000 ) ) ;
#692 = ORIENTED_EDGE ( 'NONE', *, *, #696, .F. ) ;
#693 = CIRCLE ( 'NONE', #111, 0.05500000000000001416 ) ;
#694 =( GEOMETRIC_REPRESENTATION_CONTEXT ( 3 ) GLOBAL_UNCERTAINTY_ASSIGNED_CONTEXT ( ( #45 ) ) GLOBAL_UNIT_ASSIGNED_CONTEXT ( ( #724, #50, #537 ) ) REPRESENTATION_CONTEXT ( 'NONE', 'WORKASPACE' ) );
#695 =( NAMED_UNIT ( * ) PLANE_ANGLE_UNIT ( ) SI_UNIT ( $, .RADIAN. ) );
#696 = EDGE_CURVE ( 'NONE', #651, #357, #204, .T. ) ;
#697 = CYLINDRICAL_SURFACE ( 'NONE', #13, 0.01550000000000000336 ) ;
#698 = DIRECTION ( 'NONE',  ( -6.559443634590607961E-32, 6.559443634590682405E-32, 1.000000000000000000 ) ) ;
#699 = ORIENTED_EDGE ( 'NONE', *, *, #573, .F. ) ;
#700 = ADVANCED_FACE ( 'NONE', ( #176 ), #521, .T. ) ;
#701 = DIRECTION ( 'NONE',  ( 0.000000000000000000, -1.000000000000000000, 0.000000000000000000 ) ) ;
#702 = EDGE_LOOP ( 'NONE', ( #558, #212, #775, #441 ) ) ;
#703 = LINE ( 'NONE', #321, #771 ) ;
#704 = AXIS2_PLACEMENT_3D ( 'NONE', #12, #192, #627 ) ;
#705 = PRODUCT_DEFINITION_SHAPE ( 'NONE', 'NONE',  #480 ) ;
#706 = CARTESIAN_POINT ( 'NONE',  ( -0.1075000000000000122, 0.1400000000000000133, 0.000000000000000000 ) ) ;
#707 = ORIENTED_EDGE ( 'NONE', *, *, #108, .T. ) ;
#708 = DIRECTION ( 'NONE',  ( 2.439149994343092159E-16, -1.000000000000000000, 0.000000000000000000 ) ) ;
#709 = ORIENTED_EDGE ( 'NONE', *, *, #738, .T. ) ;
#710 = CARTESIAN_POINT ( 'NONE',  ( -0.2364999999999999880, 0.03599999999999973360, 0.000000000000000000 ) ) ;
#711 = ADVANCED_FACE ( 'NONE', ( #349 ), #667, .F. ) ;
#712 = DIRECTION ( 'NONE',  ( 0.000000000000000000, -1.000000000000000000, 0.000000000000000000 ) ) ;
#713 = VERTEX_POINT ( 'NONE', #46 ) ;
#714 = CARTESIAN_POINT ( 'NONE',  ( -0.01438976377952752225, 0.07000000000000000666, 0.000000000000000000 ) ) ;
#715 = ORIENTED_EDGE ( 'NONE', *, *, #345, .F. ) ;
#716 = DIRECTION ( 'NONE',  ( -1.000000000000000000, -1.288607544181256449E-16, -0.000000000000000000 ) ) ;
#717 = UNCERTAINTY_MEASURE_WITH_UNIT (LENGTH_MEASURE( 1.000000000000000082E-05 ), #499, 'distance_accuracy_value', 'NONE');
#718 = CARTESIAN_POINT ( 'NONE',  ( -0.1324999999999999789, 0.07000000000000000666, 0.000000000000000000 ) ) ;
#719 = CARTESIAN_POINT ( 'NONE',  ( -0.2179999999999994997, 0.06999999999999900746, -9.491012693391987525E-19 ) ) ;
#720 = VECTOR ( 'NONE', #355, 39.37007874015748143 ) ;
#721 = APPLICATION_CONTEXT ( 'automotive_design' ) ;
#722 = FILL_AREA_STYLE_COLOUR ( '', #373 ) ;
#723 = EDGE_CURVE ( 'NONE', #357, #386, #777, .T. ) ;
#724 =( CONVERSION_BASED_UNIT ( 'INCH', #116 ) LENGTH_UNIT ( ) NAMED_UNIT ( #729 ) );
#725 = CARTESIAN_POINT ( 'NONE',  ( -0.2180000000000000271, 0.03600000000000001116, -9.491012693391964414E-19 ) ) ;
#726 = PRODUCT_DEFINITION_SHAPE ( 'NONE', 'NONE',  #414 ) ;
#727 = SURFACE_STYLE_USAGE ( .BOTH. , #477 ) ;
#728 = AXIS2_PLACEMENT_3D ( 'NONE', #432, #244, #669 ) ;
#729 = DIMENSIONAL_EXPONENTS ( 1.000000000000000000, 0.000000000000000000, 0.000000000000000000, 0.000000000000000000, 0.000000000000000000, 0.000000000000000000, 0.000000000000000000 ) ;
#730 = PLANE ( 'NONE',  #599 ) ;
#731 = DIRECTION ( 'NONE',  ( 0.000000000000000000, -1.000000000000000000, 0.000000000000000000 ) ) ;
#732 = DIRECTION ( 'NONE',  ( 0.000000000000000000, 0.000000000000000000, -1.000000000000000000 ) ) ;
#733 = AXIS2_PLACEMENT_3D ( 'NONE', #725, #343, #528 ) ;
#734 = CARTESIAN_POINT ( 'NONE',  ( -0.1324999999999999789, 0.01499999999999999424, 0.000000000000000000 ) ) ;
#735 = CIRCLE ( 'NONE', #385, 0.07000000000000000666 ) ;
#736 = EDGE_CURVE ( 'NONE', #423, #383, #623, .T. ) ;
#737 = APPLICATION_PROTOCOL_DEFINITION ( 'draft international standard', 'automotive_design', 1998, #478 ) ;
#738 = EDGE_CURVE ( 'NONE', #423, #581, #447, .T. ) ;
#739 = CARTESIAN_POINT ( 'NONE',  ( -0.1074999999999999845, 0.07000000000000000666, 0.000000000000000000 ) ) ;
#740 = AXIS2_PLACEMENT_3D ( 'NONE', #776, #716, #304 ) ;
#741 = CARTESIAN_POINT ( 'NONE',  ( -0.1074999999999999845, 0.01499999999999999424, 0.000000000000000000 ) ) ;
#742 = CONTEXT_DEPENDENT_SHAPE_REPRESENTATION ( #435, #770 ) ;
#743 = EDGE_LOOP ( 'NONE', ( #516, #84, #506, #350 ) ) ;
#744 = ORIENTED_EDGE ( 'NONE', *, *, #368, .F. ) ;
#745 =( LENGTH_UNIT ( ) NAMED_UNIT ( * ) SI_UNIT ( $, .METRE. ) );
#746 = ORIENTED_EDGE ( 'NONE', *, *, #171, .T. ) ;
#747 = LINE ( 'NONE', #501, #530 ) ;
#748 = ORIENTED_EDGE ( 'NONE', *, *, #207, .T. ) ;
#749 = CYLINDRICAL_SURFACE ( 'NONE', #431, 0.06999999999999999278 ) ;
#750 = CYLINDRICAL_SURFACE ( 'NONE', #52, 0.06999999999999999278 ) ;
#751 = ADVANCED_FACE ( 'NONE', ( #565, #389 ), #688, .F. ) ;
#752 = CARTESIAN_POINT ( 'NONE',  ( 0.000000000000000000, 0.000000000000000000, 0.000000000000000000 ) ) ;
#753 = ORIENTED_EDGE ( 'NONE', *, *, #80, .T. ) ;
#754 = APPLICATION_CONTEXT ( 'automotive_design' ) ;
#755 = DIRECTION ( 'NONE',  ( -1.000000000000000000, -1.288607544181256449E-16, -0.000000000000000000 ) ) ;
#756 = CIRCLE ( 'NONE', #209, 0.07000000000000000666 ) ;
#757 = ORIENTED_EDGE ( 'NONE', *, *, #758, .T. ) ;
#758 = EDGE_CURVE ( 'NONE', #505, #24, #670, .T. ) ;
#759 = FACE_OUTER_BOUND ( 'NONE', #514, .T. ) ;
#760 = DIRECTION ( 'NONE',  ( 1.288607544181256203E-16, -1.000000000000000000, 0.000000000000000000 ) ) ;
#761 = ORIENTED_EDGE ( 'NONE', *, *, #433, .T. ) ;
#762 = EDGE_CURVE ( 'NONE', #455, #713, #322, .T. ) ;
#763 = DIRECTION ( 'NONE',  ( -1.000000000000000000, -1.288607544181256449E-16, -0.000000000000000000 ) ) ;
#764 = CARTESIAN_POINT ( 'NONE',  ( -0.07749999999999997169, 1.707404996040164512E-17, 0.000000000000000000 ) ) ;
#765 = AXIS2_PLACEMENT_3D ( 'NONE', #595, #408, #708 ) ;
#766 = DIRECTION ( 'NONE',  ( -1.288607544181256203E-16, 1.000000000000000000, 0.000000000000000000 ) ) ;
#767 = ORIENTED_EDGE ( 'NONE', *, *, #146, .T. ) ;
#768 = CYLINDRICAL_SURFACE ( 'NONE', #300, 0.05500000000000001416 ) ;
#769 = AXIS2_PLACEMENT_3D ( 'NONE', #739, #381, #129 ) ;
#770 = PRODUCT_DEFINITION_SHAPE ( 'NONE', 'NONE',  #792 ) ;
#771 = VECTOR ( 'NONE', #145, 39.37007874015748143 ) ;
#772 = CARTESIAN_POINT ( 'NONE',  ( -0.1324999999999999789, 0.07000000000000000666, 0.000000000000000000 ) ) ;
#773 = ORIENTED_EDGE ( 'NONE', *, *, #48, .F. ) ;
#774 = FACE_OUTER_BOUND ( 'NONE', #561, .T. ) ;
#775 = ORIENTED_EDGE ( 'NONE', *, *, #783, .F. ) ;
#776 = CARTESIAN_POINT ( 'NONE',  ( -0.1324999999999999789, 0.07000000000000000666, 0.000000000000000000 ) ) ;
#777 = LINE ( 'NONE', #234, #185 ) ;
#778 = DIRECTION ( 'NONE',  ( -1.000000000000000000, -1.288607544181256203E-16, 0.000000000000000000 ) ) ;
#779 = AXIS2_PLACEMENT_3D ( 'NONE', #208, #151, #286 ) ;
#780 = ADVANCED_BREP_SHAPE_REPRESENTATION ( '', ( #617, #370 ), #3 ) ;
#781 = DIRECTION ( 'NONE',  ( 0.000000000000000000, -1.000000000000000000, 0.000000000000000000 ) ) ;
#782 = VECTOR ( 'NONE', #352, 39.37007874015748143 ) ;
#783 = EDGE_CURVE ( 'NONE', #581, #596, #427, .T. ) ;
#784 = FACE_OUTER_BOUND ( 'NONE', #702, .T. ) ;
#785 = PLANE ( 'NONE',  #641 ) ;
#786 = PRESENTATION_STYLE_ASSIGNMENT (( #306 ) ) ;
#787 = APPLICATION_PROTOCOL_DEFINITION ( 'draft international standard', 'automotive_design', 1998, #600 ) ;
#788 = FACE_OUTER_BOUND ( 'NONE', #268, .T. ) ;
#789 = NEXT_ASSEMBLY_USAGE_OCCURRENCE ( 'NAUO1', ' ', ' ', #480, #500, $ ) ;
#790 = NEXT_ASSEMBLY_USAGE_OCCURRENCE ( 'NAUO2', ' ', ' ', #480, #127, $ ) ;
#791 = NEXT_ASSEMBLY_USAGE_OCCURRENCE ( 'NAUO3', ' ', ' ', #480, #414, $ ) ;
#792 = NEXT_ASSEMBLY_USAGE_OCCURRENCE ( 'NAUO4', ' ', ' ', #480, #414, $ ) ;
ENDSEC;
END-ISO-10303-21;
