ISO-10303-21;
HEADER;
FILE_DESCRIPTION (( 'STEP AP214' ),
    '1' );
FILE_NAME ('36911000000.STEP',
    '2024-01-03T09:59:19',
    ( 'LENOVO' ),
    ( '' ),
    'SwSTEP 2.0',
    'SolidWorks 2021',
    '' );
FILE_SCHEMA (( 'AUTOMOTIVE_DESIGN' ));
ENDSEC;

DATA;
#1 = DIRECTION ( 'NONE',  ( -1.000000000000000000, 0.000000000000000000, 0.000000000000000000 ) ) ;
#2 = AXIS2_PLACEMENT_3D ( 'NONE', #1093, #1207, #1198 ) ;
#3 = ORIENTED_EDGE ( 'NONE', *, *, #356, .T. ) ;
#4 = EDGE_CURVE ( 'NONE', #1272, #1137, #669, .T. ) ;
#5 = VECTOR ( 'NONE', #416, 1000.000000000000000 ) ;
#6 = DIRECTION ( 'NONE',  ( 0.000000000000000000, 1.000000000000000000, 0.000000000000000000 ) ) ;
#7 =( LENGTH_UNIT ( ) NAMED_UNIT ( * ) SI_UNIT ( .MILLI., .METRE. ) );
#8 = AXIS2_PLACEMENT_3D ( 'NONE', #269, #1185, #142 ) ;
#9 = FACE_OUTER_BOUND ( 'NONE', #163, .T. ) ;
#10 = CARTESIAN_POINT ( 'NONE',  ( 0.000000000000000000, 0.5000000000000000000, 0.000000000000000000 ) ) ;
#11 = PLANE ( 'NONE',  #776 ) ;
#12 = VECTOR ( 'NONE', #1050, 1000.000000000000000 ) ;
#13 = PRESENTATION_LAYER_ASSIGNMENT (  '', '', ( #533 ) ) ;
#14 = ADVANCED_FACE ( 'NONE', ( #1320 ), #85, .F. ) ;
#15 = AXIS2_PLACEMENT_3D ( 'NONE', #743, #1312, #797 ) ;
#16 = CARTESIAN_POINT ( 'NONE',  ( -2.540000000000000036, -39.04852813742385820, 0.000000000000000000 ) ) ;
#17 = DIRECTION ( 'NONE',  ( 0.000000000000000000, -1.000000000000000000, 0.000000000000000000 ) ) ;
#18 = SURFACE_STYLE_FILL_AREA ( #318 ) ;
#19 = EDGE_CURVE ( 'NONE', #1272, #36, #1324, .T. ) ;
#20 = FACE_OUTER_BOUND ( 'NONE', #562, .T. ) ;
#21 = DIRECTION ( 'NONE',  ( 0.000000000000000000, -0.000000000000000000, 1.000000000000000000 ) ) ;
#22 = ORIENTED_EDGE ( 'NONE', *, *, #19, .F. ) ;
#23 = FACE_OUTER_BOUND ( 'NONE', #705, .T. ) ;
#24 = ORIENTED_EDGE ( 'NONE', *, *, #954, .T. ) ;
#25 = ADVANCED_FACE ( 'NONE', ( #454, #891 ), #1327, .F. ) ;
#26 = VERTEX_POINT ( 'NONE', #749 ) ;
#27 = CARTESIAN_POINT ( 'NONE',  ( -4.000000000000000000, 8.000000000000000000, 2.000000000000000444 ) ) ;
#28 = PLANE ( 'NONE',  #881 ) ;
#29 = EDGE_LOOP ( 'NONE', ( #1009, #125, #1127, #1274 ) ) ;
#30 = CIRCLE ( 'NONE', #811, 0.2500000000000000000 ) ;
#31 = PLANE ( 'NONE',  #1283 ) ;
#32 = ORIENTED_EDGE ( 'NONE', *, *, #721, .F. ) ;
#33 = LINE ( 'NONE', #920, #498 ) ;
#34 = AXIS2_PLACEMENT_3D ( 'NONE', #10, #17, #135 ) ;
#35 = VECTOR ( 'NONE', #1186, 1000.000000000000000 ) ;
#36 = VERTEX_POINT ( 'NONE', #509 ) ;
#37 = PLANE ( 'NONE',  #610 ) ;
#38 = DIRECTION ( 'NONE',  ( -0.000000000000000000, 0.000000000000000000, -1.000000000000000000 ) ) ;
#39 = CYLINDRICAL_SURFACE ( 'NONE', #1022, 0.3000000000000000999 ) ;
#40 = EDGE_CURVE ( 'NONE', #1076, #1289, #1302, .T. ) ;
#41 = VECTOR ( 'NONE', #1315, 1000.000000000000000 ) ;
#42 = ORIENTED_EDGE ( 'NONE', *, *, #1201, .F. ) ;
#43 = LINE ( 'NONE', #1333, #935 ) ;
#44 = FACE_OUTER_BOUND ( 'NONE', #118, .T. ) ;
#45 = MANIFOLD_SOLID_BREP ( 'Boss-Extrude4[2]', #1031 ) ;
#46 = APPLICATION_PROTOCOL_DEFINITION ( 'draft international standard', 'automotive_design', 1998, #786 ) ;
#47 = CARTESIAN_POINT ( 'NONE',  ( -4.000000000000000000, 7.750000000000000000, -1.749999999999999556 ) ) ;
#48 = ORIENTED_EDGE ( 'NONE', *, *, #519, .F. ) ;
#49 = DIRECTION ( 'NONE',  ( -0.000000000000000000, 1.000000000000000000, -0.000000000000000000 ) ) ;
#50 = CARTESIAN_POINT ( 'NONE',  ( -1.499999999999999778, -3.354101966249682931, -0.7499999999999987788 ) ) ;
#51 = CARTESIAN_POINT ( 'NONE',  ( 4.000000000000000000, 7.750000000000000000, -1.749999999999999556 ) ) ;
#52 = VECTOR ( 'NONE', #919, 1000.000000000000000 ) ;
#53 = AXIS2_PLACEMENT_3D ( 'NONE', #1055, #1339, #21 ) ;
#54 = ORIENTED_EDGE ( 'NONE', *, *, #257, .T. ) ;
#55 = FACE_OUTER_BOUND ( 'NONE', #842, .T. ) ;
#56 = EDGE_CURVE ( 'NONE', #964, #665, #1306, .T. ) ;
#57 = ORIENTED_EDGE ( 'NONE', *, *, #335, .T. ) ;
#58 = LINE ( 'NONE', #490, #963 ) ;
#59 = ORIENTED_EDGE ( 'NONE', *, *, #1130, .T. ) ;
#60 = CARTESIAN_POINT ( 'NONE',  ( -1.499999999999999778, -3.354101966249682931, -0.7499999999999987788 ) ) ;
#61 = LINE ( 'NONE', #613, #75 ) ;
#62 = DIRECTION ( 'NONE',  ( 1.000000000000000000, 0.000000000000000000, 0.000000000000000000 ) ) ;
#63 = DIRECTION ( 'NONE',  ( 0.000000000000000000, 1.000000000000000000, -0.000000000000000000 ) ) ;
#64 = VECTOR ( 'NONE', #1123, 1000.000000000000000 ) ;
#65 = ADVANCED_FACE ( 'NONE', ( #901 ), #424, .T. ) ;
#66 = FACE_OUTER_BOUND ( 'NONE', #113, .T. ) ;
#67 = CARTESIAN_POINT ( 'NONE',  ( -4.250000000000000000, 25.39414711402796598, -1.999999999999999556 ) ) ;
#68 = FACE_OUTER_BOUND ( 'NONE', #1063, .T. ) ;
#69 = FILL_AREA_STYLE ('',( #790 ) ) ;
#70 = ORIENTED_EDGE ( 'NONE', *, *, #856, .F. ) ;
#71 = ORIENTED_EDGE ( 'NONE', *, *, #1201, .T. ) ;
#72 = DIRECTION ( 'NONE',  ( 0.000000000000000000, 0.000000000000000000, 1.000000000000000000 ) ) ;
#73 = CARTESIAN_POINT ( 'NONE',  ( 0.000000000000000000, 0.000000000000000000, 0.000000000000000000 ) ) ;
#74 = MECHANICAL_DESIGN_GEOMETRIC_PRESENTATION_REPRESENTATION (  '', ( #450 ), #327 ) ;
#75 = VECTOR ( 'NONE', #778, 1000.000000000000000 ) ;
#76 = VECTOR ( 'NONE', #79, 1000.000000000000000 ) ;
#77 = PRESENTATION_STYLE_ASSIGNMENT (( #1305 ) ) ;
#78 = SURFACE_STYLE_FILL_AREA ( #1209 ) ;
#79 = DIRECTION ( 'NONE',  ( 0.000000000000000000, -1.000000000000000000, 0.000000000000000000 ) ) ;
#80 = EDGE_CURVE ( 'NONE', #36, #170, #866, .T. ) ;
#81 = EDGE_LOOP ( 'NONE', ( #990, #524, #706, #101 ) ) ;
#82 = LINE ( 'NONE', #968, #64 ) ;
#83 = COLOUR_RGB ( '',0.6666666666666666297, 0.4705882352941176405, 0.4509803921568627527 ) ;
#84 = UNCERTAINTY_MEASURE_WITH_UNIT (LENGTH_MEASURE( 1.000000000000000082E-05 ), #1062, 'distance_accuracy_value', 'NONE');
#85 = PLANE ( 'NONE',  #1081 ) ;
#86 = CYLINDRICAL_SURFACE ( 'NONE', #496, 0.2500000000000000000 ) ;
#87 = STYLED_ITEM ( 'NONE', ( #246 ), #1267 ) ;
#88 = CARTESIAN_POINT ( 'NONE',  ( -4.000000000000000000, 7.750000000000000000, 1.750000000000000444 ) ) ;
#89 = CIRCLE ( 'NONE', #549, 0.2499999999999997780 ) ;
#90 = LINE ( 'NONE', #392, #76 ) ;
#91 = LINE ( 'NONE', #268, #131 ) ;
#92 = CYLINDRICAL_SURFACE ( 'NONE', #348, 0.2500000000000000000 ) ;
#93 = LINE ( 'NONE', #212, #537 ) ;
#94 = DIRECTION ( 'NONE',  ( 1.000000000000000000, 0.000000000000000000, -0.000000000000000000 ) ) ;
#95 = SURFACE_STYLE_FILL_AREA ( #587 ) ;
#96 = CIRCLE ( 'NONE', #1229, 0.3000000000000000999 ) ;
#97 = EDGE_LOOP ( 'NONE', ( #1117, #70, #1087, #730, #208, #711, #695, #517 ) ) ;
#98 =( LENGTH_UNIT ( ) NAMED_UNIT ( * ) SI_UNIT ( .MILLI., .METRE. ) );
#99 = VECTOR ( 'NONE', #324, 1000.000000000000000 ) ;
#100 = AXIS2_PLACEMENT_3D ( 'NONE', #1246, #847, #1189 ) ;
#101 = ORIENTED_EDGE ( 'NONE', *, *, #632, .T. ) ;
#102 = DIRECTION ( 'NONE',  ( 1.000000000000000000, 0.000000000000000000, 0.000000000000000000 ) ) ;
#103 = ORIENTED_EDGE ( 'NONE', *, *, #593, .T. ) ;
#104 = EDGE_CURVE ( 'NONE', #361, #1279, #879, .T. ) ;
#105 = EDGE_CURVE ( 'NONE', #1242, #603, #429, .T. ) ;
#106 = VECTOR ( 'NONE', #1215, 1000.000000000000000 ) ;
#107 = ORIENTED_EDGE ( 'NONE', *, *, #591, .T. ) ;
#108 = CARTESIAN_POINT ( 'NONE',  ( 4.000000000000000000, 7.750000000000000000, 0.000000000000000000 ) ) ;
#109 = AXIS2_PLACEMENT_3D ( 'NONE', #16, #49, #382 ) ;
#110 = CARTESIAN_POINT ( 'NONE',  ( -4.000000000000000000, 0.5000000000000004441, 1.750000000000000444 ) ) ;
#111 = ORIENTED_EDGE ( 'NONE', *, *, #104, .F. ) ;
#112 = CIRCLE ( 'NONE', #420, 0.2500000000000000000 ) ;
#113 = EDGE_LOOP ( 'NONE', ( #1032, #1101, #215, #1051 ) ) ;
#114 = AXIS2_PLACEMENT_3D ( 'NONE', #870, #38, #982 ) ;
#115 = FILL_AREA_STYLE ('',( #1180 ) ) ;
#116 = CARTESIAN_POINT ( 'NONE',  ( -4.000000000000000000, 25.39414711402796598, 2.000000000000000444 ) ) ;
#117 = FILL_AREA_STYLE ('',( #351 ) ) ;
#118 = EDGE_LOOP ( 'NONE', ( #1036, #387, #616, #658, #574, #976, #173, #618 ) ) ;
#119 = ADVANCED_FACE ( 'NONE', ( #9 ), #11, .F. ) ;
#120 = EDGE_LOOP ( 'NONE', ( #703, #723, #927, #681 ) ) ;
#121 = ADVANCED_FACE ( 'NONE', ( #20 ), #463, .T. ) ;
#122 = DIRECTION ( 'NONE',  ( 0.000000000000000000, 1.000000000000000000, 0.000000000000000000 ) ) ;
#123 = EDGE_CURVE ( 'NONE', #168, #636, #917, .T. ) ;
#124 = CARTESIAN_POINT ( 'NONE',  ( -3.850000000000000533, 0.5000000000000000000, -1.600000000000000311 ) ) ;
#125 = ORIENTED_EDGE ( 'NONE', *, *, #1114, .F. ) ;
#126 =( NAMED_UNIT ( * ) PLANE_ANGLE_UNIT ( ) SI_UNIT ( $, .RADIAN. ) );
#127 = CARTESIAN_POINT ( 'NONE',  ( 0.000000000000000000, 0.5000000000000000000, 0.000000000000000000 ) ) ;
#128 = SURFACE_SIDE_STYLE ('',( #604 ) ) ;
#129 = VERTEX_POINT ( 'NONE', #1165 ) ;
#130 = VERTEX_POINT ( 'NONE', #555 ) ;
#131 = VECTOR ( 'NONE', #828, 1000.000000000000000 ) ;
#132 = AXIS2_PLACEMENT_3D ( 'NONE', #680, #6, #854 ) ;
#133 = PRODUCT_DEFINITION_SHAPE ( 'NONE', 'NONE',  #597 ) ;
#134 = VERTEX_POINT ( 'NONE', #147 ) ;
#135 = DIRECTION ( 'NONE',  ( 0.000000000000000000, -0.000000000000000000, -1.000000000000000000 ) ) ;
#136 = DIRECTION ( 'NONE',  ( -0.000000000000000000, 0.000000000000000000, -1.000000000000000000 ) ) ;
#137 = EDGE_CURVE ( 'NONE', #589, #1104, #946, .T. ) ;
#138 = ORIENTED_EDGE ( 'NONE', *, *, #905, .F. ) ;
#139 = VERTEX_POINT ( 'NONE', #678 ) ;
#140 = EDGE_CURVE ( 'NONE', #130, #1047, #911, .T. ) ;
#141 = VERTEX_POINT ( 'NONE', #1174 ) ;
#142 = DIRECTION ( 'NONE',  ( -1.000000000000000000, 0.000000000000000000, -0.000000000000000000 ) ) ;
#143 = ORIENTED_EDGE ( 'NONE', *, *, #56, .F. ) ;
#144 = COLOUR_RGB ( '',0.2509803921568627416, 0.2509803921568627416, 0.2509803921568627416 ) ;
#145 = DIRECTION ( 'NONE',  ( 0.000000000000000000, -1.000000000000000000, 0.000000000000000000 ) ) ;
#146 = CARTESIAN_POINT ( 'NONE',  ( 3.850000000000000533, 0.000000000000000000, 0.7499999999999988898 ) ) ;
#147 = CARTESIAN_POINT ( 'NONE',  ( 1.500000000000000222, 0.7999999999999999334, 0.7499999999999988898 ) ) ;
#148 = ORIENTED_EDGE ( 'NONE', *, *, #284, .T. ) ;
#149 = ADVANCED_FACE ( 'NONE', ( #44 ), #248, .F. ) ;
#150 = ORIENTED_EDGE ( 'NONE', *, *, #1285, .F. ) ;
#151 = LINE ( 'NONE', #1160, #638 ) ;
#152 = AXIS2_PLACEMENT_3D ( 'NONE', #51, #191, #727 ) ;
#153 = PLANE ( 'NONE',  #414 ) ;
#154 = EDGE_LOOP ( 'NONE', ( #491, #189, #978, #271 ) ) ;
#155 = EDGE_CURVE ( 'NONE', #494, #964, #953, .T. ) ;
#156 = DIRECTION ( 'NONE',  ( 0.000000000000000000, 1.000000000000000000, 0.000000000000000000 ) ) ;
#157 = VERTEX_POINT ( 'NONE', #1243 ) ;
#158 = VERTEX_POINT ( 'NONE', #339 ) ;
#159 = ORIENTED_EDGE ( 'NONE', *, *, #140, .F. ) ;
#160 = ORIENTED_EDGE ( 'NONE', *, *, #456, .T. ) ;
#161 = CARTESIAN_POINT ( 'NONE',  ( 3.849999999999999645, 0.7999999999999999334, -1.600000000000000311 ) ) ;
#162 = CARTESIAN_POINT ( 'NONE',  ( 4.250000000000000000, 7.750000000000000000, -1.749999999999999556 ) ) ;
#163 = EDGE_LOOP ( 'NONE', ( #1040, #1070, #1173, #939 ) ) ;
#164 = DIRECTION ( 'NONE',  ( 0.000000000000000000, -0.000000000000000000, 1.000000000000000000 ) ) ;
#165 = EDGE_LOOP ( 'NONE', ( #1196, #724, #762, #1065 ) ) ;
#166 = CARTESIAN_POINT ( 'NONE',  ( -3.850000000000000533, 0.5000000000000000000, -1.600000000000000311 ) ) ;
#167 = ORIENTED_EDGE ( 'NONE', *, *, #335, .F. ) ;
#168 = VERTEX_POINT ( 'NONE', #937 ) ;
#169 = AXIS2_PLACEMENT_3D ( 'NONE', #913, #333, #72 ) ;
#170 = VERTEX_POINT ( 'NONE', #1035 ) ;
#171 = PRODUCT_CONTEXT ( 'NONE', #786, 'mechanical' ) ;
#172 = DIRECTION ( 'NONE',  ( 0.000000000000000000, 1.000000000000000000, 0.000000000000000000 ) ) ;
#173 = ORIENTED_EDGE ( 'NONE', *, *, #1190, .F. ) ;
#174 = EDGE_CURVE ( 'NONE', #1013, #592, #505, .T. ) ;
#175 = ORIENTED_EDGE ( 'NONE', *, *, #856, .T. ) ;
#176 = CARTESIAN_POINT ( 'NONE',  ( -3.850000000000000533, 0.7999999999999999334, 1.600000000000000311 ) ) ;
#177 = CARTESIAN_POINT ( 'NONE',  ( -2.540000000000000036, -19.10000000000000142, -0.3000000000000000999 ) ) ;
#178 = EDGE_LOOP ( 'NONE', ( #1162, #707, #663, #657 ) ) ;
#179 = CARTESIAN_POINT ( 'NONE',  ( -1.499999999999999778, 0.000000000000000000, 0.7499999999999990008 ) ) ;
#180 = EDGE_CURVE ( 'NONE', #949, #534, #918, .T. ) ;
#181 = ORIENTED_EDGE ( 'NONE', *, *, #104, .T. ) ;
#182 = VERTEX_POINT ( 'NONE', #423 ) ;
#183 = CARTESIAN_POINT ( 'NONE',  ( -4.250000000000000000, 7.750000000000000000, -1.999999999999999556 ) ) ;
#184 = ORIENTED_EDGE ( 'NONE', *, *, #1151, .F. ) ;
#185 = VERTEX_POINT ( 'NONE', #528 ) ;
#186 = VERTEX_POINT ( 'NONE', #660 ) ;
#187 = FILL_AREA_STYLE_COLOUR ( '', #938 ) ;
#188 = VECTOR ( 'NONE', #1034, 1000.000000000000000 ) ;
#189 = ORIENTED_EDGE ( 'NONE', *, *, #788, .F. ) ;
#190 = CARTESIAN_POINT ( 'NONE',  ( 4.250000000000000000, 7.750000000000000000, 2.000000000000000444 ) ) ;
#191 = DIRECTION ( 'NONE',  ( -0.000000000000000000, 1.000000000000000000, 0.000000000000000000 ) ) ;
#192 = LINE ( 'NONE', #1019, #1082 ) ;
#193 = ORIENTED_EDGE ( 'NONE', *, *, #1325, .F. ) ;
#194 = LINE ( 'NONE', #405, #651 ) ;
#195 = ORIENTED_EDGE ( 'NONE', *, *, #470, .T. ) ;
#196 = AXIS2_PLACEMENT_3D ( 'NONE', #310, #374, #466 ) ;
#197 = EDGE_LOOP ( 'NONE', ( #143, #626 ) ) ;
#198 = LINE ( 'NONE', #635, #188 ) ;
#199 = ORIENTED_EDGE ( 'NONE', *, *, #726, .T. ) ;
#200 = SURFACE_STYLE_USAGE ( .BOTH. , #477 ) ;
#201 = ORIENTED_EDGE ( 'NONE', *, *, #257, .F. ) ;
#202 = VECTOR ( 'NONE', #1038, 1000.000000000000000 ) ;
#203 = VECTOR ( 'NONE', #841, 1000.000000000000000 ) ;
#204 = EDGE_LOOP ( 'NONE', ( #274, #961, #679, #59 ) ) ;
#205 = DIRECTION ( 'NONE',  ( -0.000000000000000000, 0.000000000000000000, 1.000000000000000000 ) ) ;
#206 = DIRECTION ( 'NONE',  ( -0.000000000000000000, 1.000000000000000000, -0.000000000000000000 ) ) ;
#207 = LINE ( 'NONE', #821, #662 ) ;
#208 = ORIENTED_EDGE ( 'NONE', *, *, #1027, .T. ) ;
#209 = CIRCLE ( 'NONE', #834, 0.2500000000000000000 ) ;
#210 = ORIENTED_EDGE ( 'NONE', *, *, #632, .F. ) ;
#211 = VECTOR ( 'NONE', #1214, 1000.000000000000000 ) ;
#212 = CARTESIAN_POINT ( 'NONE',  ( 1.500000000000000222, -3.354101966249682931, 0.7499999999999988898 ) ) ;
#213 = VECTOR ( 'NONE', #906, 1000.000000000000000 ) ;
#214 = ORIENTED_EDGE ( 'NONE', *, *, #884, .F. ) ;
#215 = ORIENTED_EDGE ( 'NONE', *, *, #777, .F. ) ;
#216 = VECTOR ( 'NONE', #1204, 1000.000000000000000 ) ;
#217 = LINE ( 'NONE', #522, #1134 ) ;
#218 = SURFACE_SIDE_STYLE ('',( #417 ) ) ;
#219 = EDGE_LOOP ( 'NONE', ( #232, #970, #1149, #674 ) ) ;
#220 = FACE_OUTER_BOUND ( 'NONE', #391, .T. ) ;
#221 = ORIENTED_EDGE ( 'NONE', *, *, #240, .F. ) ;
#222 = DIRECTION ( 'NONE',  ( -1.000000000000000000, 0.000000000000000000, 0.000000000000000000 ) ) ;
#223 = VERTEX_POINT ( 'NONE', #765 ) ;
#224 = VECTOR ( 'NONE', #840, 1000.000000000000000 ) ;
#225 = AXIS2_PLACEMENT_3D ( 'NONE', #701, #355, #297 ) ;
#226 = ORIENTED_EDGE ( 'NONE', *, *, #1130, .F. ) ;
#227 = EDGE_LOOP ( 'NONE', ( #503, #24, #925, #1046 ) ) ;
#228 = LINE ( 'NONE', #929, #202 ) ;
#229 = CARTESIAN_POINT ( 'NONE',  ( -4.250000000000000000, 25.39414711402796598, -1.749999999999999334 ) ) ;
#230 = EDGE_CURVE ( 'NONE', #1141, #952, #480, .T. ) ;
#231 = PRESENTATION_STYLE_ASSIGNMENT (( #837 ) ) ;
#232 = ORIENTED_EDGE ( 'NONE', *, *, #385, .T. ) ;
#233 = LINE ( 'NONE', #431, #1095 ) ;
#234 = EDGE_LOOP ( 'NONE', ( #167, #226, #193, #48 ) ) ;
#235 = FACE_OUTER_BOUND ( 'NONE', #204, .T. ) ;
#236 = EDGE_LOOP ( 'NONE', ( #506, #715, #882, #1161 ) ) ;
#237 = VECTOR ( 'NONE', #868, 1000.000000000000000 ) ;
#238 = SURFACE_STYLE_FILL_AREA ( #69 ) ;
#239 = LINE ( 'NONE', #1002, #685 ) ;
#240 = EDGE_CURVE ( 'NONE', #1021, #129, #460, .T. ) ;
#241 = VECTOR ( 'NONE', #585, 1000.000000000000000 ) ;
#242 = VECTOR ( 'NONE', #1286, 1000.000000000000000 ) ;
#243 = VECTOR ( 'NONE', #1192, 1000.000000000000000 ) ;
#244 = ORIENTED_EDGE ( 'NONE', *, *, #1086, .T. ) ;
#245 = FACE_OUTER_BOUND ( 'NONE', #451, .T. ) ;
#246 = PRESENTATION_STYLE_ASSIGNMENT (( #1257 ) ) ;
#247 = SURFACE_SIDE_STYLE ('',( #692 ) ) ;
#248 = PLANE ( 'NONE',  #569 ) ;
#249 = ORIENTED_EDGE ( 'NONE', *, *, #174, .F. ) ;
#250 = AXIS2_PLACEMENT_3D ( 'NONE', #818, #1139, #381 ) ;
#251 = CARTESIAN_POINT ( 'NONE',  ( 4.000000000000000000, 7.750000000000000000, -1.749999999999999556 ) ) ;
#252 = ORIENTED_EDGE ( 'NONE', *, *, #345, .T. ) ;
#253 = EDGE_CURVE ( 'NONE', #1167, #362, #483, .T. ) ;
#254 = DIRECTION ( 'NONE',  ( 0.000000000000000000, 0.000000000000000000, 1.000000000000000000 ) ) ;
#255 = CIRCLE ( 'NONE', #1269, 0.2500000000000000000 ) ;
#256 = ADVANCED_FACE ( 'NONE', ( #23 ), #931, .T. ) ;
#257 = EDGE_CURVE ( 'NONE', #139, #805, #486, .T. ) ;
#258 = ORIENTED_EDGE ( 'NONE', *, *, #830, .F. ) ;
#259 = CIRCLE ( 'NONE', #962, 0.2500000000000002220 ) ;
#260 = DIRECTION ( 'NONE',  ( 0.000000000000000000, -0.000000000000000000, 1.000000000000000000 ) ) ;
#261 = ORIENTED_EDGE ( 'NONE', *, *, #740, .F. ) ;
#262 = UNCERTAINTY_MEASURE_WITH_UNIT (LENGTH_MEASURE( 1.000000000000000082E-05 ), #535, 'distance_accuracy_value', 'NONE');
#263 = COLOUR_RGB ( '',0.7921568627450980005, 0.8196078431372548767, 0.9333333333333333481 ) ;
#264 = VERTEX_POINT ( 'NONE', #179 ) ;
#265 = SURFACE_SIDE_STYLE ('',( #1088 ) ) ;
#266 = CARTESIAN_POINT ( 'NONE',  ( -3.850000000000000533, 0.7999999999999999334, 1.600000000000000311 ) ) ;
#267 = ORIENTED_EDGE ( 'NONE', *, *, #1169, .T. ) ;
#268 = CARTESIAN_POINT ( 'NONE',  ( 3.849999999999999645, 0.7999999999999999334, 1.600000000000000311 ) ) ;
#269 = CARTESIAN_POINT ( 'NONE',  ( -1.499999999999999778, -3.354101966249682931, 0.7499999999999988898 ) ) ;
#270 = MANIFOLD_SOLID_BREP ( 'Boss-Extrude4[1]', #1266 ) ;
#271 = ORIENTED_EDGE ( 'NONE', *, *, #329, .F. ) ;
#272 = DIRECTION ( 'NONE',  ( 1.000000000000000000, 0.000000000000000000, 0.000000000000000000 ) ) ;
#273 = ADVANCED_FACE ( 'NONE', ( #551 ), #526, .T. ) ;
#274 = ORIENTED_EDGE ( 'NONE', *, *, #105, .F. ) ;
#275 = AXIS2_PLACEMENT_3D ( 'NONE', #88, #800, #1142 ) ;
#276 = ADVANCED_FACE ( 'NONE', ( #973 ), #28, .F. ) ;
#277 = LINE ( 'NONE', #176, #241 ) ;
#278 = CARTESIAN_POINT ( 'NONE',  ( 4.000000000000000000, 0.5000000000000004441, 1.750000000000000444 ) ) ;
#279 = PLANE ( 'NONE',  #378 ) ;
#280 = ORIENTED_EDGE ( 'NONE', *, *, #155, .T. ) ;
#281 = EDGE_CURVE ( 'NONE', #589, #563, #512, .T. ) ;
#282 = CYLINDRICAL_SURFACE ( 'NONE', #109, 0.3000000000000000999 ) ;
#283 = ORIENTED_EDGE ( 'NONE', *, *, #1265, .T. ) ;
#284 = EDGE_CURVE ( 'NONE', #534, #26, #1001, .T. ) ;
#285 = DIRECTION ( 'NONE',  ( 1.000000000000000000, 0.000000000000000000, 0.000000000000000000 ) ) ;
#286 = CARTESIAN_POINT ( 'NONE',  ( -4.000000000000000000, 7.750000000000000000, 2.000000000000000444 ) ) ;
#287 = CARTESIAN_POINT ( 'NONE',  ( -3.850000000000000533, 0.7999999999999999334, -1.600000000000000311 ) ) ;
#288 = DIRECTION ( 'NONE',  ( -0.000000000000000000, 1.000000000000000000, -0.000000000000000000 ) ) ;
#289 = ORIENTED_EDGE ( 'NONE', *, *, #1114, .T. ) ;
#290 = ORIENTED_EDGE ( 'NONE', *, *, #323, .T. ) ;
#291 = CARTESIAN_POINT ( 'NONE',  ( -4.250000000000000000, -1.552417469626002466, 0.7499999999999988898 ) ) ;
#292 = LINE ( 'NONE', #190, #1175 ) ;
#293 = DIRECTION ( 'NONE',  ( -0.000000000000000000, 1.000000000000000000, -0.000000000000000000 ) ) ;
#294 = CARTESIAN_POINT ( 'NONE',  ( -2.540000000000000036, 0.7999999999999999334, -0.3000000000000000999 ) ) ;
#295 = MECHANICAL_DESIGN_GEOMETRIC_PRESENTATION_REPRESENTATION (  '', ( #795 ), #926 ) ;
#296 = FACE_OUTER_BOUND ( 'NONE', #622, .T. ) ;
#297 = DIRECTION ( 'NONE',  ( 0.000000000000000000, 0.000000000000000000, 1.000000000000000000 ) ) ;
#298 = ORIENTED_EDGE ( 'NONE', *, *, #123, .F. ) ;
#299 = VERTEX_POINT ( 'NONE', #367 ) ;
#300 = ORIENTED_EDGE ( 'NONE', *, *, #1222, .T. ) ;
#301 = CARTESIAN_POINT ( 'NONE',  ( 4.250000000000000000, 7.750000000000000000, 1.750000000000000444 ) ) ;
#302 = CARTESIAN_POINT ( 'NONE',  ( 0.000000000000000000, 0.5000000000000000000, 0.7499999999999988898 ) ) ;
#303 = CARTESIAN_POINT ( 'NONE',  ( 4.000000000000000000, 7.750000000000000000, -1.749999999999999556 ) ) ;
#304 = DIRECTION ( 'NONE',  ( 0.000000000000000000, -1.000000000000000000, 0.000000000000000000 ) ) ;
#305 = ORIENTED_EDGE ( 'NONE', *, *, #281, .F. ) ;
#306 = AXIS2_PLACEMENT_3D ( 'NONE', #377, #590, #468 ) ;
#307 = EDGE_CURVE ( 'NONE', #1245, #1172, #112, .T. ) ;
#308 = CARTESIAN_POINT ( 'NONE',  ( -3.850000000000000533, 0.7999999999999999334, -1.600000000000000311 ) ) ;
#309 = DIRECTION ( 'NONE',  ( 1.000000000000000000, 0.000000000000000000, 0.000000000000000000 ) ) ;
#310 = CARTESIAN_POINT ( 'NONE',  ( -4.250000000000000000, 25.39414711402796598, 2.000000000000000444 ) ) ;
#311 = DIRECTION ( 'NONE',  ( 0.000000000000000000, 0.000000000000000000, -1.000000000000000000 ) ) ;
#312 = DIRECTION ( 'NONE',  ( 0.000000000000000000, 1.000000000000000000, 0.000000000000000000 ) ) ;
#313 = CARTESIAN_POINT ( 'NONE',  ( -4.250000000000000000, 0.000000000000000000, -0.7500000000000011102 ) ) ;
#314 = CARTESIAN_POINT ( 'NONE',  ( -4.250000000000000000, 0.5000000000000000000, -0.7500000000000011102 ) ) ;
#315 = DIRECTION ( 'NONE',  ( -0.000000000000000000, 1.000000000000000000, 0.000000000000000000 ) ) ;
#316 = DIRECTION ( 'NONE',  ( 0.000000000000000000, 0.000000000000000000, -1.000000000000000000 ) ) ;
#317 = AXIS2_PLACEMENT_3D ( 'NONE', #47, #312, #807 ) ;
#318 = FILL_AREA_STYLE ('',( #187 ) ) ;
#319 = EDGE_CURVE ( 'NONE', #1172, #971, #987, .T. ) ;
#320 = ADVANCED_FACE ( 'NONE', ( #55 ), #508, .T. ) ;
#321 = CARTESIAN_POINT ( 'NONE',  ( 2.540000000000000036, -39.04852813742385820, 0.000000000000000000 ) ) ;
#322 = DIRECTION ( 'NONE',  ( 0.000000000000000000, 0.000000000000000000, 1.000000000000000000 ) ) ;
#323 = EDGE_CURVE ( 'NONE', #636, #629, #58, .T. ) ;
#324 = DIRECTION ( 'NONE',  ( 0.000000000000000000, -0.000000000000000000, -1.000000000000000000 ) ) ;
#325 =( NAMED_UNIT ( * ) SI_UNIT ( $, .STERADIAN. ) SOLID_ANGLE_UNIT ( ) );
#326 = DIRECTION ( 'NONE',  ( -1.000000000000000000, -0.000000000000000000, -0.000000000000000000 ) ) ;
#327 =( GEOMETRIC_REPRESENTATION_CONTEXT ( 3 ) GLOBAL_UNCERTAINTY_ASSIGNED_CONTEXT ( ( #570 ) ) GLOBAL_UNIT_ASSIGNED_CONTEXT ( ( #732, #1301, #336 ) ) REPRESENTATION_CONTEXT ( 'NONE', 'WORKASPACE' ) );
#328 = FILL_AREA_STYLE_COLOUR ( '', #445 ) ;
#329 = EDGE_CURVE ( 'NONE', #1144, #1089, #61, .T. ) ;
#330 = DIRECTION ( 'NONE',  ( 1.000000000000000000, -0.000000000000000000, 0.000000000000000000 ) ) ;
#331 = DIRECTION ( 'NONE',  ( 0.000000000000000000, 1.000000000000000000, -0.000000000000000000 ) ) ;
#332 =( NAMED_UNIT ( * ) PLANE_ANGLE_UNIT ( ) SI_UNIT ( $, .RADIAN. ) );
#333 = DIRECTION ( 'NONE',  ( 0.000000000000000000, 1.000000000000000000, 0.000000000000000000 ) ) ;
#334 = CARTESIAN_POINT ( 'NONE',  ( 2.540000000000000036, 0.7999999999999999334, 0.000000000000000000 ) ) ;
#335 = EDGE_CURVE ( 'NONE', #603, #808, #82, .T. ) ;
#336 =( NAMED_UNIT ( * ) SI_UNIT ( $, .STERADIAN. ) SOLID_ANGLE_UNIT ( ) );
#337 = ADVANCED_FACE ( 'NONE', ( #66 ), #983, .T. ) ;
#338 = DIRECTION ( 'NONE',  ( -1.000000000000000000, 0.000000000000000000, -0.000000000000000000 ) ) ;
#339 = CARTESIAN_POINT ( 'NONE',  ( -4.000000000000000000, 8.000000000000000000, -1.749999999999999556 ) ) ;
#340 = AXIS2_PLACEMENT_3D ( 'NONE', #353, #1092, #457 ) ;
#341 = ADVANCED_FACE ( 'NONE', ( #68 ), #783, .F. ) ;
#342 =( LENGTH_UNIT ( ) NAMED_UNIT ( * ) SI_UNIT ( .MILLI., .METRE. ) );
#343 = PLANE ( 'NONE',  #395 ) ;
#344 = ADVANCED_FACE ( 'NONE', ( #520 ), #1282, .F. ) ;
#345 = EDGE_CURVE ( 'NONE', #805, #26, #536, .T. ) ;
#346 = DIRECTION ( 'NONE',  ( 0.000000000000000000, 0.000000000000000000, -1.000000000000000000 ) ) ;
#347 = CARTESIAN_POINT ( 'NONE',  ( 3.849999999999999645, 0.5000000000000000000, -1.600000000000000311 ) ) ;
#348 = AXIS2_PLACEMENT_3D ( 'NONE', #716, #285, #852 ) ;
#349 = DIRECTION ( 'NONE',  ( 1.000000000000000000, 0.000000000000000000, -0.000000000000000000 ) ) ;
#350 = DIRECTION ( 'NONE',  ( -0.000000000000000000, 1.000000000000000000, -0.000000000000000000 ) ) ;
#351 = FILL_AREA_STYLE_COLOUR ( '', #144 ) ;
#352 = DIRECTION ( 'NONE',  ( -0.000000000000000000, 1.000000000000000000, -0.000000000000000000 ) ) ;
#353 = CARTESIAN_POINT ( 'NONE',  ( 0.000000000000000000, -19.10000000000000142, 0.000000000000000000 ) ) ;
#354 = AXIS2_PLACEMENT_3D ( 'NONE', #633, #205, #62 ) ;
#355 = DIRECTION ( 'NONE',  ( -0.000000000000000000, 1.000000000000000000, 0.000000000000000000 ) ) ;
#356 = EDGE_CURVE ( 'NONE', #182, #362, #91, .T. ) ;
#357 = DIRECTION ( 'NONE',  ( 0.000000000000000000, 0.000000000000000000, -1.000000000000000000 ) ) ;
#358 = CARTESIAN_POINT ( 'NONE',  ( -4.250000000000000000, 0.5000000000000000000, -1.749999999999999334 ) ) ;
#359 = VERTEX_POINT ( 'NONE', #1316 ) ;
#360 = PLANE ( 'NONE',  #132 ) ;
#361 = VERTEX_POINT ( 'NONE', #1236 ) ;
#362 = VERTEX_POINT ( 'NONE', #1259 ) ;
#363 = EDGE_LOOP ( 'NONE', ( #903, #298, #1138, #922 ) ) ;
#364 = LINE ( 'NONE', #941, #1254 ) ;
#365 = DIRECTION ( 'NONE',  ( 1.000000000000000000, 0.000000000000000000, 0.000000000000000000 ) ) ;
#366 = CIRCLE ( 'NONE', #986, 0.2500000000000000000 ) ;
#367 = CARTESIAN_POINT ( 'NONE',  ( -4.250000000000000000, 7.750000000000000000, -1.749999999999999334 ) ) ;
#368 =( GEOMETRIC_REPRESENTATION_CONTEXT ( 3 ) GLOBAL_UNCERTAINTY_ASSIGNED_CONTEXT ( ( #84 ) ) GLOBAL_UNIT_ASSIGNED_CONTEXT ( ( #1062, #936, #415 ) ) REPRESENTATION_CONTEXT ( 'NONE', 'WORKASPACE' ) );
#369 = VECTOR ( 'NONE', #288, 1000.000000000000000 ) ;
#370 = DIRECTION ( 'NONE',  ( 0.000000000000000000, -0.000000000000000000, -1.000000000000000000 ) ) ;
#371 = EDGE_CURVE ( 'NONE', #629, #589, #582, .T. ) ;
#372 = PLANE ( 'NONE',  #1148 ) ;
#373 = LINE ( 'NONE', #561, #369 ) ;
#374 = DIRECTION ( 'NONE',  ( 1.000000000000000000, -0.000000000000000000, 0.000000000000000000 ) ) ;
#375 = EDGE_LOOP ( 'NONE', ( #558, #195, #258, #221, #1146, #1000, #184, #267, #648, #1158 ) ) ;
#376 = FACE_OUTER_BOUND ( 'NONE', #197, .T. ) ;
#377 = CARTESIAN_POINT ( 'NONE',  ( 4.250000000000000000, 25.39414711402796598, 2.000000000000000444 ) ) ;
#378 = AXIS2_PLACEMENT_3D ( 'NONE', #266, #436, #94 ) ;
#379 = ORIENTED_EDGE ( 'NONE', *, *, #307, .T. ) ;
#380 = APPLICATION_CONTEXT ( 'automotive_design' ) ;
#381 = DIRECTION ( 'NONE',  ( 0.000000000000000000, 0.000000000000000000, 1.000000000000000000 ) ) ;
#382 = DIRECTION ( 'NONE',  ( 0.000000000000000000, 0.000000000000000000, 1.000000000000000000 ) ) ;
#383 =( NAMED_UNIT ( * ) SI_UNIT ( $, .STERADIAN. ) SOLID_ANGLE_UNIT ( ) );
#384 = DIRECTION ( 'NONE',  ( 0.000000000000000000, 0.000000000000000000, -1.000000000000000000 ) ) ;
#385 = EDGE_CURVE ( 'NONE', #1245, #563, #1025, .T. ) ;
#386 =( NAMED_UNIT ( * ) SI_UNIT ( $, .STERADIAN. ) SOLID_ANGLE_UNIT ( ) );
#387 = ORIENTED_EDGE ( 'NONE', *, *, #438, .F. ) ;
#388 = CARTESIAN_POINT ( 'NONE',  ( -2.540000000000000036, 0.7999999999999999334, 0.000000000000000000 ) ) ;
#389 = FILL_AREA_STYLE_COLOUR ( '', #544 ) ;
#390 = VERTEX_POINT ( 'NONE', #1028 ) ;
#391 = EDGE_LOOP ( 'NONE', ( #1039, #1255, #822, #599 ) ) ;
#392 = CARTESIAN_POINT ( 'NONE',  ( 4.250000000000000000, 25.39414711402796598, 1.750000000000000444 ) ) ;
#393 = LINE ( 'NONE', #308, #1241 ) ;
#394 = ADVANCED_FACE ( 'NONE', ( #1045 ), #343, .F. ) ;
#395 = AXIS2_PLACEMENT_3D ( 'NONE', #419, #1247, #428 ) ;
#396 =( NAMED_UNIT ( * ) SI_UNIT ( $, .STERADIAN. ) SOLID_ANGLE_UNIT ( ) );
#397 = EDGE_CURVE ( 'NONE', #1080, #129, #151, .T. ) ;
#398 = UNCERTAINTY_MEASURE_WITH_UNIT (LENGTH_MEASURE( 1.000000000000000082E-05 ), #581, 'distance_accuracy_value', 'NONE');
#399 = SURFACE_STYLE_USAGE ( .BOTH. , #1220 ) ;
#400 = DIRECTION ( 'NONE',  ( 0.000000000000000000, 0.000000000000000000, 1.000000000000000000 ) ) ;
#401 = SURFACE_SIDE_STYLE ('',( #78 ) ) ;
#402 = PRODUCT_DEFINITION_FORMATION_WITH_SPECIFIED_SOURCE ( 'ANY', '', #516, .NOT_KNOWN. ) ;
#403 = DIRECTION ( 'NONE',  ( -0.000000000000000000, 1.000000000000000000, -0.000000000000000000 ) ) ;
#404 = DIRECTION ( 'NONE',  ( 0.000000000000000000, 0.000000000000000000, 1.000000000000000000 ) ) ;
#405 = CARTESIAN_POINT ( 'NONE',  ( -3.850000000000000533, 0.7999999999999999334, -1.600000000000000311 ) ) ;
#406 = DIRECTION ( 'NONE',  ( 0.000000000000000000, 1.000000000000000000, 0.000000000000000000 ) ) ;
#407 = PRESENTATION_LAYER_ASSIGNMENT (  '', '', ( #863 ) ) ;
#408 = VECTOR ( 'NONE', #293, 1000.000000000000000 ) ;
#409 = DIRECTION ( 'NONE',  ( -1.000000000000000000, 0.000000000000000000, -0.000000000000000000 ) ) ;
#410 = EDGE_CURVE ( 'NONE', #26, #185, #1099, .T. ) ;
#411 = CARTESIAN_POINT ( 'NONE',  ( -3.850000000000000533, 0.5000000000000000000, 1.600000000000000311 ) ) ;
#412 = EDGE_CURVE ( 'NONE', #1047, #1021, #194, .T. ) ;
#413 = CARTESIAN_POINT ( 'NONE',  ( -3.850000000000000533, -1.552417469626002466, 0.7499999999999988898 ) ) ;
#414 = AXIS2_PLACEMENT_3D ( 'NONE', #291, #357, #1171 ) ;
#415 =( NAMED_UNIT ( * ) SI_UNIT ( $, .STERADIAN. ) SOLID_ANGLE_UNIT ( ) );
#416 = DIRECTION ( 'NONE',  ( -0.000000000000000000, 1.000000000000000000, -0.000000000000000000 ) ) ;
#417 = SURFACE_STYLE_FILL_AREA ( #1128 ) ;
#418 = PLANE ( 'NONE',  #354 ) ;
#419 = CARTESIAN_POINT ( 'NONE',  ( -1.499999999999999778, -3.354101966249682931, -0.7499999999999987788 ) ) ;
#420 = AXIS2_PLACEMENT_3D ( 'NONE', #1011, #1143, #322 ) ;
#421 = DIRECTION ( 'NONE',  ( -0.000000000000000000, 1.000000000000000000, -0.000000000000000000 ) ) ;
#422 = COLOUR_RGB ( '',0.2509803921568627416, 0.2509803921568627416, 0.2509803921568627416 ) ;
#423 = CARTESIAN_POINT ( 'NONE',  ( 3.849999999999999645, 0.7999999999999999334, 1.600000000000000311 ) ) ;
#424 = SPHERICAL_SURFACE ( 'NONE', #317, 0.2500000000000000000 ) ;
#425 = EDGE_CURVE ( 'NONE', #170, #36, #1085, .T. ) ;
#426 = VECTOR ( 'NONE', #441, 1000.000000000000000 ) ;
#427 = PLANE ( 'NONE',  #621 ) ;
#428 = DIRECTION ( 'NONE',  ( 1.000000000000000000, 0.000000000000000000, 0.000000000000000000 ) ) ;
#429 = LINE ( 'NONE', #60, #871 ) ;
#430 = LINE ( 'NONE', #725, #1323 ) ;
#431 = CARTESIAN_POINT ( 'NONE',  ( 4.000000000000000000, 25.39414711402796598, 2.000000000000000444 ) ) ;
#432 = LINE ( 'NONE', #302, #865 ) ;
#433 = AXIS2_PLACEMENT_3D ( 'NONE', #67, #1284, #1113 ) ;
#434 = LINE ( 'NONE', #774, #880 ) ;
#435 = DIRECTION ( 'NONE',  ( 0.000000000000000000, 0.000000000000000000, 1.000000000000000000 ) ) ;
#436 = DIRECTION ( 'NONE',  ( 0.000000000000000000, 0.000000000000000000, 1.000000000000000000 ) ) ;
#437 = DIRECTION ( 'NONE',  ( -0.000000000000000000, -1.000000000000000000, -0.000000000000000000 ) ) ;
#438 = EDGE_CURVE ( 'NONE', #1089, #1256, #645, .T. ) ;
#439 = LINE ( 'NONE', #27, #1326 ) ;
#440 = CARTESIAN_POINT ( 'NONE',  ( -2.540000000000000036, -39.04852813742385820, 0.000000000000000000 ) ) ;
#441 = DIRECTION ( 'NONE',  ( 0.000000000000000000, 0.000000000000000000, -1.000000000000000000 ) ) ;
#442 = EDGE_CURVE ( 'NONE', #650, #1167, #192, .T. ) ;
#443 = ORIENTED_EDGE ( 'NONE', *, *, #721, .T. ) ;
#444 = PLANE ( 'NONE',  #53 ) ;
#445 = COLOUR_RGB ( '',0.7921568627450980005, 0.8196078431372548767, 0.9333333333333333481 ) ;
#446 = VECTOR ( 'NONE', #989, 1000.000000000000000 ) ;
#447 = UNCERTAINTY_MEASURE_WITH_UNIT (LENGTH_MEASURE( 1.000000000000000082E-05 ), #7, 'distance_accuracy_value', 'NONE');
#448 = CARTESIAN_POINT ( 'NONE',  ( -1.499999999999999778, 0.000000000000000000, -0.7499999999999987788 ) ) ;
#449 = DIRECTION ( 'NONE',  ( 0.000000000000000000, 0.000000000000000000, 1.000000000000000000 ) ) ;
#450 = STYLED_ITEM ( 'NONE', ( #944 ), #119 ) ;
#451 = EDGE_LOOP ( 'NONE', ( #737, #32 ) ) ;
#452 = CARTESIAN_POINT ( 'NONE',  ( -2.540000000000000036, 0.7999999999999999334, 0.000000000000000000 ) ) ;
#453 = EDGE_CURVE ( 'NONE', #264, #223, #656, .T. ) ;
#454 = FACE_OUTER_BOUND ( 'NONE', #1249, .T. ) ;
#455 = VECTOR ( 'NONE', #409, 1000.000000000000000 ) ;
#456 = EDGE_CURVE ( 'NONE', #130, #361, #207, .T. ) ;
#457 = DIRECTION ( 'NONE',  ( 0.000000000000000000, -0.000000000000000000, 1.000000000000000000 ) ) ;
#458 = MECHANICAL_DESIGN_GEOMETRIC_PRESENTATION_REPRESENTATION (  '', ( #87 ), #745 ) ;
#459 = CARTESIAN_POINT ( 'NONE',  ( -2.540000000000000036, 0.7999999999999999334, 0.3000000000000000999 ) ) ;
#460 = LINE ( 'NONE', #124, #474 ) ;
#461 = ORIENTED_EDGE ( 'NONE', *, *, #573, .F. ) ;
#462 = SURFACE_STYLE_USAGE ( .BOTH. , #1202 ) ;
#463 = CYLINDRICAL_SURFACE ( 'NONE', #750, 0.2500000000000002220 ) ;
#464 = ORIENTED_EDGE ( 'NONE', *, *, #519, .T. ) ;
#465 = CARTESIAN_POINT ( 'NONE',  ( -4.250000000000000000, 0.5000000000000000000, 1.750000000000000444 ) ) ;
#466 = DIRECTION ( 'NONE',  ( 0.000000000000000000, 0.000000000000000000, -1.000000000000000000 ) ) ;
#467 = AXIS2_PLACEMENT_3D ( 'NONE', #1304, #222, #1168 ) ;
#468 = DIRECTION ( 'NONE',  ( 0.000000000000000000, 0.000000000000000000, 1.000000000000000000 ) ) ;
#469 = EDGE_CURVE ( 'NONE', #157, #1279, #1103, .T. ) ;
#470 = EDGE_CURVE ( 'NONE', #186, #1256, #198, .T. ) ;
#471 =( LENGTH_UNIT ( ) NAMED_UNIT ( * ) SI_UNIT ( .MILLI., .METRE. ) );
#472 = DIRECTION ( 'NONE',  ( 0.000000000000000000, 1.000000000000000000, 0.000000000000000000 ) ) ;
#473 = DIRECTION ( 'NONE',  ( 0.000000000000000000, 0.000000000000000000, 1.000000000000000000 ) ) ;
#474 = VECTOR ( 'NONE', #272, 1000.000000000000000 ) ;
#475 = CARTESIAN_POINT ( 'NONE',  ( -3.850000000000000533, 0.7999999999999999334, -1.600000000000000311 ) ) ;
#476 =( NAMED_UNIT ( * ) SI_UNIT ( $, .STERADIAN. ) SOLID_ANGLE_UNIT ( ) );
#477 = SURFACE_SIDE_STYLE ('',( #18 ) ) ;
#478 = ADVANCED_FACE ( 'NONE', ( #235 ), #1122, .F. ) ;
#479 =( GEOMETRIC_REPRESENTATION_CONTEXT ( 3 ) GLOBAL_UNCERTAINTY_ASSIGNED_CONTEXT ( ( #912 ) ) GLOBAL_UNIT_ASSIGNED_CONTEXT ( ( #1226, #820, #325 ) ) REPRESENTATION_CONTEXT ( 'NONE', 'WORKASPACE' ) );
#480 = LINE ( 'NONE', #838, #12 ) ;
#481 =( LENGTH_UNIT ( ) NAMED_UNIT ( * ) SI_UNIT ( .MILLI., .METRE. ) );
#482 = ORIENTED_EDGE ( 'NONE', *, *, #1166, .F. ) ;
#483 = LINE ( 'NONE', #347, #923 ) ;
#484 =( NAMED_UNIT ( * ) SI_UNIT ( $, .STERADIAN. ) SOLID_ANGLE_UNIT ( ) );
#485 = ORIENTED_EDGE ( 'NONE', *, *, #4, .T. ) ;
#486 = LINE ( 'NONE', #896, #106 ) ;
#487 = FACE_OUTER_BOUND ( 'NONE', #1042, .T. ) ;
#488 = ADVANCED_FACE ( 'NONE', ( #1120 ), #37, .F. ) ;
#489 = CARTESIAN_POINT ( 'NONE',  ( 4.250000000000000000, 0.000000000000000000, 0.7499999999999988898 ) ) ;
#490 = CARTESIAN_POINT ( 'NONE',  ( -4.250000000000000000, 0.5000000000000000000, 2.000000000000000444 ) ) ;
#491 = ORIENTED_EDGE ( 'NONE', *, *, #787, .F. ) ;
#492 = FACE_OUTER_BOUND ( 'NONE', #1057, .T. ) ;
#493 =( NAMED_UNIT ( * ) PLANE_ANGLE_UNIT ( ) SI_UNIT ( $, .RADIAN. ) );
#494 = VERTEX_POINT ( 'NONE', #717 ) ;
#495 = UNCERTAINTY_MEASURE_WITH_UNIT (LENGTH_MEASURE( 1.000000000000000082E-05 ), #98, 'distance_accuracy_value', 'NONE');
#496 = AXIS2_PLACEMENT_3D ( 'NONE', #1014, #754, #789 ) ;
#497 = ORIENTED_EDGE ( 'NONE', *, *, #442, .F. ) ;
#498 = VECTOR ( 'NONE', #500, 1000.000000000000000 ) ;
#499 = VECTOR ( 'NONE', #691, 1000.000000000000000 ) ;
#500 = DIRECTION ( 'NONE',  ( 0.000000000000000000, 0.000000000000000000, -1.000000000000000000 ) ) ;
#501 = PRODUCT_DEFINITION_CONTEXT ( 'detailed design', #380, 'design' ) ;
#502 = CARTESIAN_POINT ( 'NONE',  ( -1.499999999999999778, 0.000000000000000000, 0.7499999999999988898 ) ) ;
#503 = ORIENTED_EDGE ( 'NONE', *, *, #1058, .T. ) ;
#504 = CIRCLE ( 'NONE', #1332, 0.2500000000000000000 ) ;
#505 = LINE ( 'NONE', #1234, #907 ) ;
#506 = ORIENTED_EDGE ( 'NONE', *, *, #617, .F. ) ;
#507 =( GEOMETRIC_REPRESENTATION_CONTEXT ( 3 ) GLOBAL_UNCERTAINTY_ASSIGNED_CONTEXT ( ( #1100 ) ) GLOBAL_UNIT_ASSIGNED_CONTEXT ( ( #742, #1223, #476 ) ) REPRESENTATION_CONTEXT ( 'NONE', 'WORKASPACE' ) );
#508 = CYLINDRICAL_SURFACE ( 'NONE', #1294, 0.3000000000000000999 ) ;
#509 = CARTESIAN_POINT ( 'NONE',  ( 2.540000000000000036, 0.7999999999999999334, 0.3000000000000000999 ) ) ;
#510 = DIRECTION ( 'NONE',  ( -1.000000000000000000, 0.000000000000000000, -0.000000000000000000 ) ) ;
#511 = DIRECTION ( 'NONE',  ( -0.000000000000000000, 1.000000000000000000, -0.000000000000000000 ) ) ;
#512 = CIRCLE ( 'NONE', #1263, 0.2500000000000000000 ) ;
#513 = PRESENTATION_LAYER_ASSIGNMENT (  '', '', ( #785 ) ) ;
#514 = ORIENTED_EDGE ( 'NONE', *, *, #710, .F. ) ;
#515 = STYLED_ITEM ( 'NONE', ( #1337 ), #25 ) ;
#516 = PRODUCT ( '36911000000', '36911000000', '', ( #171 ) ) ;
#517 = ORIENTED_EDGE ( 'NONE', *, *, #997, .T. ) ;
#518 = CARTESIAN_POINT ( 'NONE',  ( 1.500000000000000222, 0.7999999999999999334, -0.7499999999999987788 ) ) ;
#519 = EDGE_CURVE ( 'NONE', #808, #134, #239, .T. ) ;
#520 = FACE_OUTER_BOUND ( 'NONE', #605, .T. ) ;
#521 = ORIENTED_EDGE ( 'NONE', *, *, #323, .F. ) ;
#522 = CARTESIAN_POINT ( 'NONE',  ( -1.499999999999999778, 0.7999999999999999334, 0.7499999999999988898 ) ) ;
#523 = STYLED_ITEM ( 'NONE', ( #1140 ), #833 ) ;
#524 = ORIENTED_EDGE ( 'NONE', *, *, #543, .T. ) ;
#525 = APPLICATION_PROTOCOL_DEFINITION ( 'draft international standard', 'automotive_design', 1998, #380 ) ;
#526 = SPHERICAL_SURFACE ( 'NONE', #1109, 0.2500000000000000000 ) ;
#527 = VECTOR ( 'NONE', #316, 1000.000000000000000 ) ;
#528 = CARTESIAN_POINT ( 'NONE',  ( 4.000000000000000000, 0.5000000000000000000, -1.999999999999999556 ) ) ;
#529 = VECTOR ( 'NONE', #326, 1000.000000000000000 ) ;
#530 = CARTESIAN_POINT ( 'NONE',  ( 4.000000000000000000, 7.750000000000000000, 2.000000000000000444 ) ) ;
#531 = DIRECTION ( 'NONE',  ( -0.000000000000000000, -1.000000000000000000, -0.000000000000000000 ) ) ;
#532 = FACE_OUTER_BOUND ( 'NONE', #1078, .T. ) ;
#533 = STYLED_ITEM ( 'NONE', ( #738 ), #687 ) ;
#534 = VERTEX_POINT ( 'NONE', #162 ) ;
#535 =( LENGTH_UNIT ( ) NAMED_UNIT ( * ) SI_UNIT ( .MILLI., .METRE. ) );
#536 = LINE ( 'NONE', #578, #539 ) ;
#537 = VECTOR ( 'NONE', #1136, 1000.000000000000000 ) ;
#538 = ORIENTED_EDGE ( 'NONE', *, *, #1190, .T. ) ;
#539 = VECTOR ( 'NONE', #1182, 1000.000000000000000 ) ;
#540 = FACE_OUTER_BOUND ( 'NONE', #1110, .T. ) ;
#541 = CARTESIAN_POINT ( 'NONE',  ( 0.000000000000000000, 0.000000000000000000, 0.000000000000000000 ) ) ;
#542 = ORIENTED_EDGE ( 'NONE', *, *, #371, .T. ) ;
#543 = EDGE_CURVE ( 'NONE', #158, #1104, #439, .T. ) ;
#544 = COLOUR_RGB ( '',0.7921568627450980005, 0.8196078431372548767, 0.9333333333333333481 ) ;
#545 = LINE ( 'NONE', #183, #99 ) ;
#546 = FACE_OUTER_BOUND ( 'NONE', #577, .T. ) ;
#547 = DIRECTION ( 'NONE',  ( 0.000000000000000000, 0.000000000000000000, -1.000000000000000000 ) ) ;
#548 = CARTESIAN_POINT ( 'NONE',  ( -4.250000000000000000, 8.000000000000000000, -1.749999999999999556 ) ) ;
#549 = AXIS2_PLACEMENT_3D ( 'NONE', #1280, #145, #565 ) ;
#550 = CARTESIAN_POINT ( 'NONE',  ( -3.850000000000000533, 0.5000000000000000000, 0.7499999999999988898 ) ) ;
#551 = FACE_OUTER_BOUND ( 'NONE', #894, .T. ) ;
#552 = LINE ( 'NONE', #720, #998 ) ;
#553 = CARTESIAN_POINT ( 'NONE',  ( 0.000000000000000000, 0.5000000000000000000, 0.7499999999999988898 ) ) ;
#554 = FACE_OUTER_BOUND ( 'NONE', #583, .T. ) ;
#555 = CARTESIAN_POINT ( 'NONE',  ( -3.850000000000000533, 0.7999999999999999334, 1.600000000000000311 ) ) ;
#556 = DIRECTION ( 'NONE',  ( -1.000000000000000000, 0.000000000000000000, 0.000000000000000000 ) ) ;
#557 = AXIS2_PLACEMENT_3D ( 'NONE', #595, #1007, #630 ) ;
#558 = ORIENTED_EDGE ( 'NONE', *, *, #1027, .F. ) ;
#559 = DIRECTION ( 'NONE',  ( -0.000000000000000000, 0.000000000000000000, 1.000000000000000000 ) ) ;
#560 = DIRECTION ( 'NONE',  ( 1.000000000000000000, 0.000000000000000000, 0.000000000000000000 ) ) ;
#561 = CARTESIAN_POINT ( 'NONE',  ( 4.250000000000000000, -1.552417469626002466, 0.7499999999999988898 ) ) ;
#562 = EDGE_LOOP ( 'NONE', ( #567, #802, #832, #210 ) ) ;
#563 = VERTEX_POINT ( 'NONE', #286 ) ;
#564 = ADVANCED_FACE ( 'NONE', ( #1317 ), #566, .F. ) ;
#565 = DIRECTION ( 'NONE',  ( 0.000000000000000000, 0.000000000000000000, -1.000000000000000000 ) ) ;
#566 = PLANE ( 'NONE',  #340 ) ;
#567 = ORIENTED_EDGE ( 'NONE', *, *, #319, .F. ) ;
#568 = DIRECTION ( 'NONE',  ( -0.000000000000000000, -0.000000000000000000, 1.000000000000000000 ) ) ;
#569 = AXIS2_PLACEMENT_3D ( 'NONE', #775, #560, #959 ) ;
#570 = UNCERTAINTY_MEASURE_WITH_UNIT (LENGTH_MEASURE( 1.000000000000000082E-05 ), #732, 'distance_accuracy_value', 'NONE');
#571 = ORIENTED_EDGE ( 'NONE', *, *, #371, .F. ) ;
#572 = CARTESIAN_POINT ( 'NONE',  ( 4.000000000000000000, 8.000000000000000000, 1.750000000000000444 ) ) ;
#573 = EDGE_CURVE ( 'NONE', #1076, #1013, #434, .T. ) ;
#574 = ORIENTED_EDGE ( 'NONE', *, *, #253, .T. ) ;
#575 = DIRECTION ( 'NONE',  ( 1.000000000000000000, 0.000000000000000000, -0.000000000000000000 ) ) ;
#576 = EDGE_CURVE ( 'NONE', #141, #808, #874, .T. ) ;
#577 = EDGE_LOOP ( 'NONE', ( #1261, #1329, #42, #3 ) ) ;
#578 = CARTESIAN_POINT ( 'NONE',  ( 4.250000000000000000, 7.750000000000000000, -1.999999999999999556 ) ) ;
#579 = AXIS2_PLACEMENT_3D ( 'NONE', #980, #1212, #1203 ) ;
#580 = VERTEX_POINT ( 'NONE', #177 ) ;
#581 =( LENGTH_UNIT ( ) NAMED_UNIT ( * ) SI_UNIT ( .MILLI., .METRE. ) );
#582 = LINE ( 'NONE', #649, #601 ) ;
#583 = EDGE_LOOP ( 'NONE', ( #614, #214, #305, #571 ) ) ;
#584 = DIRECTION ( 'NONE',  ( -1.000000000000000000, 0.000000000000000000, -0.000000000000000000 ) ) ;
#585 = DIRECTION ( 'NONE',  ( -1.000000000000000000, -0.000000000000000000, -0.000000000000000000 ) ) ;
#586 = ORIENTED_EDGE ( 'NONE', *, *, #1194, .T. ) ;
#587 = FILL_AREA_STYLE ('',( #389 ) ) ;
#588 =( GEOMETRIC_REPRESENTATION_CONTEXT ( 3 ) GLOBAL_UNCERTAINTY_ASSIGNED_CONTEXT ( ( #1297 ) ) GLOBAL_UNIT_ASSIGNED_CONTEXT ( ( #471, #1150, #396 ) ) REPRESENTATION_CONTEXT ( 'NONE', 'WORKASPACE' ) );
#589 = VERTEX_POINT ( 'NONE', #1197 ) ;
#590 = DIRECTION ( 'NONE',  ( -1.000000000000000000, 0.000000000000000000, 0.000000000000000000 ) ) ;
#591 = EDGE_CURVE ( 'NONE', #636, #1279, #432, .T. ) ;
#592 = VERTEX_POINT ( 'NONE', #314 ) ;
#593 = EDGE_CURVE ( 'NONE', #1167, #952, #867, .T. ) ;
#594 = ORIENTED_EDGE ( 'NONE', *, *, #573, .T. ) ;
#595 = CARTESIAN_POINT ( 'NONE',  ( -2.540000000000000036, 0.7999999999999999334, 0.000000000000000000 ) ) ;
#596 = DIRECTION ( 'NONE',  ( 0.000000000000000000, -1.000000000000000000, 0.000000000000000000 ) ) ;
#597 = PRODUCT_DEFINITION ( 'UNKNOWN', '', #402, #501 ) ;
#598 = DIRECTION ( 'NONE',  ( 0.000000000000000000, 0.000000000000000000, 1.000000000000000000 ) ) ;
#599 = ORIENTED_EDGE ( 'NONE', *, *, #1318, .F. ) ;
#600 = CARTESIAN_POINT ( 'NONE',  ( 4.000000000000000000, 7.750000000000000000, 1.750000000000000444 ) ) ;
#601 = VECTOR ( 'NONE', #331, 1000.000000000000000 ) ;
#602 = ADVANCED_FACE ( 'NONE', ( #875 ), #372, .F. ) ;
#603 = VERTEX_POINT ( 'NONE', #886 ) ;
#604 = SURFACE_STYLE_FILL_AREA ( #117 ) ;
#605 = EDGE_LOOP ( 'NONE', ( #956, #1121, #1129, #620, #290, #542, #289, #244 ) ) ;
#606 = VECTOR ( 'NONE', #1340, 1000.000000000000000 ) ;
#607 = CARTESIAN_POINT ( 'NONE',  ( -4.250000000000000000, 25.39414711402796598, 2.000000000000000444 ) ) ;
#608 = EDGE_LOOP ( 'NONE', ( #1152, #1060, #1083, #57 ) ) ;
#609 = PRESENTATION_STYLE_ASSIGNMENT (( #1227 ) ) ;
#610 = AXIS2_PLACEMENT_3D ( 'NONE', #690, #877, #449 ) ;
#611 = DIRECTION ( 'NONE',  ( 1.000000000000000000, 0.000000000000000000, 0.000000000000000000 ) ) ;
#612 = ORIENTED_EDGE ( 'NONE', *, *, #1169, .F. ) ;
#613 = CARTESIAN_POINT ( 'NONE',  ( 4.250000000000000000, 0.000000000000000000, -0.7500000000000011102 ) ) ;
#614 = ORIENTED_EDGE ( 'NONE', *, *, #769, .F. ) ;
#615 = PLANE ( 'NONE',  #433 ) ;
#616 = ORIENTED_EDGE ( 'NONE', *, *, #1299, .T. ) ;
#617 = EDGE_CURVE ( 'NONE', #168, #157, #430, .T. ) ;
#618 = ORIENTED_EDGE ( 'NONE', *, *, #397, .T. ) ;
#619 = ORIENTED_EDGE ( 'NONE', *, *, #814, .F. ) ;
#620 = ORIENTED_EDGE ( 'NONE', *, *, #123, .T. ) ;
#621 = AXIS2_PLACEMENT_3D ( 'NONE', #940, #435, #349 ) ;
#622 = EDGE_LOOP ( 'NONE', ( #1067, #1335, #280, #908 ) ) ;
#623 = DIRECTION ( 'NONE',  ( -0.000000000000000000, -0.000000000000000000, 1.000000000000000000 ) ) ;
#624 = ORIENTED_EDGE ( 'NONE', *, *, #576, .T. ) ;
#625 = CARTESIAN_POINT ( 'NONE',  ( 2.540000000000000036, -19.10000000000000142, -0.3000000000000000999 ) ) ;
#626 = ORIENTED_EDGE ( 'NONE', *, *, #1244, .F. ) ;
#627 = ORIENTED_EDGE ( 'NONE', *, *, #1012, .F. ) ;
#628 = AXIS2_PLACEMENT_3D ( 'NONE', #452, #1066, #784 ) ;
#629 = VERTEX_POINT ( 'NONE', #465 ) ;
#630 = DIRECTION ( 'NONE',  ( 0.000000000000000000, 0.000000000000000000, -1.000000000000000000 ) ) ;
#631 = ORIENTED_EDGE ( 'NONE', *, *, #230, .F. ) ;
#632 = EDGE_CURVE ( 'NONE', #971, #1237, #1310, .T. ) ;
#633 = CARTESIAN_POINT ( 'NONE',  ( -4.250000000000000000, -1.552417469626002466, -0.7500000000000011102 ) ) ;
#634 = ORIENTED_EDGE ( 'NONE', *, *, #788, .T. ) ;
#635 = CARTESIAN_POINT ( 'NONE',  ( 0.000000000000000000, 0.5000000000000000000, -0.7500000000000011102 ) ) ;
#636 = VERTEX_POINT ( 'NONE', #981 ) ;
#637 = EDGE_CURVE ( 'NONE', #185, #949, #872, .T. ) ;
#638 = VECTOR ( 'NONE', #531, 1000.000000000000000 ) ;
#639 = ORIENTED_EDGE ( 'NONE', *, *, #410, .T. ) ;
#640 = DIRECTION ( 'NONE',  ( 0.000000000000000000, -0.000000000000000000, 1.000000000000000000 ) ) ;
#641 = VECTOR ( 'NONE', #752, 1000.000000000000000 ) ;
#642 = EDGE_LOOP ( 'NONE', ( #249, #461, #1164, #892 ) ) ;
#643 = COLOUR_RGB ( '',0.2509803921568627416, 0.2509803921568627416, 0.2509803921568627416 ) ;
#644 = ORIENTED_EDGE ( 'NONE', *, *, #240, .T. ) ;
#645 = LINE ( 'NONE', #810, #213 ) ;
#646 = ADVANCED_FACE ( 'NONE', ( #1313 ), #1271, .T. ) ;
#647 = PLANE ( 'NONE',  #1314 ) ;
#648 = ORIENTED_EDGE ( 'NONE', *, *, #1008, .F. ) ;
#649 = CARTESIAN_POINT ( 'NONE',  ( -4.250000000000000000, 25.39414711402796598, 1.750000000000000444 ) ) ;
#650 = VERTEX_POINT ( 'NONE', #146 ) ;
#651 = VECTOR ( 'NONE', #437, 1000.000000000000000 ) ;
#652 = ORIENTED_EDGE ( 'NONE', *, *, #137, .F. ) ;
#653 = DIRECTION ( 'NONE',  ( -1.000000000000000000, -0.000000000000000000, -0.000000000000000000 ) ) ;
#654 = VECTOR ( 'NONE', #510, 1000.000000000000000 ) ;
#655 = PRESENTATION_LAYER_ASSIGNMENT (  '', '', ( #1239 ) ) ;
#656 = LINE ( 'NONE', #502, #641 ) ;
#657 = ORIENTED_EDGE ( 'NONE', *, *, #1325, .T. ) ;
#658 = ORIENTED_EDGE ( 'NONE', *, *, #442, .T. ) ;
#659 = LINE ( 'NONE', #1132, #211 ) ;
#660 = CARTESIAN_POINT ( 'NONE',  ( 4.250000000000000000, 0.5000000000000004441, -0.7500000000000011102 ) ) ;
#661 = PRESENTATION_LAYER_ASSIGNMENT (  '', '', ( #515 ) ) ;
#662 = VECTOR ( 'NONE', #914, 1000.000000000000000 ) ;
#663 = ORIENTED_EDGE ( 'NONE', *, *, #1012, .T. ) ;
#664 = SHAPE_DEFINITION_REPRESENTATION ( #133, #833 ) ;
#665 = VERTEX_POINT ( 'NONE', #294 ) ;
#666 = LINE ( 'NONE', #489, #677 ) ;
#667 = FACE_OUTER_BOUND ( 'NONE', #1112, .T. ) ;
#668 = CARTESIAN_POINT ( 'NONE',  ( 3.849999999999999645, 0.5000000000000000000, -1.600000000000000311 ) ) ;
#669 = CIRCLE ( 'NONE', #15, 0.3000000000000000999 ) ;
#670 = CARTESIAN_POINT ( 'NONE',  ( 4.000000000000000000, 25.39414711402796598, -1.999999999999999556 ) ) ;
#671 = VERTEX_POINT ( 'NONE', #358 ) ;
#672 = CYLINDRICAL_SURFACE ( 'NONE', #684, 0.2500000000000000000 ) ;
#673 = FACE_OUTER_BOUND ( 'NONE', #97, .T. ) ;
#674 = ORIENTED_EDGE ( 'NONE', *, *, #1318, .T. ) ;
#675 = ORIENTED_EDGE ( 'NONE', *, *, #80, .F. ) ;
#676 = FACE_OUTER_BOUND ( 'NONE', #363, .T. ) ;
#677 = VECTOR ( 'NONE', #102, 1000.000000000000000 ) ;
#678 = CARTESIAN_POINT ( 'NONE',  ( -4.000000000000000000, 0.5000000000000000000, -1.999999999999999556 ) ) ;
#679 = ORIENTED_EDGE ( 'NONE', *, *, #1231, .T. ) ;
#680 = CARTESIAN_POINT ( 'NONE',  ( 0.000000000000000000, 0.000000000000000000, 0.000000000000000000 ) ) ;
#681 = ORIENTED_EDGE ( 'NONE', *, *, #438, .T. ) ;
#682 = VECTOR ( 'NONE', #955, 1000.000000000000000 ) ;
#683 = PRESENTATION_STYLE_ASSIGNMENT (( #1307 ) ) ;
#684 = AXIS2_PLACEMENT_3D ( 'NONE', #1018, #1153, #1273 ) ;
#685 = VECTOR ( 'NONE', #993, 1000.000000000000000 ) ;
#686 = FACE_OUTER_BOUND ( 'NONE', #1033, .T. ) ;
#687 = ADVANCED_FACE ( 'NONE', ( #733 ), #647, .F. ) ;
#688 = EDGE_CURVE ( 'NONE', #534, #1172, #292, .T. ) ;
#689 = DIRECTION ( 'NONE',  ( 0.000000000000000000, 0.000000000000000000, 1.000000000000000000 ) ) ;
#690 = CARTESIAN_POINT ( 'NONE',  ( -3.850000000000000533, 0.7999999999999999334, -1.600000000000000311 ) ) ;
#691 = DIRECTION ( 'NONE',  ( -0.000000000000000000, -0.000000000000000000, -1.000000000000000000 ) ) ;
#692 = SURFACE_STYLE_FILL_AREA ( #1043 ) ;
#693 = ORIENTED_EDGE ( 'NONE', *, *, #425, .T. ) ;
#694 = DIRECTION ( 'NONE',  ( 0.000000000000000000, -1.000000000000000000, 0.000000000000000000 ) ) ;
#695 = ORIENTED_EDGE ( 'NONE', *, *, #688, .T. ) ;
#696 = ORIENTED_EDGE ( 'NONE', *, *, #637, .F. ) ;
#697 = DIRECTION ( 'NONE',  ( 0.000000000000000000, -0.000000000000000000, 1.000000000000000000 ) ) ;
#698 = CARTESIAN_POINT ( 'NONE',  ( 1.500000000000000222, -3.354101966249682931, -0.7499999999999987788 ) ) ;
#699 = CARTESIAN_POINT ( 'NONE',  ( -4.000000000000000000, 7.750000000000000000, 1.750000000000000444 ) ) ;
#700 = ORIENTED_EDGE ( 'NONE', *, *, #425, .F. ) ;
#701 = CARTESIAN_POINT ( 'NONE',  ( 2.540000000000000036, 0.7999999999999999334, 0.000000000000000000 ) ) ;
#702 = CYLINDRICAL_SURFACE ( 'NONE', #846, 0.2500000000000002220 ) ;
#703 = ORIENTED_EDGE ( 'NONE', *, *, #470, .F. ) ;
#704 =( GEOMETRIC_REPRESENTATION_CONTEXT ( 3 ) GLOBAL_UNCERTAINTY_ASSIGNED_CONTEXT ( ( #447 ) ) GLOBAL_UNIT_ASSIGNED_CONTEXT ( ( #7, #942, #930 ) ) REPRESENTATION_CONTEXT ( 'NONE', 'WORKASPACE' ) );
#705 = EDGE_LOOP ( 'NONE', ( #696, #1094, #798, #1049 ) ) ;
#706 = ORIENTED_EDGE ( 'NONE', *, *, #753, .T. ) ;
#707 = ORIENTED_EDGE ( 'NONE', *, *, #453, .T. ) ;
#708 = DIRECTION ( 'NONE',  ( 0.000000000000000000, -0.000000000000000000, 1.000000000000000000 ) ) ;
#709 = DIRECTION ( 'NONE',  ( -0.000000000000000000, 1.000000000000000000, -0.000000000000000000 ) ) ;
#710 = EDGE_CURVE ( 'NONE', #390, #1119, #945, .T. ) ;
#711 = ORIENTED_EDGE ( 'NONE', *, *, #180, .T. ) ;
#712 = DIRECTION ( 'NONE',  ( 1.000000000000000000, 0.000000000000000000, 0.000000000000000000 ) ) ;
#713 = FACE_OUTER_BOUND ( 'NONE', #227, .T. ) ;
#714 = LINE ( 'NONE', #313, #237 ) ;
#715 = ORIENTED_EDGE ( 'NONE', *, *, #1210, .F. ) ;
#716 = CARTESIAN_POINT ( 'NONE',  ( 0.000000000000000000, 7.750000000000000000, -1.749999999999999556 ) ) ;
#717 = CARTESIAN_POINT ( 'NONE',  ( -2.540000000000000036, -19.10000000000000142, 0.3000000000000000999 ) ) ;
#718 = DIRECTION ( 'NONE',  ( 0.000000000000000000, 0.000000000000000000, 1.000000000000000000 ) ) ;
#719 = AXIS2_PLACEMENT_3D ( 'NONE', #1005, #406, #1288 ) ;
#720 = CARTESIAN_POINT ( 'NONE',  ( -4.250000000000000000, 0.5000000000000000000, 2.000000000000000444 ) ) ;
#721 = EDGE_CURVE ( 'NONE', #1137, #1272, #947, .T. ) ;
#722 = SURFACE_SIDE_STYLE ('',( #1298 ) ) ;
#723 = ORIENTED_EDGE ( 'NONE', *, *, #771, .F. ) ;
#724 = ORIENTED_EDGE ( 'NONE', *, *, #345, .F. ) ;
#725 = CARTESIAN_POINT ( 'NONE',  ( -4.250000000000000000, 0.000000000000000000, 0.7499999999999988898 ) ) ;
#726 = EDGE_CURVE ( 'NONE', #158, #805, #30, .T. ) ;
#727 = DIRECTION ( 'NONE',  ( 0.000000000000000000, 0.000000000000000000, 1.000000000000000000 ) ) ;
#728 = MECHANICAL_DESIGN_GEOMETRIC_PRESENTATION_REPRESENTATION (  '', ( #523 ), #507 ) ;
#729 = CARTESIAN_POINT ( 'NONE',  ( 4.250000000000000000, 0.5000000000000000000, 1.750000000000000444 ) ) ;
#730 = ORIENTED_EDGE ( 'NONE', *, *, #771, .T. ) ;
#731 = SURFACE_STYLE_FILL_AREA ( #895 ) ;
#732 =( LENGTH_UNIT ( ) NAMED_UNIT ( * ) SI_UNIT ( .MILLI., .METRE. ) );
#733 = FACE_OUTER_BOUND ( 'NONE', #816, .T. ) ;
#734 = ORIENTED_EDGE ( 'NONE', *, *, #905, .T. ) ;
#735 = DIRECTION ( 'NONE',  ( 1.000000000000000000, 0.000000000000000000, 0.000000000000000000 ) ) ;
#736 = PRESENTATION_LAYER_ASSIGNMENT (  '', '', ( #795 ) ) ;
#737 = ORIENTED_EDGE ( 'NONE', *, *, #4, .F. ) ;
#738 = PRESENTATION_STYLE_ASSIGNMENT (( #399 ) ) ;
#739 = CARTESIAN_POINT ( 'NONE',  ( 4.250000000000000000, 0.000000000000000000, 0.7499999999999988898 ) ) ;
#740 = EDGE_CURVE ( 'NONE', #362, #361, #950, .T. ) ;
#741 = COLOUR_RGB ( '',0.2509803921568627416, 0.2509803921568627416, 0.2509803921568627416 ) ;
#742 =( LENGTH_UNIT ( ) NAMED_UNIT ( * ) SI_UNIT ( .MILLI., .METRE. ) );
#743 = CARTESIAN_POINT ( 'NONE',  ( 2.540000000000000036, -19.10000000000000142, 0.000000000000000000 ) ) ;
#744 = ADVANCED_FACE ( 'NONE', ( #487 ), #943, .T. ) ;
#745 =( GEOMETRIC_REPRESENTATION_CONTEXT ( 3 ) GLOBAL_UNCERTAINTY_ASSIGNED_CONTEXT ( ( #763 ) ) GLOBAL_UNIT_ASSIGNED_CONTEXT ( ( #342, #126, #767 ) ) REPRESENTATION_CONTEXT ( 'NONE', 'WORKASPACE' ) );
#746 = CARTESIAN_POINT ( 'NONE',  ( -4.000000000000000000, 7.750000000000000000, -1.999999999999999556 ) ) ;
#747 = DIRECTION ( 'NONE',  ( 0.000000000000000000, 0.000000000000000000, 1.000000000000000000 ) ) ;
#748 = CARTESIAN_POINT ( 'NONE',  ( -3.850000000000000533, 0.000000000000000000, -0.7500000000000011102 ) ) ;
#749 = CARTESIAN_POINT ( 'NONE',  ( 4.000000000000000000, 7.750000000000000000, -1.999999999999999556 ) ) ;
#750 = AXIS2_PLACEMENT_3D ( 'NONE', #108, #260, #1179 ) ;
#751 = CARTESIAN_POINT ( 'NONE',  ( -4.250000000000000000, 0.5000000000000000000, 2.000000000000000444 ) ) ;
#752 = DIRECTION ( 'NONE',  ( 1.000000000000000000, -0.000000000000000000, 0.000000000000000000 ) ) ;
#753 = EDGE_CURVE ( 'NONE', #1104, #971, #43, .T. ) ;
#754 = DIRECTION ( 'NONE',  ( 0.000000000000000000, -1.000000000000000000, 0.000000000000000000 ) ) ;
#755 = EDGE_CURVE ( 'NONE', #157, #1076, #33, .T. ) ;
#756 = AXIS2_PLACEMENT_3D ( 'NONE', #440, #352, #689 ) ;
#757 = DIRECTION ( 'NONE',  ( -1.000000000000000000, 0.000000000000000000, 0.000000000000000000 ) ) ;
#758 = DIRECTION ( 'NONE',  ( 0.000000000000000000, -1.000000000000000000, 0.000000000000000000 ) ) ;
#759 = CARTESIAN_POINT ( 'NONE',  ( 4.000000000000000000, 7.750000000000000000, -1.749999999999999556 ) ) ;
#760 = EDGE_LOOP ( 'NONE', ( #1334, #482 ) ) ;
#761 = MECHANICAL_DESIGN_GEOMETRIC_PRESENTATION_REPRESENTATION (  '', ( #1239 ), #839 ) ;
#762 = ORIENTED_EDGE ( 'NONE', *, *, #726, .F. ) ;
#763 = UNCERTAINTY_MEASURE_WITH_UNIT (LENGTH_MEASURE( 1.000000000000000082E-05 ), #342, 'distance_accuracy_value', 'NONE');
#764 = FILL_AREA_STYLE_COLOUR ( '', #1126 ) ;
#765 = CARTESIAN_POINT ( 'NONE',  ( 1.499999999999999778, 0.000000000000000000, 0.7499999999999988898 ) ) ;
#766 = CARTESIAN_POINT ( 'NONE',  ( 3.849999999999999645, 0.5000000000000000000, -0.7500000000000011102 ) ) ;
#767 =( NAMED_UNIT ( * ) SI_UNIT ( $, .STERADIAN. ) SOLID_ANGLE_UNIT ( ) );
#768 = MECHANICAL_DESIGN_GEOMETRIC_PRESENTATION_REPRESENTATION (  '', ( #1053 ), #1188 ) ;
#769 = EDGE_CURVE ( 'NONE', #390, #629, #504, .T. ) ;
#770 = ADVANCED_FACE ( 'NONE', ( #492 ), #39, .T. ) ;
#771 = EDGE_CURVE ( 'NONE', #1144, #186, #228, .T. ) ;
#772 = CARTESIAN_POINT ( 'NONE',  ( -4.250000000000000000, 0.000000000000000000, -0.7500000000000011102 ) ) ;
#773 = PRODUCT_RELATED_PRODUCT_CATEGORY ( 'part', '', ( #516 ) ) ;
#774 = CARTESIAN_POINT ( 'NONE',  ( -3.850000000000000533, -1.552417469626002466, -0.7500000000000011102 ) ) ;
#775 = CARTESIAN_POINT ( 'NONE',  ( 3.849999999999999645, 0.7999999999999999334, -1.600000000000000311 ) ) ;
#776 = AXIS2_PLACEMENT_3D ( 'NONE', #541, #924, #640 ) ;
#777 = EDGE_CURVE ( 'NONE', #563, #1104, #1111, .T. ) ;
#778 = DIRECTION ( 'NONE',  ( -1.000000000000000000, 0.000000000000000000, 0.000000000000000000 ) ) ;
#779 = EDGE_CURVE ( 'NONE', #141, #1242, #1098, .T. ) ;
#780 = DIRECTION ( 'NONE',  ( 0.000000000000000000, 0.000000000000000000, -1.000000000000000000 ) ) ;
#781 = CARTESIAN_POINT ( 'NONE',  ( 0.000000000000000000, -19.10000000000000142, 0.000000000000000000 ) ) ;
#782 = CARTESIAN_POINT ( 'NONE',  ( 4.000000000000000000, 8.000000000000000000, -1.999999999999999556 ) ) ;
#783 = PLANE ( 'NONE',  #114 ) ;
#784 = DIRECTION ( 'NONE',  ( 0.000000000000000000, -0.000000000000000000, -1.000000000000000000 ) ) ;
#785 = STYLED_ITEM ( 'NONE', ( #609 ), #394 ) ;
#786 = APPLICATION_CONTEXT ( 'automotive_design' ) ;
#787 = EDGE_CURVE ( 'NONE', #1118, #1144, #659, .T. ) ;
#788 = EDGE_CURVE ( 'NONE', #650, #1118, #666, .T. ) ;
#789 = DIRECTION ( 'NONE',  ( 0.000000000000000000, 0.000000000000000000, -1.000000000000000000 ) ) ;
#790 = FILL_AREA_STYLE_COLOUR ( '', #263 ) ;
#791 = SURFACE_STYLE_USAGE ( .BOTH. , #722 ) ;
#792 = DIRECTION ( 'NONE',  ( 0.000000000000000000, -1.000000000000000000, 0.000000000000000000 ) ) ;
#793 = CARTESIAN_POINT ( 'NONE',  ( 2.540000000000000036, -39.04852813742385820, 0.000000000000000000 ) ) ;
#794 = DIRECTION ( 'NONE',  ( -0.000000000000000000, -0.000000000000000000, 1.000000000000000000 ) ) ;
#795 = STYLED_ITEM ( 'NONE', ( #77 ), #270 ) ;
#796 = ORIENTED_EDGE ( 'NONE', *, *, #412, .F. ) ;
#797 = DIRECTION ( 'NONE',  ( 0.000000000000000000, 0.000000000000000000, 1.000000000000000000 ) ) ;
#798 = ORIENTED_EDGE ( 'NONE', *, *, #284, .F. ) ;
#799 = ADVANCED_FACE ( 'NONE', ( #1102 ), #418, .F. ) ;
#800 = DIRECTION ( 'NONE',  ( 0.000000000000000000, 1.000000000000000000, 0.000000000000000000 ) ) ;
#801 = DIRECTION ( 'NONE',  ( 0.000000000000000000, -1.000000000000000000, 0.000000000000000000 ) ) ;
#802 = ORIENTED_EDGE ( 'NONE', *, *, #688, .F. ) ;
#803 = CARTESIAN_POINT ( 'NONE',  ( 4.000000000000000000, 0.5000000000000000000, 2.000000000000000444 ) ) ;
#804 = FACE_OUTER_BOUND ( 'NONE', #81, .T. ) ;
#805 = VERTEX_POINT ( 'NONE', #746 ) ;
#806 = LINE ( 'NONE', #1258, #985 ) ;
#807 = DIRECTION ( 'NONE',  ( -1.000000000000000000, 0.000000000000000000, 0.000000000000000000 ) ) ;
#808 = VERTEX_POINT ( 'NONE', #518 ) ;
#809 = LINE ( 'NONE', #548, #1248 ) ;
#810 = CARTESIAN_POINT ( 'NONE',  ( 3.850000000000000533, -1.552417469626002466, -0.7500000000000011102 ) ) ;
#811 = AXIS2_PLACEMENT_3D ( 'NONE', #1026, #757, #598 ) ;
#812 = FACE_OUTER_BOUND ( 'NONE', #154, .T. ) ;
#813 = CARTESIAN_POINT ( 'NONE',  ( 3.849999999999999645, 0.7999999999999999334, -1.600000000000000311 ) ) ;
#814 = EDGE_CURVE ( 'NONE', #1237, #26, #1105, .T. ) ;
#815 = VECTOR ( 'NONE', #694, 1000.000000000000000 ) ;
#816 = EDGE_LOOP ( 'NONE', ( #627, #966, #624, #464 ) ) ;
#817 = CIRCLE ( 'NONE', #100, 0.2500000000000002220 ) ;
#818 = CARTESIAN_POINT ( 'NONE',  ( 2.540000000000000036, 0.7999999999999999334, 0.000000000000000000 ) ) ;
#819 = PRESENTATION_LAYER_ASSIGNMENT (  '', '', ( #87 ) ) ;
#820 =( NAMED_UNIT ( * ) PLANE_ANGLE_UNIT ( ) SI_UNIT ( $, .RADIAN. ) );
#821 = CARTESIAN_POINT ( 'NONE',  ( -3.850000000000000533, 0.7999999999999999334, 1.600000000000000311 ) ) ;
#822 = ORIENTED_EDGE ( 'NONE', *, *, #307, .F. ) ;
#823 = CARTESIAN_POINT ( 'NONE',  ( 1.500000000000000222, 0.000000000000000000, -0.7499999999999987788 ) ) ;
#824 = ADVANCED_FACE ( 'NONE', ( #220 ), #672, .T. ) ;
#825 = ORIENTED_EDGE ( 'NONE', *, *, #831, .F. ) ;
#826 = CARTESIAN_POINT ( 'NONE',  ( -2.540000000000000036, -39.04852813742385820, 0.3000000000000000999 ) ) ;
#827 = AXIS2_PLACEMENT_3D ( 'NONE', #600, #718, #735 ) ;
#828 = DIRECTION ( 'NONE',  ( -0.000000000000000000, -1.000000000000000000, -0.000000000000000000 ) ) ;
#829 = ORIENTED_EDGE ( 'NONE', *, *, #777, .T. ) ;
#830 = EDGE_CURVE ( 'NONE', #129, #1256, #1115, .T. ) ;
#831 = EDGE_CURVE ( 'NONE', #158, #299, #817, .T. ) ;
#832 = ORIENTED_EDGE ( 'NONE', *, *, #1296, .F. ) ;
#833 = ADVANCED_BREP_SHAPE_REPRESENTATION ( '36911000000', ( #1029, #270, #45, #1287 ), #1213 ) ;
#834 = AXIS2_PLACEMENT_3D ( 'NONE', #844, #122, #254 ) ;
#835 = DIRECTION ( 'NONE',  ( 0.000000000000000000, 0.000000000000000000, -1.000000000000000000 ) ) ;
#836 = CARTESIAN_POINT ( 'NONE',  ( -4.250000000000000000, 7.750000000000000000, 2.000000000000000444 ) ) ;
#837 = SURFACE_STYLE_USAGE ( .BOTH. , #247 ) ;
#838 = CARTESIAN_POINT ( 'NONE',  ( 4.250000000000000000, 0.5000000000000000000, 2.000000000000000444 ) ) ;
#839 =( GEOMETRIC_REPRESENTATION_CONTEXT ( 3 ) GLOBAL_UNCERTAINTY_ASSIGNED_CONTEXT ( ( #495 ) ) GLOBAL_UNIT_ASSIGNED_CONTEXT ( ( #98, #332, #386 ) ) REPRESENTATION_CONTEXT ( 'NONE', 'WORKASPACE' ) );
#840 = DIRECTION ( 'NONE',  ( 0.000000000000000000, 0.000000000000000000, 1.000000000000000000 ) ) ;
#841 = DIRECTION ( 'NONE',  ( 0.000000000000000000, -1.000000000000000000, 0.000000000000000000 ) ) ;
#842 = EDGE_LOOP ( 'NONE', ( #485, #734, #693, #22 ) ) ;
#843 = EDGE_CURVE ( 'NONE', #1237, #158, #809, .T. ) ;
#844 = CARTESIAN_POINT ( 'NONE',  ( -4.000000000000000000, 7.750000000000000000, -1.749999999999999556 ) ) ;
#845 = DIRECTION ( 'NONE',  ( 0.000000000000000000, 0.000000000000000000, 1.000000000000000000 ) ) ;
#846 = AXIS2_PLACEMENT_3D ( 'NONE', #1238, #934, #1 ) ;
#847 = DIRECTION ( 'NONE',  ( 0.000000000000000000, 8.673617379884026597E-16, 1.000000000000000000 ) ) ;
#848 = LINE ( 'NONE', #448, #855 ) ;
#849 = ADVANCED_FACE ( 'NONE', ( #1250 ), #1268, .T. ) ;
#850 = DIRECTION ( 'NONE',  ( -1.000000000000000000, 0.000000000000000000, 0.000000000000000000 ) ) ;
#851 = PRESENTATION_LAYER_ASSIGNMENT (  '', '', ( #1053 ) ) ;
#852 = DIRECTION ( 'NONE',  ( 0.000000000000000000, 0.000000000000000000, -1.000000000000000000 ) ) ;
#853 = DIRECTION ( 'NONE',  ( -1.000000000000000000, 0.000000000000000000, -0.000000000000000000 ) ) ;
#854 = DIRECTION ( 'NONE',  ( 0.000000000000000000, -0.000000000000000000, 1.000000000000000000 ) ) ;
#855 = VECTOR ( 'NONE', #697, 1000.000000000000000 ) ;
#856 = EDGE_CURVE ( 'NONE', #1118, #952, #373, .T. ) ;
#857 = LINE ( 'NONE', #1270, #408 ) ;
#858 = ADVANCED_FACE ( 'NONE', ( #804 ), #444, .T. ) ;
#859 = CIRCLE ( 'NONE', #1030, 0.3000000000000000999 ) ;
#860 = FILL_AREA_STYLE_COLOUR ( '', #741 ) ;
#861 = DIRECTION ( 'NONE',  ( 0.000000000000000000, 1.000000000000000000, 0.000000000000000000 ) ) ;
#862 = DIRECTION ( 'NONE',  ( -0.000000000000000000, 1.000000000000000000, -0.000000000000000000 ) ) ;
#863 = STYLED_ITEM ( 'NONE', ( #231 ), #478 ) ;
#864 =( NAMED_UNIT ( * ) PLANE_ANGLE_UNIT ( ) SI_UNIT ( $, .RADIAN. ) );
#865 = VECTOR ( 'NONE', #365, 1000.000000000000000 ) ;
#866 = CIRCLE ( 'NONE', #250, 0.3000000000000000999 ) ;
#867 = LINE ( 'NONE', #553, #1308 ) ;
#868 = DIRECTION ( 'NONE',  ( 0.000000000000000000, -0.000000000000000000, 1.000000000000000000 ) ) ;
#869 = CARTESIAN_POINT ( 'NONE',  ( -3.850000000000000533, 0.7999999999999999334, -1.600000000000000311 ) ) ;
#870 = CARTESIAN_POINT ( 'NONE',  ( 4.250000000000000000, -1.552417469626002466, 0.7499999999999988898 ) ) ;
#871 = VECTOR ( 'NONE', #403, 1000.000000000000000 ) ;
#872 = CIRCLE ( 'NONE', #1163, 0.2500000000000000000 ) ;
#873 = DIRECTION ( 'NONE',  ( -1.000000000000000000, -0.000000000000000000, -0.000000000000000000 ) ) ;
#874 = LINE ( 'NONE', #698, #876 ) ;
#875 = FACE_OUTER_BOUND ( 'NONE', #1015, .T. ) ;
#876 = VECTOR ( 'NONE', #709, 1000.000000000000000 ) ;
#877 = DIRECTION ( 'NONE',  ( -1.000000000000000000, 0.000000000000000000, 0.000000000000000000 ) ) ;
#878 = CARTESIAN_POINT ( 'NONE',  ( -4.000000000000000000, 7.750000000000000000, 1.750000000000000444 ) ) ;
#879 = LINE ( 'NONE', #1211, #1309 ) ;
#880 = VECTOR ( 'NONE', #1281, 1000.000000000000000 ) ;
#881 = AXIS2_PLACEMENT_3D ( 'NONE', #73, #861, #164 ) ;
#882 = ORIENTED_EDGE ( 'NONE', *, *, #40, .F. ) ;
#883 = DIRECTION ( 'NONE',  ( 0.000000000000000000, 0.000000000000000000, -1.000000000000000000 ) ) ;
#884 = EDGE_CURVE ( 'NONE', #563, #390, #1251, .T. ) ;
#885 = ORIENTED_EDGE ( 'NONE', *, *, #19, .T. ) ;
#886 = CARTESIAN_POINT ( 'NONE',  ( -1.499999999999999778, 0.7999999999999999334, -0.7499999999999987788 ) ) ;
#887 =( NAMED_UNIT ( * ) PLANE_ANGLE_UNIT ( ) SI_UNIT ( $, .RADIAN. ) );
#888 = ADVANCED_FACE ( 'NONE', ( #812 ), #360, .F. ) ;
#889 = CARTESIAN_POINT ( 'NONE',  ( 3.850000000000000533, 0.000000000000000000, -0.7500000000000011102 ) ) ;
#890 = AXIS2_PLACEMENT_3D ( 'NONE', #781, #156, #708 ) ;
#891 = FACE_BOUND ( 'NONE', #234, .T. ) ;
#892 = ORIENTED_EDGE ( 'NONE', *, *, #932, .T. ) ;
#893 = CARTESIAN_POINT ( 'NONE',  ( 2.540000000000000036, -39.04852813742385820, 0.3000000000000000999 ) ) ;
#894 = EDGE_LOOP ( 'NONE', ( #1020, #148, #619 ) ) ;
#895 = FILL_AREA_STYLE ('',( #860 ) ) ;
#896 = CARTESIAN_POINT ( 'NONE',  ( -4.000000000000000000, 25.39414711402796598, -1.999999999999999556 ) ) ;
#897 = CARTESIAN_POINT ( 'NONE',  ( 4.250000000000000000, 0.000000000000000000, -0.7500000000000011102 ) ) ;
#898 = PRESENTATION_STYLE_ASSIGNMENT (( #791 ) ) ;
#899 = MECHANICAL_DESIGN_GEOMETRIC_PRESENTATION_REPRESENTATION (  '', ( #863 ), #368 ) ;
#900 = ADVANCED_FACE ( 'NONE', ( #376 ), #965, .F. ) ;
#901 = FACE_OUTER_BOUND ( 'NONE', #1056, .T. ) ;
#902 = DIRECTION ( 'NONE',  ( -0.000000000000000000, -0.000000000000000000, -1.000000000000000000 ) ) ;
#903 = ORIENTED_EDGE ( 'NONE', *, *, #591, .F. ) ;
#904 = DIRECTION ( 'NONE',  ( -0.000000000000000000, 1.000000000000000000, -0.000000000000000000 ) ) ;
#905 = EDGE_CURVE ( 'NONE', #1137, #170, #364, .T. ) ;
#906 = DIRECTION ( 'NONE',  ( -0.000000000000000000, 1.000000000000000000, -0.000000000000000000 ) ) ;
#907 = VECTOR ( 'NONE', #1331, 1000.000000000000000 ) ;
#908 = ORIENTED_EDGE ( 'NONE', *, *, #56, .T. ) ;
#909 = CARTESIAN_POINT ( 'NONE',  ( -4.000000000000000000, 8.000000000000000000, 1.750000000000000444 ) ) ;
#910 = CARTESIAN_POINT ( 'NONE',  ( -4.250000000000000000, 0.000000000000000000, -0.7500000000000011102 ) ) ;
#911 = LINE ( 'NONE', #287, #499 ) ;
#912 = UNCERTAINTY_MEASURE_WITH_UNIT (LENGTH_MEASURE( 1.000000000000000082E-05 ), #1226, 'distance_accuracy_value', 'NONE');
#913 = CARTESIAN_POINT ( 'NONE',  ( 2.540000000000000036, -19.10000000000000142, 0.000000000000000000 ) ) ;
#914 = DIRECTION ( 'NONE',  ( -0.000000000000000000, -1.000000000000000000, -0.000000000000000000 ) ) ;
#915 = AXIS2_PLACEMENT_3D ( 'NONE', #1145, #984, #311 ) ;
#916 = EDGE_CURVE ( 'NONE', #1245, #971, #366, .T. ) ;
#917 = LINE ( 'NONE', #1044, #35 ) ;
#918 = LINE ( 'NONE', #1336, #5 ) ;
#919 = DIRECTION ( 'NONE',  ( -0.000000000000000000, 1.000000000000000000, -0.000000000000000000 ) ) ;
#920 = CARTESIAN_POINT ( 'NONE',  ( -3.850000000000000533, 0.000000000000000000, -0.7500000000000011102 ) ) ;
#921 = PLANE ( 'NONE',  #8 ) ;
#922 = ORIENTED_EDGE ( 'NONE', *, *, #469, .T. ) ;
#923 = VECTOR ( 'NONE', #845, 1000.000000000000000 ) ;
#924 = DIRECTION ( 'NONE',  ( 0.000000000000000000, 1.000000000000000000, 0.000000000000000000 ) ) ;
#925 = ORIENTED_EDGE ( 'NONE', *, *, #1244, .T. ) ;
#926 =( GEOMETRIC_REPRESENTATION_CONTEXT ( 3 ) GLOBAL_UNCERTAINTY_ASSIGNED_CONTEXT ( ( #1321 ) ) GLOBAL_UNIT_ASSIGNED_CONTEXT ( ( #481, #887, #383 ) ) REPRESENTATION_CONTEXT ( 'NONE', 'WORKASPACE' ) );
#927 = ORIENTED_EDGE ( 'NONE', *, *, #329, .T. ) ;
#928 = CARTESIAN_POINT ( 'NONE',  ( 4.000000000000000000, 8.000000000000000000, -1.749999999999999556 ) ) ;
#929 = CARTESIAN_POINT ( 'NONE',  ( 4.250000000000000000, -1.552417469626002466, -0.7500000000000011102 ) ) ;
#930 =( NAMED_UNIT ( * ) SI_UNIT ( $, .STERADIAN. ) SOLID_ANGLE_UNIT ( ) );
#931 = CYLINDRICAL_SURFACE ( 'NONE', #1006, 0.2500000000000000000 ) ;
#932 = EDGE_CURVE ( 'NONE', #1289, #592, #1262, .T. ) ;
#933 = VECTOR ( 'NONE', #611, 1000.000000000000000 ) ;
#934 = DIRECTION ( 'NONE',  ( 0.000000000000000000, 0.000000000000000000, -1.000000000000000000 ) ) ;
#935 = VECTOR ( 'NONE', #330, 1000.000000000000000 ) ;
#936 =( NAMED_UNIT ( * ) PLANE_ANGLE_UNIT ( ) SI_UNIT ( $, .RADIAN. ) );
#937 = CARTESIAN_POINT ( 'NONE',  ( -4.250000000000000000, 0.000000000000000000, 0.7499999999999991118 ) ) ;
#938 = COLOUR_RGB ( '',0.2509803921568627416, 0.2509803921568627416, 0.2509803921568627416 ) ;
#939 = ORIENTED_EDGE ( 'NONE', *, *, #1024, .F. ) ;
#940 = CARTESIAN_POINT ( 'NONE',  ( 4.250000000000000000, -1.552417469626002466, -0.7500000000000011102 ) ) ;
#941 = CARTESIAN_POINT ( 'NONE',  ( 2.540000000000000036, -39.04852813742385820, -0.3000000000000000999 ) ) ;
#942 =( NAMED_UNIT ( * ) PLANE_ANGLE_UNIT ( ) SI_UNIT ( $, .RADIAN. ) );
#943 = SPHERICAL_SURFACE ( 'NONE', #275, 0.2500000000000000000 ) ;
#944 = PRESENTATION_STYLE_ASSIGNMENT (( #200 ) ) ;
#945 = LINE ( 'NONE', #751, #933 ) ;
#946 = CIRCLE ( 'NONE', #1275, 0.2500000000000002220 ) ;
#947 = CIRCLE ( 'NONE', #169, 0.3000000000000000999 ) ;
#948 = CARTESIAN_POINT ( 'NONE',  ( 4.000000000000000000, 25.39414711402796598, -1.749999999999999556 ) ) ;
#949 = VERTEX_POINT ( 'NONE', #1195 ) ;
#950 = LINE ( 'NONE', #411, #41 ) ;
#951 = AXIS2_PLACEMENT_3D ( 'NONE', #251, #338, #835 ) ;
#952 = VERTEX_POINT ( 'NONE', #972 ) ;
#953 = LINE ( 'NONE', #826, #52 ) ;
#954 = EDGE_CURVE ( 'NONE', #580, #665, #806, .T. ) ;
#955 = DIRECTION ( 'NONE',  ( 0.000000000000000000, -0.000000000000000000, 1.000000000000000000 ) ) ;
#956 = ORIENTED_EDGE ( 'NONE', *, *, #1151, .T. ) ;
#957 = CARTESIAN_POINT ( 'NONE',  ( -2.540000000000000036, -19.10000000000000142, 0.000000000000000000 ) ) ;
#958 = DIRECTION ( 'NONE',  ( 1.000000000000000000, -0.000000000000000000, 0.000000000000000000 ) ) ;
#959 = DIRECTION ( 'NONE',  ( 0.000000000000000000, 0.000000000000000000, -1.000000000000000000 ) ) ;
#960 = ADVANCED_FACE ( 'NONE', ( #532 ), #31, .T. ) ;
#961 = ORIENTED_EDGE ( 'NONE', *, *, #1233, .T. ) ;
#962 = AXIS2_PLACEMENT_3D ( 'NONE', #759, #346, #850 ) ;
#963 = VECTOR ( 'NONE', #568, 1000.000000000000000 ) ;
#964 = VERTEX_POINT ( 'NONE', #459 ) ;
#965 = PLANE ( 'NONE',  #628 ) ;
#966 = ORIENTED_EDGE ( 'NONE', *, *, #1024, .T. ) ;
#967 = DIRECTION ( 'NONE',  ( 0.000000000000000000, 0.000000000000000000, 1.000000000000000000 ) ) ;
#968 = CARTESIAN_POINT ( 'NONE',  ( -1.499999999999999778, 0.7999999999999999334, -0.7499999999999987788 ) ) ;
#969 = PRESENTATION_LAYER_ASSIGNMENT (  '', '', ( #450 ) ) ;
#970 = ORIENTED_EDGE ( 'NONE', *, *, #884, .T. ) ;
#971 = VERTEX_POINT ( 'NONE', #572 ) ;
#972 = CARTESIAN_POINT ( 'NONE',  ( 4.250000000000000000, 0.5000000000000004441, 0.7499999999999988898 ) ) ;
#973 = FACE_OUTER_BOUND ( 'NONE', #236, .T. ) ;
#974 = VECTOR ( 'NONE', #384, 1000.000000000000000 ) ;
#975 = ADVANCED_FACE ( 'NONE', ( #546 ), #279, .F. ) ;
#976 = ORIENTED_EDGE ( 'NONE', *, *, #356, .F. ) ;
#977 = LINE ( 'NONE', #1295, #974 ) ;
#978 = ORIENTED_EDGE ( 'NONE', *, *, #1299, .F. ) ;
#979 = LINE ( 'NONE', #1125, #529 ) ;
#980 = CARTESIAN_POINT ( 'NONE',  ( -4.000000000000000000, 25.39414711402796598, -1.749999999999999334 ) ) ;
#981 = CARTESIAN_POINT ( 'NONE',  ( -4.250000000000000000, 0.5000000000000000000, 0.7499999999999988898 ) ) ;
#982 = DIRECTION ( 'NONE',  ( -1.000000000000000000, 0.000000000000000000, 0.000000000000000000 ) ) ;
#983 = CYLINDRICAL_SURFACE ( 'NONE', #2, 0.2500000000000000000 ) ;
#984 = DIRECTION ( 'NONE',  ( -0.000000000000000000, 1.000000000000000000, 0.000000000000000000 ) ) ;
#985 = VECTOR ( 'NONE', #1096, 1000.000000000000000 ) ;
#986 = AXIS2_PLACEMENT_3D ( 'NONE', #1079, #873, #780 ) ;
#987 = CIRCLE ( 'NONE', #827, 0.2500000000000002220 ) ;
#988 = SPHERICAL_SURFACE ( 'NONE', #915, 0.2500000000000000000 ) ;
#989 = DIRECTION ( 'NONE',  ( -0.000000000000000000, 1.000000000000000000, -0.000000000000000000 ) ) ;
#990 = ORIENTED_EDGE ( 'NONE', *, *, #843, .T. ) ;
#991 = LINE ( 'NONE', #1155, #996 ) ;
#992 = LINE ( 'NONE', #823, #527 ) ;
#993 = DIRECTION ( 'NONE',  ( 0.000000000000000000, 0.000000000000000000, 1.000000000000000000 ) ) ;
#994 = FACE_OUTER_BOUND ( 'NONE', #165, .T. ) ;
#995 = FILL_AREA_STYLE_COLOUR ( '', #83 ) ;
#996 = VECTOR ( 'NONE', #1228, 1000.000000000000000 ) ;
#997 = EDGE_CURVE ( 'NONE', #1172, #1141, #90, .T. ) ;
#998 = VECTOR ( 'NONE', #794, 1000.000000000000000 ) ;
#999 = FILL_AREA_STYLE_COLOUR ( '', #422 ) ;
#1000 = ORIENTED_EDGE ( 'NONE', *, *, #174, .T. ) ;
#1001 = CIRCLE ( 'NONE', #152, 0.2500000000000000000 ) ;
#1002 = CARTESIAN_POINT ( 'NONE',  ( 1.500000000000000222, 0.7999999999999999334, -0.7499999999999987788 ) ) ;
#1003 = DIRECTION ( 'NONE',  ( 0.000000000000000000, 0.000000000000000000, -1.000000000000000000 ) ) ;
#1004 = ORIENTED_EDGE ( 'NONE', *, *, #253, .F. ) ;
#1005 = CARTESIAN_POINT ( 'NONE',  ( -2.540000000000000036, -19.10000000000000142, 0.000000000000000000 ) ) ;
#1006 = AXIS2_PLACEMENT_3D ( 'NONE', #948, #801, #1221 ) ;
#1007 = DIRECTION ( 'NONE',  ( 0.000000000000000000, -1.000000000000000000, 0.000000000000000000 ) ) ;
#1008 = EDGE_CURVE ( 'NONE', #185, #139, #979, .T. ) ;
#1009 = ORIENTED_EDGE ( 'NONE', *, *, #831, .T. ) ;
#1010 = CARTESIAN_POINT ( 'NONE',  ( 1.500000000000000222, -3.354101966249682931, -0.7499999999999987788 ) ) ;
#1011 = CARTESIAN_POINT ( 'NONE',  ( 4.000000000000000000, 7.750000000000000000, 1.750000000000000444 ) ) ;
#1012 = EDGE_CURVE ( 'NONE', #223, #134, #93, .T. ) ;
#1013 = VERTEX_POINT ( 'NONE', #1216 ) ;
#1014 = CARTESIAN_POINT ( 'NONE',  ( -4.000000000000000000, 25.39414711402796598, 1.750000000000000444 ) ) ;
#1015 = EDGE_LOOP ( 'NONE', ( #644, #1037, #1187, #1073 ) ) ;
#1016 = CLOSED_SHELL ( 'NONE', ( #25, #960, #646, #1052, #1068, #344, #14, #858, #256, #121, #824, #273, #1017, #1217, #1184, #337, #1156, #65, #744, #1330, #149, #602, #488, #975, #799, #1319, #276, #341, #1252, #888, #394, #478, #1267, #687, #119 ) ) ;
#1017 = ADVANCED_FACE ( 'NONE', ( #540 ), #988, .T. ) ;
#1018 = CARTESIAN_POINT ( 'NONE',  ( 4.000000000000000000, 25.39414711402796598, 1.750000000000000444 ) ) ;
#1019 = CARTESIAN_POINT ( 'NONE',  ( 3.850000000000000533, -1.552417469626002466, 0.7499999999999988898 ) ) ;
#1020 = ORIENTED_EDGE ( 'NONE', *, *, #1296, .T. ) ;
#1021 = VERTEX_POINT ( 'NONE', #166 ) ;
#1022 = AXIS2_PLACEMENT_3D ( 'NONE', #321, #904, #404 ) ;
#1023 = CARTESIAN_POINT ( 'NONE',  ( 0.000000000000000000, 0.7999999999999999334, 0.000000000000000000 ) ) ;
#1024 = EDGE_CURVE ( 'NONE', #223, #141, #992, .T. ) ;
#1025 = LINE ( 'NONE', #836, #606 ) ;
#1026 = CARTESIAN_POINT ( 'NONE',  ( -4.000000000000000000, 7.750000000000000000, -1.749999999999999556 ) ) ;
#1027 = EDGE_CURVE ( 'NONE', #186, #949, #977, .T. ) ;
#1028 = CARTESIAN_POINT ( 'NONE',  ( -4.000000000000000000, 0.5000000000000000000, 2.000000000000000444 ) ) ;
#1029 = MANIFOLD_SOLID_BREP ( 'Boss-Extrude3', #1016 ) ;
#1030 = AXIS2_PLACEMENT_3D ( 'NONE', #388, #596, #1303 ) ;
#1031 = CLOSED_SHELL ( 'NONE', ( #320, #849, #770, #1191 ) ) ;
#1032 = ORIENTED_EDGE ( 'NONE', *, *, #916, .T. ) ;
#1033 = EDGE_LOOP ( 'NONE', ( #612, #1097, #150, #201 ) ) ;
#1034 = DIRECTION ( 'NONE',  ( -1.000000000000000000, 0.000000000000000000, 0.000000000000000000 ) ) ;
#1035 = CARTESIAN_POINT ( 'NONE',  ( 2.540000000000000036, 0.7999999999999999334, -0.3000000000000000999 ) ) ;
#1036 = ORIENTED_EDGE ( 'NONE', *, *, #830, .T. ) ;
#1037 = ORIENTED_EDGE ( 'NONE', *, *, #397, .F. ) ;
#1038 = DIRECTION ( 'NONE',  ( -0.000000000000000000, 1.000000000000000000, -0.000000000000000000 ) ) ;
#1039 = ORIENTED_EDGE ( 'NONE', *, *, #1265, .F. ) ;
#1040 = ORIENTED_EDGE ( 'NONE', *, *, #453, .F. ) ;
#1041 = AXIS2_PLACEMENT_3D ( 'NONE', #1023, #172, #1205 ) ;
#1042 = EDGE_LOOP ( 'NONE', ( #1264, #829, #652 ) ) ;
#1043 = FILL_AREA_STYLE ('',( #764 ) ) ;
#1044 = CARTESIAN_POINT ( 'NONE',  ( -4.250000000000000000, -1.552417469626002466, 0.7499999999999988898 ) ) ;
#1045 = FACE_OUTER_BOUND ( 'NONE', #608, .T. ) ;
#1046 = ORIENTED_EDGE ( 'NONE', *, *, #155, .F. ) ;
#1047 = VERTEX_POINT ( 'NONE', #475 ) ;
#1048 = ORIENTED_EDGE ( 'NONE', *, *, #469, .F. ) ;
#1049 = ORIENTED_EDGE ( 'NONE', *, *, #180, .F. ) ;
#1050 = DIRECTION ( 'NONE',  ( 0.000000000000000000, 0.000000000000000000, -1.000000000000000000 ) ) ;
#1051 = ORIENTED_EDGE ( 'NONE', *, *, #385, .F. ) ;
#1052 = ADVANCED_FACE ( 'NONE', ( #673 ), #1322, .F. ) ;
#1053 = STYLED_ITEM ( 'NONE', ( #683 ), #1029 ) ;
#1054 = DIRECTION ( 'NONE',  ( 0.000000000000000000, -1.000000000000000000, 0.000000000000000000 ) ) ;
#1055 = CARTESIAN_POINT ( 'NONE',  ( 0.000000000000000000, 8.000000000000000000, 0.000000000000000000 ) ) ;
#1056 = EDGE_LOOP ( 'NONE', ( #199, #1059, #825 ) ) ;
#1057 = EDGE_LOOP ( 'NONE', ( #138, #443, #885, #1170 ) ) ;
#1058 = EDGE_CURVE ( 'NONE', #494, #580, #1116, .T. ) ;
#1059 = ORIENTED_EDGE ( 'NONE', *, *, #1285, .T. ) ;
#1060 = ORIENTED_EDGE ( 'NONE', *, *, #779, .T. ) ;
#1061 = ORIENTED_EDGE ( 'NONE', *, *, #1008, .T. ) ;
#1062 =( LENGTH_UNIT ( ) NAMED_UNIT ( * ) SI_UNIT ( .MILLI., .METRE. ) );
#1063 = EDGE_LOOP ( 'NONE', ( #1107, #497, #634, #175 ) ) ;
#1064 = PRESENTATION_LAYER_ASSIGNMENT (  '', '', ( #523 ) ) ;
#1065 = ORIENTED_EDGE ( 'NONE', *, *, #843, .F. ) ;
#1066 = DIRECTION ( 'NONE',  ( 0.000000000000000000, -1.000000000000000000, 0.000000000000000000 ) ) ;
#1067 = ORIENTED_EDGE ( 'NONE', *, *, #954, .F. ) ;
#1068 = ADVANCED_FACE ( 'NONE', ( #667 ), #615, .F. ) ;
#1069 = ORIENTED_EDGE ( 'NONE', *, *, #769, .T. ) ;
#1070 = ORIENTED_EDGE ( 'NONE', *, *, #1233, .F. ) ;
#1071 = ORIENTED_EDGE ( 'NONE', *, *, #140, .T. ) ;
#1072 = EDGE_LOOP ( 'NONE', ( #181, #1048, #1183, #594, #586, #796, #159, #160 ) ) ;
#1073 = ORIENTED_EDGE ( 'NONE', *, *, #412, .T. ) ;
#1074 = DIRECTION ( 'NONE',  ( 1.000000000000000000, 0.000000000000000000, 0.000000000000000000 ) ) ;
#1075 = DIRECTION ( 'NONE',  ( 0.000000000000000000, 0.000000000000000000, -1.000000000000000000 ) ) ;
#1076 = VERTEX_POINT ( 'NONE', #748 ) ;
#1077 = MECHANICAL_DESIGN_GEOMETRIC_PRESENTATION_REPRESENTATION (  '', ( #533 ), #479 ) ;
#1078 = EDGE_LOOP ( 'NONE', ( #1004, #103, #631, #283, #514, #1069, #521, #107, #111, #261 ) ) ;
#1079 = CARTESIAN_POINT ( 'NONE',  ( 4.000000000000000000, 7.750000000000000000, 1.750000000000000444 ) ) ;
#1080 = VERTEX_POINT ( 'NONE', #813 ) ;
#1081 = AXIS2_PLACEMENT_3D ( 'NONE', #607, #883, #584 ) ;
#1082 = VECTOR ( 'NONE', #1154, 1000.000000000000000 ) ;
#1083 = ORIENTED_EDGE ( 'NONE', *, *, #105, .T. ) ;
#1084 = CARTESIAN_POINT ( 'NONE',  ( 2.540000000000000036, -19.10000000000000142, 0.3000000000000000999 ) ) ;
#1085 = CIRCLE ( 'NONE', #1199, 0.3000000000000000999 ) ;
#1086 = EDGE_CURVE ( 'NONE', #299, #671, #1106, .T. ) ;
#1087 = ORIENTED_EDGE ( 'NONE', *, *, #787, .T. ) ;
#1088 = SURFACE_STYLE_FILL_AREA ( #115 ) ;
#1089 = VERTEX_POINT ( 'NONE', #889 ) ;
#1090 = VECTOR ( 'NONE', #511, 1000.000000000000000 ) ;
#1091 = EDGE_LOOP ( 'NONE', ( #675, #700 ) ) ;
#1092 = DIRECTION ( 'NONE',  ( 0.000000000000000000, 1.000000000000000000, 0.000000000000000000 ) ) ;
#1093 = CARTESIAN_POINT ( 'NONE',  ( 0.000000000000000000, 7.750000000000000000, 1.750000000000000444 ) ) ;
#1094 = ORIENTED_EDGE ( 'NONE', *, *, #410, .F. ) ;
#1095 = VECTOR ( 'NONE', #421, 1000.000000000000000 ) ;
#1096 = DIRECTION ( 'NONE',  ( -0.000000000000000000, 1.000000000000000000, -0.000000000000000000 ) ) ;
#1097 = ORIENTED_EDGE ( 'NONE', *, *, #1086, .F. ) ;
#1098 = LINE ( 'NONE', #1232, #654 ) ;
#1099 = LINE ( 'NONE', #670, #203 ) ;
#1100 = UNCERTAINTY_MEASURE_WITH_UNIT (LENGTH_MEASURE( 1.000000000000000082E-05 ), #742, 'distance_accuracy_value', 'NONE');
#1101 = ORIENTED_EDGE ( 'NONE', *, *, #753, .F. ) ;
#1102 = FACE_OUTER_BOUND ( 'NONE', #642, .T. ) ;
#1103 = LINE ( 'NONE', #413, #1090 ) ;
#1104 = VERTEX_POINT ( 'NONE', #909 ) ;
#1105 = CIRCLE ( 'NONE', #951, 0.2500000000000000000 ) ;
#1106 = LINE ( 'NONE', #229, #216 ) ;
#1107 = ORIENTED_EDGE ( 'NONE', *, *, #593, .F. ) ;
#1108 = CARTESIAN_POINT ( 'NONE',  ( 4.000000000000000000, 0.5000000000000004441, -1.749999999999999556 ) ) ;
#1109 = AXIS2_PLACEMENT_3D ( 'NONE', #303, #315, #1003 ) ;
#1110 = EDGE_LOOP ( 'NONE', ( #379, #1178, #1240 ) ) ;
#1111 = CIRCLE ( 'NONE', #467, 0.2500000000000000000 ) ;
#1112 = EDGE_LOOP ( 'NONE', ( #1061, #54, #252, #639 ) ) ;
#1113 = DIRECTION ( 'NONE',  ( 1.000000000000000000, 0.000000000000000000, -0.000000000000000000 ) ) ;
#1114 = EDGE_CURVE ( 'NONE', #589, #299, #545, .T. ) ;
#1115 = LINE ( 'NONE', #668, #224 ) ;
#1116 = CIRCLE ( 'NONE', #719, 0.3000000000000000999 ) ;
#1117 = ORIENTED_EDGE ( 'NONE', *, *, #230, .T. ) ;
#1118 = VERTEX_POINT ( 'NONE', #739 ) ;
#1119 = VERTEX_POINT ( 'NONE', #803 ) ;
#1120 = FACE_OUTER_BOUND ( 'NONE', #1072, .T. ) ;
#1121 = ORIENTED_EDGE ( 'NONE', *, *, #932, .F. ) ;
#1122 = PLANE ( 'NONE',  #1208 ) ;
#1123 = DIRECTION ( 'NONE',  ( 1.000000000000000000, 0.000000000000000000, 0.000000000000000000 ) ) ;
#1124 = FACE_OUTER_BOUND ( 'NONE', #178, .T. ) ;
#1125 = CARTESIAN_POINT ( 'NONE',  ( -4.250000000000000000, 0.5000000000000000000, -1.999999999999999556 ) ) ;
#1126 = COLOUR_RGB ( '',0.2509803921568627416, 0.2509803921568627416, 0.2509803921568627416 ) ;
#1127 = ORIENTED_EDGE ( 'NONE', *, *, #137, .T. ) ;
#1128 = FILL_AREA_STYLE ('',( #999 ) ) ;
#1129 = ORIENTED_EDGE ( 'NONE', *, *, #1210, .T. ) ;
#1130 = EDGE_CURVE ( 'NONE', #359, #603, #991, .T. ) ;
#1131 = CARTESIAN_POINT ( 'NONE',  ( -3.850000000000000533, 0.5000000000000000000, -1.600000000000000311 ) ) ;
#1132 = CARTESIAN_POINT ( 'NONE',  ( 4.250000000000000000, 0.000000000000000000, -0.7500000000000011102 ) ) ;
#1133 = LINE ( 'NONE', #1131, #242 ) ;
#1134 = VECTOR ( 'NONE', #653, 1000.000000000000000 ) ;
#1135 = FACE_OUTER_BOUND ( 'NONE', #29, .T. ) ;
#1136 = DIRECTION ( 'NONE',  ( -0.000000000000000000, 1.000000000000000000, -0.000000000000000000 ) ) ;
#1137 = VERTEX_POINT ( 'NONE', #625 ) ;
#1138 = ORIENTED_EDGE ( 'NONE', *, *, #617, .T. ) ;
#1139 = DIRECTION ( 'NONE',  ( 0.000000000000000000, -1.000000000000000000, 0.000000000000000000 ) ) ;
#1140 = PRESENTATION_STYLE_ASSIGNMENT (( #462 ) ) ;
#1141 = VERTEX_POINT ( 'NONE', #729 ) ;
#1142 = DIRECTION ( 'NONE',  ( 1.000000000000000000, 0.000000000000000000, 0.000000000000000000 ) ) ;
#1143 = DIRECTION ( 'NONE',  ( 0.000000000000000000, 1.000000000000000000, 0.000000000000000000 ) ) ;
#1144 = VERTEX_POINT ( 'NONE', #897 ) ;
#1145 = CARTESIAN_POINT ( 'NONE',  ( 4.000000000000000000, 7.750000000000000000, 1.750000000000000444 ) ) ;
#1146 = ORIENTED_EDGE ( 'NONE', *, *, #1194, .F. ) ;
#1147 = LINE ( 'NONE', #1177, #682 ) ;
#1148 = AXIS2_PLACEMENT_3D ( 'NONE', #869, #1193, #853 ) ;
#1149 = ORIENTED_EDGE ( 'NONE', *, *, #710, .T. ) ;
#1150 =( NAMED_UNIT ( * ) PLANE_ANGLE_UNIT ( ) SI_UNIT ( $, .RADIAN. ) );
#1151 = EDGE_CURVE ( 'NONE', #671, #592, #552, .T. ) ;
#1152 = ORIENTED_EDGE ( 'NONE', *, *, #576, .F. ) ;
#1153 = DIRECTION ( 'NONE',  ( 0.000000000000000000, -1.000000000000000000, 0.000000000000000000 ) ) ;
#1154 = DIRECTION ( 'NONE',  ( -0.000000000000000000, 1.000000000000000000, -0.000000000000000000 ) ) ;
#1155 = CARTESIAN_POINT ( 'NONE',  ( -1.499999999999999778, 0.7999999999999999334, -0.7499999999999987788 ) ) ;
#1156 = ADVANCED_FACE ( 'NONE', ( #554 ), #86, .T. ) ;
#1157 = LINE ( 'NONE', #161, #243 ) ;
#1158 = ORIENTED_EDGE ( 'NONE', *, *, #637, .T. ) ;
#1159 = DIRECTION ( 'NONE',  ( 0.000000000000000000, 0.000000000000000000, -1.000000000000000000 ) ) ;
#1160 = CARTESIAN_POINT ( 'NONE',  ( 3.849999999999999645, 0.7999999999999999334, -1.600000000000000311 ) ) ;
#1161 = ORIENTED_EDGE ( 'NONE', *, *, #755, .F. ) ;
#1162 = ORIENTED_EDGE ( 'NONE', *, *, #1231, .F. ) ;
#1163 = AXIS2_PLACEMENT_3D ( 'NONE', #1108, #792, #1075 ) ;
#1164 = ORIENTED_EDGE ( 'NONE', *, *, #40, .T. ) ;
#1165 = CARTESIAN_POINT ( 'NONE',  ( 3.849999999999999645, 0.5000000000000000000, -1.600000000000000311 ) ) ;
#1166 = EDGE_CURVE ( 'NONE', #580, #494, #96, .T. ) ;
#1167 = VERTEX_POINT ( 'NONE', #1277 ) ;
#1168 = DIRECTION ( 'NONE',  ( 0.000000000000000000, 0.000000000000000000, 1.000000000000000000 ) ) ;
#1169 = EDGE_CURVE ( 'NONE', #671, #139, #89, .T. ) ;
#1170 = ORIENTED_EDGE ( 'NONE', *, *, #80, .T. ) ;
#1171 = DIRECTION ( 'NONE',  ( -1.000000000000000000, 0.000000000000000000, -0.000000000000000000 ) ) ;
#1172 = VERTEX_POINT ( 'NONE', #301 ) ;
#1173 = ORIENTED_EDGE ( 'NONE', *, *, #779, .F. ) ;
#1174 = CARTESIAN_POINT ( 'NONE',  ( 1.499999999999999778, 0.000000000000000000, -0.7499999999999987788 ) ) ;
#1175 = VECTOR ( 'NONE', #623, 1000.000000000000000 ) ;
#1176 = MECHANICAL_DESIGN_GEOMETRIC_PRESENTATION_REPRESENTATION (  '', ( #515 ), #588 ) ;
#1177 = CARTESIAN_POINT ( 'NONE',  ( 3.850000000000000533, 0.000000000000000000, -0.7500000000000011102 ) ) ;
#1178 = ORIENTED_EDGE ( 'NONE', *, *, #319, .T. ) ;
#1179 = DIRECTION ( 'NONE',  ( 1.000000000000000000, 0.000000000000000000, 0.000000000000000000 ) ) ;
#1180 = FILL_AREA_STYLE_COLOUR ( '', #643 ) ;
#1181 = CARTESIAN_POINT ( 'NONE',  ( -4.250000000000000000, -1.552417469626002466, -0.7500000000000011102 ) ) ;
#1182 = DIRECTION ( 'NONE',  ( 1.000000000000000000, -0.000000000000000000, -0.000000000000000000 ) ) ;
#1183 = ORIENTED_EDGE ( 'NONE', *, *, #755, .T. ) ;
#1184 = ADVANCED_FACE ( 'NONE', ( #994 ), #92, .T. ) ;
#1185 = DIRECTION ( 'NONE',  ( 0.000000000000000000, 0.000000000000000000, -1.000000000000000000 ) ) ;
#1186 = DIRECTION ( 'NONE',  ( -0.000000000000000000, 1.000000000000000000, -0.000000000000000000 ) ) ;
#1187 = ORIENTED_EDGE ( 'NONE', *, *, #1222, .F. ) ;
#1188 =( GEOMETRIC_REPRESENTATION_CONTEXT ( 3 ) GLOBAL_UNCERTAINTY_ASSIGNED_CONTEXT ( ( #398 ) ) GLOBAL_UNIT_ASSIGNED_CONTEXT ( ( #581, #493, #484 ) ) REPRESENTATION_CONTEXT ( 'NONE', 'WORKASPACE' ) );
#1189 = DIRECTION ( 'NONE',  ( 0.000000000000000000, 1.000000000000000000, -8.673617379884027583E-16 ) ) ;
#1190 = EDGE_CURVE ( 'NONE', #1080, #182, #1157, .T. ) ;
#1191 = ADVANCED_FACE ( 'NONE', ( #245 ), #1206, .F. ) ;
#1192 = DIRECTION ( 'NONE',  ( 0.000000000000000000, 0.000000000000000000, 1.000000000000000000 ) ) ;
#1193 = DIRECTION ( 'NONE',  ( 0.000000000000000000, 0.000000000000000000, -1.000000000000000000 ) ) ;
#1194 = EDGE_CURVE ( 'NONE', #1013, #1021, #1133, .T. ) ;
#1195 = CARTESIAN_POINT ( 'NONE',  ( 4.250000000000000000, 0.5000000000000000000, -1.749999999999999334 ) ) ;
#1196 = ORIENTED_EDGE ( 'NONE', *, *, #814, .T. ) ;
#1197 = CARTESIAN_POINT ( 'NONE',  ( -4.250000000000000000, 7.750000000000000000, 1.750000000000000444 ) ) ;
#1198 = DIRECTION ( 'NONE',  ( 0.000000000000000000, 0.000000000000000000, 1.000000000000000000 ) ) ;
#1199 = AXIS2_PLACEMENT_3D ( 'NONE', #334, #758, #747 ) ;
#1200 = ADVANCED_FACE ( 'NONE', ( #713 ), #282, .T. ) ;
#1201 = EDGE_CURVE ( 'NONE', #182, #130, #277, .T. ) ;
#1202 = SURFACE_SIDE_STYLE ('',( #238 ) ) ;
#1203 = DIRECTION ( 'NONE',  ( 0.000000000000000000, 0.000000000000000000, -1.000000000000000000 ) ) ;
#1204 = DIRECTION ( 'NONE',  ( -0.000000000000000000, -1.000000000000000000, 0.000000000000000000 ) ) ;
#1205 = DIRECTION ( 'NONE',  ( 0.000000000000000000, -0.000000000000000000, 1.000000000000000000 ) ) ;
#1206 = PLANE ( 'NONE',  #890 ) ;
#1207 = DIRECTION ( 'NONE',  ( -1.000000000000000000, 0.000000000000000000, 0.000000000000000000 ) ) ;
#1208 = AXIS2_PLACEMENT_3D ( 'NONE', #50, #575, #1278 ) ;
#1209 = FILL_AREA_STYLE ('',( #995 ) ) ;
#1210 = EDGE_CURVE ( 'NONE', #1289, #168, #714, .T. ) ;
#1211 = CARTESIAN_POINT ( 'NONE',  ( -3.850000000000000533, 0.5000000000000000000, -1.600000000000000311 ) ) ;
#1212 = DIRECTION ( 'NONE',  ( -0.000000000000000000, -1.000000000000000000, 0.000000000000000000 ) ) ;
#1213 =( GEOMETRIC_REPRESENTATION_CONTEXT ( 3 ) GLOBAL_UNCERTAINTY_ASSIGNED_CONTEXT ( ( #262 ) ) GLOBAL_UNIT_ASSIGNED_CONTEXT ( ( #535, #864, #1218 ) ) REPRESENTATION_CONTEXT ( 'NONE', 'WORKASPACE' ) );
#1214 = DIRECTION ( 'NONE',  ( 0.000000000000000000, 0.000000000000000000, -1.000000000000000000 ) ) ;
#1215 = DIRECTION ( 'NONE',  ( -0.000000000000000000, 1.000000000000000000, -0.000000000000000000 ) ) ;
#1216 = CARTESIAN_POINT ( 'NONE',  ( -3.850000000000000533, 0.5000000000000000000, -0.7500000000000011102 ) ) ;
#1217 = ADVANCED_FACE ( 'NONE', ( #686 ), #1276, .T. ) ;
#1218 =( NAMED_UNIT ( * ) SI_UNIT ( $, .STERADIAN. ) SOLID_ANGLE_UNIT ( ) );
#1219 = MECHANICAL_DESIGN_GEOMETRIC_PRESENTATION_REPRESENTATION (  '', ( #785 ), #704 ) ;
#1220 = SURFACE_SIDE_STYLE ('',( #731 ) ) ;
#1221 = DIRECTION ( 'NONE',  ( 0.000000000000000000, 0.000000000000000000, -1.000000000000000000 ) ) ;
#1222 = EDGE_CURVE ( 'NONE', #1047, #1080, #393, .T. ) ;
#1223 =( NAMED_UNIT ( * ) PLANE_ANGLE_UNIT ( ) SI_UNIT ( $, .RADIAN. ) );
#1224 = SURFACE_STYLE_USAGE ( .BOTH. , #218 ) ;
#1225 = ADVANCED_FACE ( 'NONE', ( #296 ), #1290, .T. ) ;
#1226 =( LENGTH_UNIT ( ) NAMED_UNIT ( * ) SI_UNIT ( .MILLI., .METRE. ) );
#1227 = SURFACE_STYLE_USAGE ( .BOTH. , #128 ) ;
#1228 = DIRECTION ( 'NONE',  ( -0.000000000000000000, -0.000000000000000000, -1.000000000000000000 ) ) ;
#1229 = AXIS2_PLACEMENT_3D ( 'NONE', #957, #472, #967 ) ;
#1230 = FILL_AREA_STYLE ('',( #328 ) ) ;
#1231 = EDGE_CURVE ( 'NONE', #264, #359, #857, .T. ) ;
#1232 = CARTESIAN_POINT ( 'NONE',  ( -1.499999999999999778, 0.000000000000000000, -0.7499999999999987788 ) ) ;
#1233 = EDGE_CURVE ( 'NONE', #1242, #264, #848, .T. ) ;
#1234 = CARTESIAN_POINT ( 'NONE',  ( 0.000000000000000000, 0.5000000000000000000, -0.7500000000000011102 ) ) ;
#1235 = DIRECTION ( 'NONE',  ( 0.000000000000000000, 0.000000000000000000, 1.000000000000000000 ) ) ;
#1236 = CARTESIAN_POINT ( 'NONE',  ( -3.850000000000000533, 0.5000000000000000000, 1.600000000000000311 ) ) ;
#1237 = VERTEX_POINT ( 'NONE', #928 ) ;
#1238 = CARTESIAN_POINT ( 'NONE',  ( -4.000000000000000000, 7.750000000000000000, 0.000000000000000000 ) ) ;
#1239 = STYLED_ITEM ( 'NONE', ( #898 ), #45 ) ;
#1240 = ORIENTED_EDGE ( 'NONE', *, *, #916, .F. ) ;
#1241 = VECTOR ( 'NONE', #1074, 1000.000000000000000 ) ;
#1242 = VERTEX_POINT ( 'NONE', #1338 ) ;
#1243 = CARTESIAN_POINT ( 'NONE',  ( -3.850000000000000533, 0.000000000000000000, 0.7499999999999988898 ) ) ;
#1244 = EDGE_CURVE ( 'NONE', #665, #964, #859, .T. ) ;
#1245 = VERTEX_POINT ( 'NONE', #530 ) ;
#1246 = CARTESIAN_POINT ( 'NONE',  ( -4.000000000000000000, 7.750000000000000000, -1.749999999999999334 ) ) ;
#1247 = DIRECTION ( 'NONE',  ( -0.000000000000000000, 0.000000000000000000, 1.000000000000000000 ) ) ;
#1248 = VECTOR ( 'NONE', #556, 1000.000000000000000 ) ;
#1249 = EDGE_LOOP ( 'NONE', ( #538, #71, #1071, #300 ) ) ;
#1250 = FACE_OUTER_BOUND ( 'NONE', #1091, .T. ) ;
#1251 = LINE ( 'NONE', #116, #815 ) ;
#1252 = ADVANCED_FACE ( 'NONE', ( #1300 ), #427, .F. ) ;
#1253 = DIRECTION ( 'NONE',  ( 1.000000000000000000, 0.000000000000000000, 0.000000000000000000 ) ) ;
#1254 = VECTOR ( 'NONE', #350, 1000.000000000000000 ) ;
#1255 = ORIENTED_EDGE ( 'NONE', *, *, #997, .F. ) ;
#1256 = VERTEX_POINT ( 'NONE', #766 ) ;
#1257 = SURFACE_STYLE_USAGE ( .BOTH. , #265 ) ;
#1258 = CARTESIAN_POINT ( 'NONE',  ( -2.540000000000000036, -39.04852813742385820, -0.3000000000000000999 ) ) ;
#1259 = CARTESIAN_POINT ( 'NONE',  ( 3.849999999999999645, 0.5000000000000000000, 1.600000000000000311 ) ) ;
#1260 = VECTOR ( 'NONE', #862, 1000.000000000000000 ) ;
#1261 = ORIENTED_EDGE ( 'NONE', *, *, #740, .T. ) ;
#1262 = LINE ( 'NONE', #1181, #1260 ) ;
#1263 = AXIS2_PLACEMENT_3D ( 'NONE', #878, #63, #473 ) ;
#1264 = ORIENTED_EDGE ( 'NONE', *, *, #281, .T. ) ;
#1265 = EDGE_CURVE ( 'NONE', #1141, #1119, #255, .T. ) ;
#1266 = CLOSED_SHELL ( 'NONE', ( #1200, #900, #1225, #564 ) ) ;
#1267 = ADVANCED_FACE ( 'NONE', ( #1124 ), #921, .F. ) ;
#1268 = PLANE ( 'NONE',  #225 ) ;
#1269 = AXIS2_PLACEMENT_3D ( 'NONE', #278, #1054, #547 ) ;
#1270 = CARTESIAN_POINT ( 'NONE',  ( -1.499999999999999778, -3.354101966249682931, 0.7499999999999988898 ) ) ;
#1271 = PLANE ( 'NONE',  #34 ) ;
#1272 = VERTEX_POINT ( 'NONE', #1084 ) ;
#1273 = DIRECTION ( 'NONE',  ( 0.000000000000000000, 0.000000000000000000, -1.000000000000000000 ) ) ;
#1274 = ORIENTED_EDGE ( 'NONE', *, *, #543, .F. ) ;
#1275 = AXIS2_PLACEMENT_3D ( 'NONE', #699, #136, #1253 ) ;
#1276 = CYLINDRICAL_SURFACE ( 'NONE', #579, 0.2499999999999997780 ) ;
#1277 = CARTESIAN_POINT ( 'NONE',  ( 3.850000000000000533, 0.5000000000000000000, 0.7499999999999988898 ) ) ;
#1278 = DIRECTION ( 'NONE',  ( -0.000000000000000000, 0.000000000000000000, -1.000000000000000000 ) ) ;
#1279 = VERTEX_POINT ( 'NONE', #550 ) ;
#1280 = CARTESIAN_POINT ( 'NONE',  ( -4.000000000000000000, 0.5000000000000004441, -1.749999999999999334 ) ) ;
#1281 = DIRECTION ( 'NONE',  ( -0.000000000000000000, 1.000000000000000000, -0.000000000000000000 ) ) ;
#1282 = PLANE ( 'NONE',  #196 ) ;
#1283 = AXIS2_PLACEMENT_3D ( 'NONE', #127, #304, #370 ) ;
#1284 = DIRECTION ( 'NONE',  ( 0.000000000000000000, 0.000000000000000000, 1.000000000000000000 ) ) ;
#1285 = EDGE_CURVE ( 'NONE', #805, #299, #209, .T. ) ;
#1286 = DIRECTION ( 'NONE',  ( -0.000000000000000000, -0.000000000000000000, -1.000000000000000000 ) ) ;
#1287 = AXIS2_PLACEMENT_3D ( 'NONE', #1291, #1311, #712 ) ;
#1288 = DIRECTION ( 'NONE',  ( 0.000000000000000000, 0.000000000000000000, 1.000000000000000000 ) ) ;
#1289 = VERTEX_POINT ( 'NONE', #772 ) ;
#1290 = CYLINDRICAL_SURFACE ( 'NONE', #756, 0.3000000000000000999 ) ;
#1291 = CARTESIAN_POINT ( 'NONE',  ( 0.000000000000000000, 0.000000000000000000, 0.000000000000000000 ) ) ;
#1292 = DIRECTION ( 'NONE',  ( 0.000000000000000000, -1.000000000000000000, 0.000000000000000000 ) ) ;
#1293 = SURFACE_SIDE_STYLE ('',( #95 ) ) ;
#1294 = AXIS2_PLACEMENT_3D ( 'NONE', #793, #206, #400 ) ;
#1295 = CARTESIAN_POINT ( 'NONE',  ( 4.250000000000000000, 0.5000000000000000000, 2.000000000000000444 ) ) ;
#1296 = EDGE_CURVE ( 'NONE', #1237, #534, #259, .T. ) ;
#1297 = UNCERTAINTY_MEASURE_WITH_UNIT (LENGTH_MEASURE( 1.000000000000000082E-05 ), #471, 'distance_accuracy_value', 'NONE');
#1298 = SURFACE_STYLE_FILL_AREA ( #1230 ) ;
#1299 = EDGE_CURVE ( 'NONE', #1089, #650, #1147, .T. ) ;
#1300 = FACE_OUTER_BOUND ( 'NONE', #120, .T. ) ;
#1301 =( NAMED_UNIT ( * ) PLANE_ANGLE_UNIT ( ) SI_UNIT ( $, .RADIAN. ) );
#1302 = LINE ( 'NONE', #910, #455 ) ;
#1303 = DIRECTION ( 'NONE',  ( 0.000000000000000000, 0.000000000000000000, -1.000000000000000000 ) ) ;
#1304 = CARTESIAN_POINT ( 'NONE',  ( -4.000000000000000000, 7.750000000000000000, 1.750000000000000444 ) ) ;
#1305 = SURFACE_STYLE_USAGE ( .BOTH. , #1293 ) ;
#1306 = CIRCLE ( 'NONE', #557, 0.3000000000000000999 ) ;
#1307 = SURFACE_STYLE_USAGE ( .BOTH. , #401 ) ;
#1308 = VECTOR ( 'NONE', #309, 1000.000000000000000 ) ;
#1309 = VECTOR ( 'NONE', #902, 1000.000000000000000 ) ;
#1310 = LINE ( 'NONE', #782, #426 ) ;
#1311 = DIRECTION ( 'NONE',  ( 0.000000000000000000, 0.000000000000000000, 1.000000000000000000 ) ) ;
#1312 = DIRECTION ( 'NONE',  ( 0.000000000000000000, 1.000000000000000000, 0.000000000000000000 ) ) ;
#1313 = FACE_OUTER_BOUND ( 'NONE', #375, .T. ) ;
#1314 = AXIS2_PLACEMENT_3D ( 'NONE', #1010, #1328, #1235 ) ;
#1315 = DIRECTION ( 'NONE',  ( -1.000000000000000000, -0.000000000000000000, -0.000000000000000000 ) ) ;
#1316 = CARTESIAN_POINT ( 'NONE',  ( -1.499999999999999778, 0.7999999999999999334, 0.7499999999999988898 ) ) ;
#1317 = FACE_OUTER_BOUND ( 'NONE', #760, .T. ) ;
#1318 = EDGE_CURVE ( 'NONE', #1119, #1245, #233, .T. ) ;
#1319 = ADVANCED_FACE ( 'NONE', ( #676 ), #153, .F. ) ;
#1320 = FACE_OUTER_BOUND ( 'NONE', #219, .T. ) ;
#1321 = UNCERTAINTY_MEASURE_WITH_UNIT (LENGTH_MEASURE( 1.000000000000000082E-05 ), #481, 'distance_accuracy_value', 'NONE');
#1322 = PLANE ( 'NONE',  #306 ) ;
#1323 = VECTOR ( 'NONE', #958, 1000.000000000000000 ) ;
#1324 = LINE ( 'NONE', #893, #446 ) ;
#1325 = EDGE_CURVE ( 'NONE', #134, #359, #217, .T. ) ;
#1326 = VECTOR ( 'NONE', #559, 1000.000000000000000 ) ;
#1327 = PLANE ( 'NONE',  #1041 ) ;
#1328 = DIRECTION ( 'NONE',  ( -1.000000000000000000, 0.000000000000000000, 0.000000000000000000 ) ) ;
#1329 = ORIENTED_EDGE ( 'NONE', *, *, #456, .F. ) ;
#1330 = ADVANCED_FACE ( 'NONE', ( #1135 ), #702, .T. ) ;
#1331 = DIRECTION ( 'NONE',  ( -1.000000000000000000, 0.000000000000000000, 0.000000000000000000 ) ) ;
#1332 = AXIS2_PLACEMENT_3D ( 'NONE', #110, #1292, #1159 ) ;
#1333 = CARTESIAN_POINT ( 'NONE',  ( 4.250000000000000000, 8.000000000000000000, 1.750000000000000444 ) ) ;
#1334 = ORIENTED_EDGE ( 'NONE', *, *, #1058, .F. ) ;
#1335 = ORIENTED_EDGE ( 'NONE', *, *, #1166, .T. ) ;
#1336 = CARTESIAN_POINT ( 'NONE',  ( 4.250000000000000000, 25.39414711402796598, -1.749999999999999334 ) ) ;
#1337 = PRESENTATION_STYLE_ASSIGNMENT (( #1224 ) ) ;
#1338 = CARTESIAN_POINT ( 'NONE',  ( -1.499999999999999778, 0.000000000000000000, -0.7499999999999987788 ) ) ;
#1339 = DIRECTION ( 'NONE',  ( 0.000000000000000000, 1.000000000000000000, 0.000000000000000000 ) ) ;
#1340 = DIRECTION ( 'NONE',  ( -1.000000000000000000, -0.000000000000000000, -0.000000000000000000 ) ) ;
ENDSEC;
END-ISO-10303-21;
